<svg xmlns="http://www.w3.org/2000/svg" width="426" height="105" viewBox="0 0 426 105" fill="none">
<g opacity="1">
<path d="M19.3359 75.6289C18.9453 79.5352 16.7969 81.651 12.8906 81.9766C11.0677 81.9766 9.47266 81.3906 8.10547 80.2188C6.80339 78.9818 6.15234 77.4518 6.15234 75.6289V29.5352C6.21745 27.7122 6.90104 26.2148 8.20312 25.043C9.50521 23.806 11.0677 23.1875 12.8906 23.1875H53.9062C59.6354 23.3828 63.9648 24.6523 66.8945 26.9961C69.8242 29.2747 71.9401 31.8789 73.2422 34.8086C74.5443 37.7383 75.1953 40.7005 75.1953 43.6953C75.1953 46.8203 74.5443 49.8477 73.2422 52.7773C72.0052 55.707 69.8893 58.3438 66.8945 60.6875C63.9648 62.9661 60.2214 64.0729 55.6641 64.0078H31.0547C29.2318 64.0078 27.7018 63.3568 26.4648 62.0547C25.1628 60.8177 24.5117 59.2878 24.5117 57.4648C24.5117 55.6419 25.1302 54.112 26.3672 52.875C27.6693 51.5729 29.2318 50.9219 31.0547 50.9219H56.25C57.487 50.9219 58.4961 50.5312 59.2773 49.75C60.1237 48.9036 60.7422 47.9596 61.1328 46.918C61.5234 45.8112 61.7188 44.7044 61.7188 43.5977C61.7188 42.556 61.5234 41.5143 61.1328 40.4727C60.7422 39.3659 60.1237 38.4219 59.2773 37.6406C58.4961 36.7943 57.487 36.3385 56.25 36.2734H21.875C20.1823 36.3385 19.3359 37.1849 19.3359 38.8125V75.6289Z" fill="black"/>
<path d="M19.3359 75.6289L21.326 75.8279L21.3359 75.7287V75.6289H19.3359ZM12.8906 81.9766V83.9766H12.9738L13.0567 83.9697L12.8906 81.9766ZM8.10547 80.2188L6.72797 81.6687L6.76505 81.704L6.80389 81.7373L8.10547 80.2188ZM6.15234 29.5352L4.15362 29.4638L4.15234 29.4995V29.5352H6.15234ZM8.20312 25.043L9.54105 26.5296L9.56109 26.5115L9.58062 26.493L8.20312 25.043ZM53.9062 23.1875L53.9744 21.1887L53.9403 21.1875H53.9062V23.1875ZM66.8945 26.9961L65.6451 28.5578L65.6558 28.5664L65.6667 28.5748L66.8945 26.9961ZM73.2422 52.7773L71.4146 51.9651L71.407 51.9822L71.3997 51.9994L73.2422 52.7773ZM66.8945 60.6875L68.1224 62.2662L68.1271 62.2625L66.8945 60.6875ZM55.6641 64.0078L55.6926 62.008L55.6783 62.0078H55.6641V64.0078ZM26.4648 62.0547L27.9148 60.6772L27.8795 60.64L27.8423 60.6047L26.4648 62.0547ZM59.2773 49.75L60.6916 51.1642L59.2773 49.75ZM61.1328 46.918L63.0055 47.6202L63.0123 47.602L63.0188 47.5836L61.1328 46.918ZM61.1328 40.4727L59.2468 41.1383L59.2533 41.1567L59.2602 41.1749L61.1328 40.4727ZM59.2773 37.6406L57.8077 38.9972L57.862 39.056L57.9208 39.1102L59.2773 37.6406ZM56.25 36.2734L56.3551 34.2762L56.3026 34.2734H56.25V36.2734ZM21.875 36.2734V34.2734H21.8366L21.7981 34.2749L21.875 36.2734ZM17.3459 75.4299C17.1828 77.0607 16.6805 78.0782 16.0283 78.7205C15.3764 79.3625 14.3534 79.8477 12.7245 79.9835L13.0567 83.9697C15.3341 83.7799 17.3384 83.0444 18.835 81.5705C20.3313 80.0969 21.0985 78.1034 21.326 75.8279L17.3459 75.4299ZM12.8906 79.9766C11.5387 79.9766 10.4069 79.5572 9.40705 78.7002L6.80389 81.7373C8.53844 83.224 10.5968 83.9766 12.8906 83.9766V79.9766ZM9.48297 78.7688C8.58504 77.9157 8.15234 76.9129 8.15234 75.6289H4.15234C4.15234 77.9907 5.02173 80.0478 6.72797 81.6687L9.48297 78.7688ZM8.15234 75.6289V29.5352H4.15234V75.6289H8.15234ZM8.15107 29.6065C8.19772 28.3003 8.66022 27.3223 9.54105 26.5296L6.8652 23.5564C5.14186 25.1074 4.23718 27.1241 4.15362 29.4638L8.15107 29.6065ZM9.58062 26.493C10.5048 25.615 11.5718 25.1875 12.8906 25.1875V21.1875C10.5636 21.1875 8.50557 21.997 6.82563 23.593L9.58062 26.493ZM12.8906 25.1875H53.9062V21.1875H12.8906V25.1875ZM53.8381 25.1863C59.351 25.3743 63.1877 26.5919 65.6451 28.5578L68.1439 25.4344C64.742 22.7128 59.9198 21.3913 53.9744 21.1887L53.8381 25.1863ZM65.6667 28.5748C68.3776 30.6833 70.266 33.0365 71.4146 35.6209L75.0698 33.9963C73.6143 30.7213 71.2708 27.8662 68.1224 25.4174L65.6667 28.5748ZM71.4146 35.6209C72.6111 38.3132 73.1953 40.9997 73.1953 43.6953H77.1953C77.1953 40.4013 76.4774 37.1634 75.0698 33.9963L71.4146 35.6209ZM73.1953 43.6953C73.1953 46.5331 72.606 49.2843 71.4146 51.9651L75.0698 53.5896C76.4825 50.411 77.1953 47.1075 77.1953 43.6953H73.1953ZM71.3997 51.9994C70.3186 54.5598 68.4413 56.9373 65.6619 59.1125L68.1271 62.2625C71.3373 59.7502 73.6918 56.8542 75.0847 53.5553L71.3997 51.9994ZM65.6667 59.1088C63.1718 61.0493 59.9021 62.0682 55.6926 62.008L55.6355 66.0076C60.5406 66.0777 64.7579 64.883 68.1224 62.2662L65.6667 59.1088ZM55.6641 62.0078H31.0547V66.0078H55.6641V62.0078ZM31.0547 62.0078C29.7707 62.0078 28.7679 61.5751 27.9148 60.6772L25.0148 63.4322C26.6358 65.1384 28.6929 66.0078 31.0547 66.0078V62.0078ZM27.8423 60.6047C26.9444 59.7517 26.5117 58.7488 26.5117 57.4648H22.5117C22.5117 59.8267 23.3811 61.8838 25.0873 63.5047L27.8423 60.6047ZM26.5117 57.4648C26.5117 56.1475 26.9367 55.1339 27.7814 54.2892L24.953 51.4608C23.3237 53.0901 22.5117 55.1364 22.5117 57.4648H26.5117ZM27.7814 54.2892C28.7127 53.3579 29.7682 52.9219 31.0547 52.9219V48.9219C28.6953 48.9219 26.6258 49.7879 24.953 51.4608L27.7814 54.2892ZM31.0547 52.9219H56.25V48.9219H31.0547V52.9219ZM56.25 52.9219C57.9481 52.9219 59.4889 52.3669 60.6916 51.1642L57.8631 48.3358C57.5033 48.6956 57.0259 48.9219 56.25 48.9219V52.9219ZM60.6916 51.1642C61.7242 50.1315 62.5072 48.9491 63.0055 47.6202L59.2602 46.2157C58.9772 46.9702 58.5232 47.6758 57.8631 48.3358L60.6916 51.1642ZM63.0188 47.5836C63.4803 46.276 63.7188 44.9446 63.7188 43.5977H59.7188C59.7188 44.4643 59.5666 45.3464 59.2468 46.2523L63.0188 47.5836ZM63.7188 43.5977C63.7188 42.3003 63.4745 41.0213 63.0055 39.7704L59.2602 41.1749C59.5723 42.0074 59.7188 42.8117 59.7188 43.5977H63.7188ZM63.0188 39.807C62.5219 38.3992 61.7242 37.1775 60.6339 36.171L57.9208 39.1102C58.5232 39.6663 58.9625 40.3326 59.2468 41.1383L63.0188 39.807ZM60.747 36.2841C59.5835 35.0237 58.0698 34.3664 56.3551 34.2762L56.1449 38.2707C56.9042 38.3106 57.4087 38.5649 57.8077 38.9972L60.747 36.2841ZM56.25 34.2734H21.875V38.2734H56.25V34.2734ZM21.7981 34.2749C20.6572 34.3188 19.4604 34.6389 18.5565 35.5428C17.6394 36.4599 17.3359 37.6641 17.3359 38.8125H21.3359C21.3359 38.3333 21.4557 38.3005 21.3849 38.3712C21.3274 38.4288 21.4001 38.2932 21.9519 38.272L21.7981 34.2749ZM17.3359 38.8125V75.6289H21.3359V38.8125H17.3359Z" fill="white"/>
<path d="M84.3115 44.1045C85.9157 44.1045 87.2907 44.6488 88.4365 45.7373C89.5824 46.7686 90.1839 48.0863 90.2412 49.6904V58.3701C90.1839 60.7191 90.3271 62.8962 90.6709 64.9014C91.0719 66.8493 91.9886 68.5967 93.4209 70.1436C94.8532 71.6904 96.6579 72.5212 98.835 72.6357H121.78V49.8623C121.78 48.2581 122.353 46.9404 123.499 45.9092C124.702 44.8206 126.106 44.2764 127.71 44.2764C131.147 44.5628 133.038 46.4248 133.382 49.8623V77.8779C133.382 82.4613 132.752 86.7868 131.491 90.8545C130.345 94.4639 128.455 97.5003 125.819 99.9639C123.241 102.485 119.947 103.86 115.937 104.089H86.2021C84.6553 104.032 83.3376 103.459 82.249 102.37C81.2178 101.339 80.6735 100.05 80.6162 98.5029C80.6162 96.8988 81.1318 95.5238 82.1631 94.3779C83.2516 93.2321 84.598 92.6305 86.2021 92.5732H113.015C115.192 92.4587 116.996 91.6279 118.429 90.0811C119.861 88.5342 120.778 86.7295 121.179 84.667C121.236 84.4951 121.265 84.3232 121.265 84.1514H95.9131C91.9027 83.9222 88.5798 82.5758 85.9443 80.1123C83.3662 77.5915 81.5042 74.5264 80.3584 70.917C79.2699 67.3076 78.6969 63.4691 78.6396 59.4014V49.6904C78.6969 48.1436 79.2699 46.8545 80.3584 45.8232C81.4469 44.7347 82.7646 44.1618 84.3115 44.1045Z" fill="black"/>
<path d="M84.3115 44.1045V42.1045H84.2745L84.2375 42.1059L84.3115 44.1045ZM88.4365 45.7373L87.059 47.1873L87.0786 47.2059L87.0986 47.2239L88.4365 45.7373ZM90.2412 49.6904H92.2412V49.6547L92.2399 49.619L90.2412 49.6904ZM90.2412 58.3701L92.2406 58.4189L92.2412 58.3945V58.3701H90.2412ZM90.6709 64.9014L88.6997 65.2393L88.7053 65.2721L88.712 65.3047L90.6709 64.9014ZM98.835 72.6357L98.7298 74.633L98.7824 74.6357H98.835V72.6357ZM121.78 72.6357V74.6357H123.78V72.6357H121.78ZM123.499 45.9092L124.837 47.3958L124.841 47.3923L123.499 45.9092ZM127.71 44.2764L127.876 42.2833L127.793 42.2764H127.71V44.2764ZM133.382 49.8623H135.382V49.7626L135.372 49.6633L133.382 49.8623ZM131.491 90.8545L133.398 91.4597L133.402 91.4464L131.491 90.8545ZM125.819 99.9639L124.454 98.5028L124.437 98.5182L124.421 98.5339L125.819 99.9639ZM115.937 104.089V106.089H115.994L116.051 106.086L115.937 104.089ZM86.2021 104.089L86.1281 106.087L86.1651 106.089H86.2021V104.089ZM82.249 102.37L80.8348 103.784L82.249 102.37ZM80.6162 98.5029H78.6162V98.54L78.6176 98.577L80.6162 98.5029ZM82.1631 94.3779L80.7131 93.0004L80.6945 93.02L80.6765 93.04L82.1631 94.3779ZM86.2021 92.5732V90.5732H86.1664L86.1308 90.5745L86.2021 92.5732ZM113.015 92.5732V94.5732H113.067L113.12 94.5705L113.015 92.5732ZM118.429 90.0811L119.896 91.4399L118.429 90.0811ZM121.179 84.667L119.281 84.0345L119.24 84.1578L119.215 84.2853L121.179 84.667ZM121.265 84.1514H123.265V82.1514H121.265V84.1514ZM95.9131 84.1514L95.799 86.1481L95.856 86.1514H95.9131V84.1514ZM85.9443 80.1123L84.5461 81.5423L84.5622 81.558L84.5786 81.5734L85.9443 80.1123ZM80.3584 70.917L78.4436 71.4945L78.4478 71.5083L78.4521 71.5222L80.3584 70.917ZM78.6396 59.4014H76.6396V59.4155L76.6398 59.4295L78.6396 59.4014ZM78.6396 49.6904L76.641 49.6164L76.6396 49.6534V49.6904H78.6396ZM80.3584 45.8232L81.7339 47.2751L81.7535 47.2566L81.7726 47.2375L80.3584 45.8232ZM84.3115 46.1045C85.4116 46.1045 86.2911 46.4577 87.059 47.1873L89.814 44.2873C88.2903 42.8398 86.4198 42.1045 84.3115 42.1045V46.1045ZM87.0986 47.2239C87.8232 47.876 88.2036 48.6744 88.2425 49.7618L92.2399 49.619C92.1642 47.4982 91.3415 45.6611 89.7745 44.2507L87.0986 47.2239ZM88.2412 49.6904V58.3701H92.2412V49.6904H88.2412ZM88.2418 58.3214C88.1818 60.7804 88.331 63.0886 88.6997 65.2393L92.6421 64.5634C92.3233 62.7037 92.186 60.6578 92.2406 58.4189L88.2418 58.3214ZM88.712 65.3047C89.1911 67.6317 90.2887 69.7045 91.9534 71.5024L94.8884 68.7847C93.6885 67.4888 92.9528 66.0669 92.6298 64.4981L88.712 65.3047ZM91.9534 71.5024C93.7526 73.4455 96.0526 74.4921 98.7298 74.633L98.9401 70.6385C97.2632 70.5502 95.9538 69.9353 94.8884 68.7847L91.9534 71.5024ZM98.835 74.6357H121.78V70.6357H98.835V74.6357ZM123.78 72.6357V49.8623H119.78V72.6357H123.78ZM123.78 49.8623C123.78 48.799 124.132 48.0306 124.837 47.3958L122.161 44.4226C120.575 45.8503 119.78 47.7173 119.78 49.8623H123.78ZM124.841 47.3923C125.681 46.6322 126.608 46.2764 127.71 46.2764V42.2764C125.604 42.2764 123.723 43.0091 122.157 44.4261L124.841 47.3923ZM127.544 46.2695C128.938 46.3857 129.78 46.7976 130.303 47.3127C130.826 47.828 131.252 48.6649 131.392 50.0613L135.372 49.6633C135.168 47.6222 134.477 45.8093 133.109 44.4627C131.742 43.1158 129.919 42.4535 127.876 42.2833L127.544 46.2695ZM131.382 49.8623V77.8779H135.382V49.8623H131.382ZM131.382 77.8779C131.382 82.2758 130.777 86.4006 129.581 90.2625L133.402 91.4464C134.726 87.173 135.382 82.6467 135.382 77.8779H131.382ZM129.585 90.2493C128.538 93.5487 126.826 96.2853 124.454 98.5028L127.185 101.425C130.084 98.7154 132.153 95.3791 133.397 91.4597L129.585 90.2493ZM124.421 98.5339C122.229 100.678 119.409 101.887 115.822 102.092L116.051 106.086C120.484 105.832 124.254 104.292 127.218 101.394L124.421 98.5339ZM115.937 102.089H86.2021V106.089H115.937V102.089ZM86.2762 102.09C85.2307 102.052 84.3926 101.685 83.6632 100.956L80.8348 103.784C82.2825 105.232 84.0799 106.012 86.1281 106.087L86.2762 102.09ZM83.6632 100.956C83.0123 100.305 82.6547 99.5053 82.6148 98.4289L78.6176 98.577C78.6923 100.594 79.4233 102.373 80.8348 103.784L83.6632 100.956ZM82.6162 98.5029C82.6162 97.3708 82.9634 96.4784 83.6497 95.7159L80.6765 93.04C79.3003 94.5691 78.6162 96.4267 78.6162 98.5029H82.6162ZM83.6131 95.7554C84.3348 94.9957 85.1833 94.6109 86.2735 94.572L86.1308 90.5745C84.0126 90.6502 82.1684 91.4685 80.7131 93.0004L83.6131 95.7554ZM86.2021 94.5732H113.015V90.5732H86.2021V94.5732ZM113.12 94.5705C115.797 94.4296 118.097 93.383 119.896 91.4399L116.961 88.7222C115.896 89.8728 114.586 90.4877 112.91 90.576L113.12 94.5705ZM119.896 91.4399C121.581 89.6208 122.67 87.478 123.142 85.0487L119.215 84.2853C118.886 85.981 118.141 87.4476 116.961 88.7222L119.896 91.4399ZM123.076 85.2994C123.198 84.9347 123.265 84.5496 123.265 84.1514H119.265C119.265 84.0969 119.274 84.0555 119.281 84.0345L123.076 85.2994ZM121.265 82.1514H95.9131V86.1514H121.265V82.1514ZM96.0272 82.1546C92.4273 81.9489 89.5646 80.7587 87.3101 78.6513L84.5786 81.5734C87.5949 84.393 91.378 85.8955 95.799 86.1481L96.0272 82.1546ZM87.3426 78.6823C85.0107 76.4022 83.3164 73.625 82.2646 70.3118L78.4521 71.5222C79.692 75.4277 81.7217 78.7807 84.5461 81.5423L87.3426 78.6823ZM82.2732 70.3395C81.2425 66.9219 80.6943 63.2694 80.6395 59.3732L76.6398 59.4295C76.6996 63.6688 77.2972 67.6933 78.4436 71.4945L82.2732 70.3395ZM80.6396 59.4014V49.6904H76.6396V59.4014H80.6396ZM80.6383 49.7645C80.6769 48.7219 81.0389 47.9336 81.7339 47.2751L78.9829 44.3713C77.5009 45.7754 76.717 47.5652 76.641 49.6164L80.6383 49.7645ZM81.7726 47.2375C82.502 46.5081 83.34 46.1418 84.3855 46.1031L84.2375 42.1059C82.1892 42.1817 80.3919 42.9613 78.9442 44.409L81.7726 47.2375Z" fill="white"/>
<g clip-path="url(#clip0_704_17)">
<g filter="url(#filter0_d_704_17)">
<path d="M167.42 15.2024C172.141 13.2771 177.2 12.2861 182.31 12.2861C187.42 12.2861 192.48 13.2771 197.201 15.2024C201.922 17.1276 206.212 19.9496 209.825 23.507C213.438 27.0645 217.39 32.1569 219.345 36.805C219.62 37.4567 216.658 34.8479 216.895 35.512L201.963 29.1016L192.967 29.5295L184.35 36.2586L180.07 44.7219L175.676 54.9206L172.714 60.3244L168.983 62.0514L163.269 62.3939L158.2 60.1864L154.376 61.7083L148.384 61.5586L144.821 60.0194L144.092 58.4157L143.399 50.5967C143.399 45.5657 144.405 40.5839 146.361 35.9359C148.316 31.2878 151.182 27.0645 154.796 23.507C158.409 19.9496 162.699 17.1276 167.42 15.2024Z" stroke="#C4CDC8" stroke-width="3" stroke-linecap="round" stroke-linejoin="round"/>
<path d="M154.796 77.6864C151.182 74.1289 146.88 69.0705 145.562 64.5543L147.856 65.9936L153.318 69.3118L159.42 72.7982L169.841 72.875L180.385 68.2558L185.21 59.998L189.985 48.6516L192.517 42.3025L197.765 38.9463L201.963 40.2329L206.763 40.8573L209.277 39.4342L214.679 39.3965L220.225 41.656C221.755 53.6478 220.216 60.6095 218.26 65.2575C216.305 69.9056 213.438 74.1289 209.825 77.6864C206.212 81.2438 201.922 84.0658 197.201 85.9911C192.48 87.9164 187.42 88.9073 182.31 88.9073C177.2 88.9073 172.141 87.9164 167.42 85.9911C162.699 84.0658 158.409 81.2438 154.796 77.6864Z" stroke="#C4CDC8" stroke-width="3" stroke-linecap="round" stroke-linejoin="round"/>
<path d="M155.163 63.1009C155.163 63.1009 158.378 62.2645 158.075 60.7355C160.573 62.6748 161.279 63.4474 163.403 64.161C168.79 63.6223 168.533 64.4576 172.977 61.7102C176.598 58.1588 175.897 57.2498 179.179 50.3546C181.231 46.0451 183.43 39.8885 187.052 36.3371C190.674 32.7858 192.742 29.6616 197.864 29.6616C203.07 30.3404 204.455 31.1327 210.296 32.8875C213.743 33.9228 215.124 34.8555 216.471 35.7403M155.163 63.1009C155.163 63.1009 149.132 64.6585 145.439 60.9496M155.163 63.1009L150.539 63.2271L145.439 60.9496M142.2 59.5343C145.691 61.2379 143.554 58.5293 145.439 60.9496M142.2 59.5343L142.306 57.9348L143.35 58.9395L143.502 59.704L142.609 59.4634L142.942 59.0103M142.2 59.5343L143.82 60.242L145.439 60.9496M216.471 35.7403C217.407 36.355 216.892 36.3497 219.798 38.2182L217.788 35.7525L216.471 35.7403ZM216.471 35.7403L218.832 37.8367M218.832 37.8367L219.544 38.2158L218.704 37.1753M218.832 37.8367L216.638 36.3473L217.863 36.1348L218.704 37.1753M218.832 37.8367L217.531 36.5879L218.704 37.1753M218.704 37.1753L218.777 37.5579L218.499 37.2107" stroke="#255545" stroke-width="0.4" stroke-linecap="round" stroke-linejoin="round"/>
<path d="M145.14 60.5077C138.976 31.527 161.716 19.3797 164.016 18.1901C167.466 16.4057 170.16 15.0681 174.654 14.2888C175.676 14.0619 176.74 13.8966 177.816 13.782L179.981 13.4448L184.218 13.501L187.23 13.7695L188.2 13.9509C189.723 14.1448 190.928 14.3825 191.619 14.59C195.267 15.6862 199.733 17.1513 204.165 20.3223C212.044 25.9594 219.8 37.4362 219.8 38.0303C219.8 38.2353 217.827 37.0082 215.05 35.6352L209.494 34.4231L209.338 34.2578L207.224 33.6306L205.847 33.0786L203.577 32.286C203.65 32.2828 203.723 32.2803 203.796 32.2786C202.282 31.7165 196 29.9546 191.655 32.0892L190.199 33.0241C183.602 38.1219 182.362 44.6632 178.337 52.0825C177.154 54.2647 177.367 54.544 175.597 58.4094C173.825 60.8219 171.993 62.6035 171.117 62.6402L169.607 63.481L167.156 63.9061L163.811 64.0906L158.227 61.5004L154.777 63.2848L149.238 63.0591L145.553 61.5234L141.867 59.9878L142.23 57.5526L144.727 59.4919L145.14 60.5077Z" fill="#42796F"/>
<path d="M219.8 38.0303C219.8 37.4362 212.044 25.9594 204.165 20.3223M219.8 38.0303L204.165 20.3223M219.8 38.0303C219.8 38.4818 210.227 31.9858 203.577 32.286M219.8 38.0303L216.562 35.9652L209.494 34.4231L206.822 31.5998L209.338 34.2578L207.224 33.6306L205.847 33.0786L203.577 32.286M204.165 20.3223C199.733 17.1513 195.267 15.6862 191.619 14.59M191.619 14.59C189.293 13.8912 181.131 12.8502 174.654 14.2888M191.619 14.59L187.23 13.7695L184.218 13.501L179.981 13.4448L175.471 14.1471L174.654 14.2888M174.654 14.2888C170.16 15.0681 167.466 16.4057 164.016 18.1901C161.716 19.3797 138.976 31.527 145.14 60.5077C146.412 62.6595 155.501 47.7392 158.542 46.0256M203.577 32.286C206.74 33.3191 195.646 28.5211 190.199 33.0241M203.577 32.286L205.708 32.9891L196.948 28.6908L190.199 33.0241M190.199 33.0241C183.602 38.1219 182.362 44.6632 178.337 52.0825C177.154 54.2647 177.367 54.544 175.597 58.4094C173.267 61.5811 170.833 63.6623 170.606 62.1217M174.069 43.3334L165.591 43.2063L158.542 46.0256M174.069 43.3334C175.495 43.1008 173.66 49.579 172.162 55.0422M174.069 43.3334C171.532 46.4571 168.985 48.9596 167.804 47.9782M158.542 46.0256C165.41 44.0512 165.988 46.468 167.804 47.9782M170.606 62.1217C170.478 61.2564 171.259 58.3335 172.162 55.0422M170.606 62.1217L172.162 55.0422M163.811 64.0906L167.156 63.9061M163.811 64.0906L166.369 62.0656L167.156 63.9061M163.811 64.0906L158.227 61.5004M171.51 62.4209L169.607 63.481L167.156 63.9061M163.403 64.1614C162.994 64.2323 161.057 62.9866 161.057 62.9866L158.227 61.5004M158.227 61.5004L154.777 63.2848L149.238 63.0591L145.553 61.5234M145.553 61.5234L141.867 59.9878L142.23 57.5526L144.727 59.4919L145.553 61.5234ZM145.553 61.5234L146.901 59.2699C146.901 59.2699 155.015 49.1972 151.763 54.1105C148.51 59.0238 156.469 48.362 156.469 48.362C156.469 48.362 156.031 50.415 156.106 50.7972C156.213 51.336 156.636 53.473 159.21 55.7946C159.265 56.644 156.457 54.295 157.197 54.1667C158.422 53.9542 157.946 54.7485 160.36 55.1998C162.774 55.6511 156.682 55.8374 163.704 55.0153C164.521 54.8736 165.361 54.6707 166.285 53.7314C167.692 52.3012 167.744 51.9424 167.744 51.9424C168.311 50.1809 168.298 48.9239 167.435 47.6467L168.697 48.2187L167.804 47.9782" stroke="#42796F" stroke-linecap="round" stroke-linejoin="round"/>
<path d="M219.232 40.4624C226.231 69.1312 203.952 81.8252 201.674 83.0649C198.258 84.9243 195.59 86.3209 191.096 87.2064C190.076 87.4573 189.012 87.6478 187.934 87.7882L185.769 88.1768L181.51 88.2253L178.478 88.0324L177.498 87.8759C175.963 87.7204 174.745 87.5138 174.046 87.3244C170.35 86.3241 165.823 84.9769 161.283 81.9326C153.211 76.5206 145.502 63.9051 145.485 63.3142C145.483 63.2499 145.583 63.3084 145.774 63.4543L149.692 65.3524L155.133 67.2181L156.937 67.7888L157.524 68.0785L160.559 69.0037C160.559 69.0037 161.64 69.6173 163.476 70.0391C164.644 70.2449 165.886 70.391 167.139 70.4271C167.931 70.4169 168.778 70.3463 169.669 70.1917L172.636 69.6772C173.138 69.4986 173.624 69.2843 174.088 69.0301C181.863 63.4761 182.508 57.1897 186.344 49.7123C187.472 47.5131 187.544 47.4988 189.215 43.6113C190.66 41.5505 192.04 39.829 192.915 39.263C192.969 39.2279 193.021 39.1972 193.072 39.1711L194.797 38.162L197.248 37.6789L200.602 37.4131L206.284 39.8515L209.701 37.9921L215.271 38.0803L219.016 39.5167L221.784 40.9905L222.798 43.9777L219.901 41.5168L219.232 40.4624Z" fill="#1B683F"/>
<path d="M219.232 40.4624C226.231 69.1312 203.952 81.8252 201.674 83.0649C198.258 84.9243 195.59 86.3209 191.096 87.2064M219.232 40.4624C217.895 38.3538 209.406 53.4696 206.398 55.2485M219.232 40.4624L219.901 41.5168L222.798 43.9777L221.784 40.9905L219.016 39.5167M219.232 40.4624L219.016 39.5167M145.485 63.3142C145.502 63.9051 153.211 76.5206 161.283 81.9326M145.485 63.3142L161.283 81.9326M145.485 63.3142C145.472 62.8653 150.407 68.4051 157.079 67.9428M145.485 63.3142L149.692 65.3524L156.161 67.5703L158.3 70.7828L155.303 68.0722L155.133 67.2181L156.937 67.7888L158.648 68.6329L157.079 67.9428M161.283 81.9326C165.823 84.9769 170.35 86.3241 174.046 87.3244M174.046 87.3244C176.402 87.9621 184.63 88.7965 191.096 87.2064M174.046 87.3244L178.478 88.0324L181.51 88.2253L185.769 88.1768L190.279 87.3675L191.096 87.2064M157.079 67.9428C153.873 66.9933 166.691 73.0804 174.088 69.0301M157.079 67.9428L160.559 69.0037C160.559 69.0037 164.295 71.1236 169.669 70.1917C172.805 69.6479 173.347 69.5541 173.347 69.5541L174.088 69.0301M174.088 69.0301C181.863 63.4761 182.508 57.1897 186.344 49.7123C187.472 47.5131 187.544 47.4988 189.215 43.6113C191.467 40.3997 193.56 38.0119 193.831 39.5384M190.876 58.3079L199.396 58.2258L206.398 55.2485M190.876 58.3079C189.449 58.5745 191.112 52.0869 192.466 46.617M190.876 58.3079C193.337 55.1391 195.827 52.5878 197.04 53.5347M206.398 55.2485C199.554 57.3811 198.907 54.9918 197.04 53.5347M193.831 39.5384C193.984 40.3957 193.281 43.3217 192.466 46.617M193.831 39.5384L192.466 46.617M200.602 37.4131L197.248 37.6789M200.602 37.4131L198.09 39.4898L197.248 37.6789M200.602 37.4131L206.284 39.8515M192.915 39.2631L194.797 38.162L197.248 37.6789M201.011 37.3326C201.419 37.2521 203.4 38.4432 203.4 38.4432L206.284 39.8515M206.284 39.8515L209.701 37.9921L215.271 38.0803L219.016 39.5167M219.016 39.5167L217.19 40.865C217.19 40.865 214.053 46.2237 214.453 48.1493C214.853 50.0749 208.427 53.2362 208.427 53.2362C208.427 53.2362 208.799 50.8216 208.712 50.4434C208.59 49.9102 208.105 47.7954 205.456 45.55C205.377 44.7067 208.263 46.9736 207.524 47.1194C206.298 47.3609 206.755 46.5592 204.317 46.1698C201.88 45.7804 207.994 45.4452 200.963 46.4356C200.146 46.5966 199.308 46.8191 198.405 47.776C197.032 49.2329 196.99 49.5909 196.99 49.5909C196.469 51.3567 196.517 52.6064 197.42 53.8553L196.136 53.3175L197.04 53.5347" stroke="#1B683F" stroke-linecap="round" stroke-linejoin="round"/>
<path d="M218.318 38.4285C218.318 38.4285 217.635 38.1149 216.109 37.5542C215.235 37.2914 214.153 37.0541 212.96 36.9851C209.54 36.7874 208.723 36.9291 205.938 37.8073C205.143 38.0582 203.383 36.0971 200.914 35.9108C197.482 35.6518 195.14 35.5971 191.743 38.6869C189.595 40.6412 189.005 41.9296 186.953 45.267C183.631 50.6692 183.695 53.5258 179.928 60.1098C177.643 64.103 176.34 66.622 171.817 68.2377C169.538 69.0519 167.936 68.9533 165.537 68.5359C159.847 67.5456 148.98 63.8942 148.98 63.8942C148.98 63.8942 154.576 64.8737 158.343 64.2205C159.569 64.0079 161.575 65.5472 164.114 65.6195C166.876 65.6982 169.574 65.9704 171.953 64.6557C175.215 62.8533 175.739 60.7133 177.763 57.7174C181.493 52.1978 181.54 47.0539 185.585 41.7319C188.406 38.0198 190.794 32.8029 195.662 32.8674C202.018 32.9516 201.201 33.0933 204.772 34.0555C210.388 35.5684 214.031 36.7906 216.109 37.5542C217.462 37.9608 218.318 38.4285 218.318 38.4285Z" fill="#113722"/>
<path d="M218.318 38.4285C218.318 38.4285 214.511 36.6792 204.772 34.0555C201.201 33.0933 202.018 32.9516 195.662 32.8674C190.794 32.8029 188.406 38.0198 185.585 41.7319C181.54 47.0539 181.493 52.1978 177.763 57.7174C175.739 60.7133 175.215 62.8533 171.953 64.6557C169.574 65.9704 166.876 65.6982 164.114 65.6195C161.575 65.5472 159.569 64.0079 158.343 64.2205C154.576 64.8737 148.98 63.8942 148.98 63.8942C148.98 63.8942 159.847 67.5456 165.537 68.5359C167.936 68.9533 169.538 69.0519 171.817 68.2377C176.34 66.622 177.643 64.103 179.928 60.1098C183.695 53.5258 183.631 50.6692 186.953 45.267C189.005 41.9296 189.595 40.6412 191.743 38.6869C195.14 35.5971 197.482 35.6518 200.914 35.9108C203.383 36.0971 205.143 38.0582 205.938 37.8073C208.723 36.9291 209.54 36.7874 212.96 36.9851C215.998 37.1608 218.318 38.4285 218.318 38.4285Z" stroke="#255545" stroke-width="0.5"/>
<path d="M158.838 40.5452C160.903 39.4376 162.534 39.0467 164.764 39.744C166.024 40.138 166.71 40.5742 167.664 41.498C168.622 42.4261 168.542 42.1401 168.812 43.4565C169.021 44.4772 169.174 45.966 169.039 46.9999C168.936 47.7905 169.274 48.3092 168.972 49.0458C168.491 50.22 168.399 51.6094 167.318 52.2518C166.272 52.873 165.538 52.7366 164.34 52.9173C162.95 53.1271 160.481 53.129 159.114 52.7961C158.16 52.5636 157.759 52.456 156.933 51.9189C156.062 51.3527 156.446 50.3461 155.9 49.4548C155.502 48.8055 156.145 48.3557 155.945 47.6183C155.762 46.9409 155.993 46.5547 156.003 45.8521C156.021 44.5898 155.379 43.8862 156.101 42.857C156.907 41.7067 157.609 41.2048 158.838 40.5452Z" fill="#C9C9C9"/>
<path d="M158.809 40.1835C160.874 39.076 162.408 38.9121 164.638 39.6094C166.18 40.0914 166.819 40.3081 167.772 41.2319C168.73 42.1599 168.853 42.5845 168.81 43.9287L168.724 46.5894L168.651 48.8701C168.61 50.1406 168.865 51.8824 167.784 52.5248C166.738 53.1461 166.644 52.9912 164.959 52.9372L160.653 52.7992C159.672 52.7677 157.648 53.0032 156.546 52.287C155.675 51.7208 155.862 50.2718 155.896 49.2222L155.963 47.1316C155.986 46.4292 156.008 46.1237 156.018 45.4211C156.037 44.1588 155.774 43.2313 156.495 42.2021C157.301 41.0518 157.58 40.8431 158.809 40.1835Z" stroke="#222222" stroke-width="2"/>
<path d="M205.1 54.0417C203.036 55.1493 201.405 55.5402 199.175 54.8429C197.915 54.4489 197.228 54.0127 196.275 53.0889C195.317 52.1608 195.397 52.4468 195.127 51.1304C194.918 50.1098 194.765 48.6209 194.899 47.5871C195.002 46.7965 194.665 46.2777 194.966 45.5411C195.447 44.3669 195.539 42.9775 196.621 42.3351C197.666 41.7139 198.4 41.8503 199.598 41.6696C200.988 41.4599 203.458 41.4579 204.824 41.7908C205.778 42.0233 206.179 42.131 207.006 42.6681C207.876 43.2342 207.493 44.2408 208.039 45.1322C208.437 45.7815 207.794 46.2312 207.993 46.9686C208.177 47.646 207.946 48.0322 207.936 48.7349C207.917 49.9971 208.559 50.7007 207.838 51.7299C207.032 52.8802 206.33 53.3822 205.1 54.0417Z" fill="#C9C9C9"/>
<path d="M205.128 54.0494C203.063 55.157 201.529 55.3208 199.299 54.6235C197.758 54.1415 197.119 53.9248 196.165 53.001C195.207 52.073 195.084 51.6485 195.128 50.3043L195.213 47.6435L195.286 45.3628C195.327 44.0924 195.072 42.3505 196.154 41.7081C197.199 41.0869 197.293 41.2417 198.978 41.2957L203.285 41.4337C204.266 41.4652 206.29 41.2297 207.391 41.9459C208.262 42.5121 208.075 43.9611 208.042 45.0108L207.974 47.1014C207.952 47.8037 207.93 48.1092 207.919 48.8118C207.901 50.0741 208.163 51.0016 207.442 52.0308C206.636 53.1811 206.358 53.3898 205.128 54.0494Z" stroke="#222222" stroke-width="2"/>
<path d="M157.051 21.3701C158.742 20.1905 163.418 17.0605 165.367 16.0856C167.509 15.0145 167.834 14.6231 172.185 13.5341C176.536 12.4451 176.379 12.3596 179.685 12.4117C179.685 12.4117 184.185 12.2904 186.43 12.518C188.675 12.7456 192.372 13.7453 195.091 14.6141C197.03 15.2338 198.961 16.2952 201.188 17.6559C203.909 19.3189 204.599 19.9189 207.111 22.1592" stroke="#222222" stroke-width="5" stroke-linecap="round"/>
<path d="M182.965 11.0354C182.986 9.7102 183.008 8.41183 183.018 7.79602C183.04 6.39719 183.039 6.47081 183.056 5.4401C183.077 4.15428 185.98 5.20169 185.999 4.0187C186.018 2.8357 183.44 2.79507 183.44 2.79507C182.391 2.77853 180.136 3.18483 180.416 4.36749C180.416 4.36749 180.409 4.80923 182.21 4.69033" stroke="#222222" stroke-width="5" stroke-linecap="round"/>
</g>
</g>
<path d="M243.007 37.6592V70.4014C243.007 71.8337 243.752 72.5785 245.241 72.6357H275.319C276.408 72.5785 277.353 72.1201 278.155 71.2607C278.957 70.3441 279.53 69.3128 279.874 68.167C280.275 66.9639 280.476 65.7607 280.476 64.5576C280.476 63.4118 280.275 62.266 279.874 61.1201C279.53 59.917 278.957 58.8857 278.155 58.0264C277.353 57.1097 276.408 56.6514 275.319 56.6514H253.319C251.715 56.6514 250.34 56.1071 249.194 55.0186C248.106 53.8727 247.562 52.4977 247.562 50.8936C247.562 49.2894 248.134 47.943 249.28 46.8545C250.369 45.7087 251.715 45.1357 253.319 45.1357H274.976C278.986 45.193 282.28 46.3389 284.858 48.5732C287.494 50.7503 289.356 53.2425 290.444 56.0498C291.59 58.7998 292.163 61.6644 292.163 64.6436C292.163 67.5081 291.59 70.3441 290.444 73.1514C289.299 75.9014 287.437 78.3936 284.858 80.6279C282.28 82.805 278.47 83.9795 273.429 84.1514H237.335C235.731 84.1514 234.356 83.6357 233.21 82.6045C232.064 81.516 231.463 80.1696 231.405 78.5654V37.6592C231.405 36.055 231.978 34.7373 233.124 33.7061C234.327 32.6175 235.731 32.0732 237.335 32.0732C240.772 32.3597 242.663 34.2217 243.007 37.6592Z" fill="black"/>
<path d="M243.007 37.6592H245.007V37.5594L244.997 37.4602L243.007 37.6592ZM245.241 72.6357L245.164 74.6343L245.203 74.6357H245.241V72.6357ZM275.319 72.6357V74.6357H275.372L275.424 74.633L275.319 72.6357ZM278.155 71.2607L279.617 72.6254L279.639 72.6019L279.66 72.5778L278.155 71.2607ZM279.874 68.167L277.977 67.5345L277.967 67.5633L277.958 67.5923L279.874 68.167ZM279.874 61.1201L277.951 61.6696L277.967 61.7257L277.986 61.7808L279.874 61.1201ZM278.155 58.0264L276.65 59.3434L276.671 59.3675L276.693 59.391L278.155 58.0264ZM249.194 55.0186L247.744 56.3961L247.78 56.4332L247.817 56.4686L249.194 55.0186ZM249.28 46.8545L250.658 48.3045L250.695 48.2692L250.73 48.232L249.28 46.8545ZM274.976 45.1357L275.004 43.1359L274.99 43.1357H274.976V45.1357ZM284.858 48.5732L283.549 50.0846L283.566 50.1001L283.585 50.1152L284.858 48.5732ZM290.444 56.0498L288.58 56.7729L288.589 56.7961L288.598 56.819L290.444 56.0498ZM290.444 73.1514L292.29 73.9206L292.293 73.9139L292.296 73.9072L290.444 73.1514ZM284.858 80.6279L286.149 82.156L286.159 82.1477L286.168 82.1393L284.858 80.6279ZM273.429 84.1514V86.1514H273.463L273.497 86.1502L273.429 84.1514ZM233.21 82.6045L231.832 84.0545L231.852 84.0731L231.872 84.0911L233.21 82.6045ZM231.405 78.5654H229.405V78.6011L229.407 78.6368L231.405 78.5654ZM233.124 33.7061L234.462 35.1926L234.466 35.1891L233.124 33.7061ZM237.335 32.0732L237.501 30.0802L237.418 30.0732H237.335V32.0732ZM241.007 37.6592V70.4014H245.007V37.6592H241.007ZM241.007 70.4014C241.007 71.4522 241.285 72.5821 242.151 73.4484C243.004 74.3015 244.125 74.5943 245.164 74.6343L245.318 70.6372C245.1 70.6288 244.984 70.5976 244.939 70.5815C244.902 70.5682 244.932 70.5725 244.98 70.62C245.029 70.6689 245.042 70.7098 245.039 70.6993C245.032 70.6794 245.007 70.5909 245.007 70.4014H241.007ZM245.241 74.6357H275.319V70.6357H245.241V74.6357ZM275.424 74.633C277.073 74.5462 278.492 73.8307 279.617 72.6254L276.693 69.8961C276.214 70.4095 275.743 70.6107 275.214 70.6385L275.424 74.633ZM279.66 72.5778C280.647 71.4499 281.362 70.1666 281.79 68.7417L277.958 67.5923C277.698 68.4591 277.267 69.2383 276.65 69.9437L279.66 72.5778ZM281.771 68.7994C282.237 67.4035 282.476 65.9871 282.476 64.5576H278.476C278.476 65.5344 278.313 66.5242 277.977 67.5345L281.771 68.7994ZM282.476 64.5576C282.476 63.1737 282.233 61.8049 281.762 60.4594L277.986 61.7808C278.317 62.727 278.476 63.6498 278.476 64.5576H282.476ZM281.797 60.5707C281.372 59.0833 280.649 57.7674 279.617 56.6617L276.693 59.391C277.265 60.0041 277.688 60.7507 277.951 61.6696L281.797 60.5707ZM279.66 56.7094C278.529 55.4164 277.057 54.6514 275.319 54.6514V58.6514C275.759 58.6514 276.177 58.803 276.65 59.3434L279.66 56.7094ZM275.319 54.6514H253.319V58.6514H275.319V54.6514ZM253.319 54.6514C252.219 54.6514 251.34 54.2981 250.572 53.5686L247.817 56.4686C249.341 57.9161 251.211 58.6514 253.319 58.6514V54.6514ZM250.644 53.6411C249.915 52.8731 249.562 51.9936 249.562 50.8936H245.562C245.562 53.0018 246.297 54.8724 247.744 56.3961L250.644 53.6411ZM249.562 50.8936C249.562 49.8283 249.916 49.0091 250.658 48.3045L247.903 45.4045C246.353 46.877 245.562 48.7505 245.562 50.8936H249.562ZM250.73 48.232C251.435 47.4903 252.254 47.1357 253.319 47.1357V43.1357C251.176 43.1357 249.303 43.927 247.83 45.477L250.73 48.232ZM253.319 47.1357H274.976V43.1357H253.319V47.1357ZM274.947 47.1355C278.573 47.1873 281.387 48.2115 283.549 50.0846L286.168 47.0619C283.173 44.4662 279.399 43.1987 275.004 43.1359L274.947 47.1355ZM283.585 50.1152C285.992 52.1043 287.631 54.3257 288.58 56.7729L292.309 55.3267C291.081 52.1593 288.995 49.3964 286.132 47.0313L283.585 50.1152ZM288.598 56.819C289.642 59.3253 290.163 61.9284 290.163 64.6436H294.163C294.163 61.4003 293.538 58.2743 292.29 55.2806L288.598 56.819ZM290.163 64.6436C290.163 67.234 289.646 69.814 288.593 72.3956L292.296 73.9072C293.534 70.8742 294.163 67.7822 294.163 64.6436H290.163ZM288.598 72.3821C287.588 74.8077 285.927 77.0552 283.549 79.1166L286.168 82.1393C288.946 79.7319 291.009 76.995 292.29 73.9206L288.598 72.3821ZM283.568 79.0999C281.466 80.8748 278.166 81.9887 273.361 82.1525L273.497 86.1502C278.775 85.9703 283.094 84.7352 286.149 82.156L283.568 79.0999ZM273.429 82.1514H237.335V86.1514H273.429V82.1514ZM237.335 82.1514C236.203 82.1514 235.31 81.8042 234.548 81.1179L231.872 84.0911C233.401 85.4673 235.259 86.1514 237.335 86.1514V82.1514ZM234.587 81.1545C233.828 80.4327 233.443 79.5842 233.404 78.494L229.407 78.6368C229.482 80.7549 230.301 82.5992 231.832 84.0545L234.587 81.1545ZM233.405 78.5654V37.6592H229.405V78.5654H233.405ZM233.405 37.6592C233.405 36.5959 233.757 35.8275 234.462 35.1926L231.786 32.2195C230.2 33.6471 229.405 35.5142 229.405 37.6592H233.405ZM234.466 35.1891C235.306 34.4291 236.233 34.0732 237.335 34.0732V30.0732C235.229 30.0732 233.348 30.8059 231.782 32.223L234.466 35.1891ZM237.169 34.0663C238.563 34.1825 239.405 34.5945 239.928 35.1095C240.451 35.6249 240.877 36.4618 241.017 37.8582L244.997 37.4602C244.793 35.4191 244.102 33.6062 242.734 32.2596C241.367 30.9127 239.544 30.2504 237.501 30.0802L237.169 34.0663Z" fill="white"/>
<path d="M314.238 84.1514C309.197 83.9795 305.387 82.805 302.809 80.6279C300.23 78.3936 298.368 75.9014 297.223 73.1514C296.077 70.3441 295.504 67.5081 295.504 64.6436C295.504 61.6644 296.048 58.7998 297.137 56.0498C298.283 53.2425 300.145 50.7503 302.723 48.5732C305.358 46.3389 308.681 45.193 312.691 45.1357H340.535C344.546 45.193 347.84 46.3389 350.418 48.5732C353.053 50.7503 354.915 53.2425 356.004 56.0498C357.15 58.7998 357.723 61.6644 357.723 64.6436C357.723 67.5081 357.15 70.3441 356.004 73.1514C354.858 75.9014 352.996 78.3936 350.418 80.6279C347.84 82.805 344.03 83.9795 338.988 84.1514H314.238ZM312.348 56.6514C311.259 56.6514 310.314 57.1097 309.512 58.0264C308.71 58.8857 308.108 59.917 307.707 61.1201C307.363 62.266 307.191 63.4118 307.191 64.5576C307.191 65.7607 307.363 66.9639 307.707 68.167C308.108 69.3128 308.71 70.3441 309.512 71.2607C310.314 72.1201 311.259 72.5785 312.348 72.6357H340.879C341.967 72.5785 342.913 72.1201 343.715 71.2607C344.517 70.3441 345.09 69.3128 345.434 68.167C345.835 66.9639 346.035 65.7607 346.035 64.5576C346.035 63.4118 345.835 62.266 345.434 61.1201C345.09 59.917 344.517 58.8857 343.715 58.0264C342.913 57.1097 341.967 56.6514 340.879 56.6514H312.348Z" fill="black"/>
<path d="M314.238 84.1514L314.17 86.1502L314.204 86.1514H314.238V84.1514ZM302.809 80.6279L301.499 82.1393L301.508 82.1477L301.518 82.156L302.809 80.6279ZM297.223 73.1514L295.371 73.9072L295.374 73.9139L295.377 73.9206L297.223 73.1514ZM297.137 56.0498L295.285 55.294L295.281 55.3038L295.277 55.3137L297.137 56.0498ZM302.723 48.5732L304.013 50.1013L304.016 50.0988L302.723 48.5732ZM312.691 45.1357V43.1357H312.677L312.663 43.1359L312.691 45.1357ZM340.535 45.1357L340.564 43.1359L340.549 43.1357H340.535V45.1357ZM350.418 48.5732L349.108 50.0846L349.126 50.1001L349.144 50.1152L350.418 48.5732ZM356.004 56.0498L354.139 56.7729L354.148 56.7961L354.158 56.819L356.004 56.0498ZM356.004 73.1514L357.85 73.9206L357.853 73.9139L357.856 73.9072L356.004 73.1514ZM350.418 80.6279L351.708 82.156L351.718 82.1477L351.728 82.1393L350.418 80.6279ZM338.988 84.1514V86.1514H339.022L339.056 86.1502L338.988 84.1514ZM309.512 58.0264L310.974 59.391L310.996 59.3675L311.017 59.3434L309.512 58.0264ZM307.707 61.1201L305.81 60.4877L305.8 60.5164L305.791 60.5454L307.707 61.1201ZM307.707 68.167L305.784 68.7164L305.8 68.7726L305.819 68.8277L307.707 68.167ZM309.512 71.2607L308.007 72.5778L308.028 72.6019L308.05 72.6254L309.512 71.2607ZM312.348 72.6357L312.243 74.633L312.295 74.6357H312.348V72.6357ZM340.879 72.6357V74.6357H340.932L340.984 74.633L340.879 72.6357ZM343.715 71.2607L345.177 72.6254L345.199 72.6019L345.22 72.5778L343.715 71.2607ZM345.434 68.167L343.536 67.5345L343.527 67.5633L343.518 67.5923L345.434 68.167ZM345.434 61.1201L343.511 61.6696L343.527 61.7257L343.546 61.7808L345.434 61.1201ZM343.715 58.0264L342.21 59.3434L342.231 59.3675L342.253 59.391L343.715 58.0264ZM314.306 82.1525C309.501 81.9887 306.201 80.8748 304.099 79.0999L301.518 82.156C304.573 84.7352 308.892 85.9703 314.17 86.1502L314.306 82.1525ZM304.118 79.1166C301.74 77.0552 300.079 74.8077 299.069 72.3821L295.377 73.9206C296.658 76.995 298.721 79.7319 301.499 82.1393L304.118 79.1166ZM299.074 72.3956C298.021 69.814 297.504 67.234 297.504 64.6436H293.504C293.504 67.7822 294.133 70.8742 295.371 73.9072L299.074 72.3956ZM297.504 64.6436C297.504 61.9145 298.001 59.2998 298.996 56.7859L295.277 55.3137C294.095 58.2998 293.504 61.4143 293.504 64.6436H297.504ZM298.988 56.8056C299.999 54.3298 301.653 52.0939 304.013 50.1013L301.432 47.0452C298.636 49.4067 296.566 52.1553 295.285 55.294L298.988 56.8056ZM304.016 50.0988C306.242 48.2115 309.095 47.1873 312.72 47.1355L312.663 43.1359C308.267 43.1987 304.474 44.4663 301.429 47.0477L304.016 50.0988ZM312.691 47.1357H340.535V43.1357H312.691V47.1357ZM340.507 47.1355C344.133 47.1873 346.947 48.2115 349.108 50.0846L351.728 47.0619C348.733 44.4662 344.958 43.1987 340.564 43.1359L340.507 47.1355ZM349.144 50.1152C351.552 52.1043 353.19 54.3257 354.139 56.7729L357.869 55.3267C356.64 52.1593 354.555 49.3964 351.692 47.0313L349.144 50.1152ZM354.158 56.819C355.202 59.3253 355.723 61.9284 355.723 64.6436H359.723C359.723 61.4003 359.097 58.2743 357.85 55.2806L354.158 56.819ZM355.723 64.6436C355.723 67.234 355.206 69.814 354.152 72.3956L357.856 73.9072C359.094 70.8742 359.723 67.7822 359.723 64.6436H355.723ZM354.158 72.3821C353.147 74.8077 351.487 77.0552 349.108 79.1166L351.728 82.1393C354.506 79.7319 356.569 76.995 357.85 73.9206L354.158 72.3821ZM349.128 79.0999C347.026 80.8748 343.726 81.9887 338.92 82.1525L339.056 86.1502C344.334 85.9703 348.654 84.7352 351.708 82.156L349.128 79.0999ZM338.988 82.1514H314.238V86.1514H338.988V82.1514ZM312.348 54.6514C310.61 54.6514 309.138 55.4164 308.007 56.7094L311.017 59.3434C311.49 58.803 311.908 58.6514 312.348 58.6514V54.6514ZM308.05 56.6617C307.036 57.7473 306.294 59.0339 305.81 60.4877L309.604 61.7526C309.922 60.8001 310.383 60.0242 310.974 59.391L308.05 56.6617ZM305.791 60.5454C305.394 61.8694 305.191 63.2087 305.191 64.5576H309.191C309.191 63.6149 309.332 62.6625 309.623 61.6948L305.791 60.5454ZM305.191 64.5576C305.191 65.9539 305.391 67.3418 305.784 68.7164L309.63 67.6175C309.335 66.5859 309.191 65.5676 309.191 64.5576H305.191ZM305.819 68.8277C306.305 70.2156 307.037 71.4694 308.007 72.5778L311.017 69.9437C310.382 69.2187 309.911 68.4101 309.595 67.5063L305.819 68.8277ZM308.05 72.6254C309.175 73.8307 310.594 74.5462 312.243 74.633L312.453 70.6385C311.924 70.6107 311.453 70.4095 310.974 69.8961L308.05 72.6254ZM312.348 74.6357H340.879V70.6357H312.348V74.6357ZM340.984 74.633C342.633 74.5462 344.052 73.8307 345.177 72.6254L342.253 69.8961C341.774 70.4095 341.302 70.6107 340.774 70.6385L340.984 74.633ZM345.22 72.5778C346.207 71.4499 346.922 70.1666 347.349 68.7417L343.518 67.5923C343.258 68.4591 342.827 69.2383 342.21 69.9437L345.22 72.5778ZM347.331 68.7994C347.796 67.4035 348.035 65.9871 348.035 64.5576H344.035C344.035 65.5344 343.873 66.5242 343.536 67.5345L347.331 68.7994ZM348.035 64.5576C348.035 63.1737 347.792 61.8049 347.321 60.4594L343.546 61.7808C343.877 62.727 344.035 63.6498 344.035 64.5576H348.035ZM347.357 60.5707C346.932 59.0833 346.209 57.7674 345.177 56.6617L342.253 59.391C342.825 60.0041 343.248 60.7507 343.511 61.6696L347.357 60.5707ZM345.22 56.7094C344.089 55.4164 342.617 54.6514 340.879 54.6514V58.6514C341.318 58.6514 341.737 58.803 342.21 59.3434L345.22 56.7094ZM340.879 54.6514H312.348V58.6514H340.879V54.6514Z" fill="white"/>
<path d="M379.328 32.0732C380.932 32.0732 382.307 32.6175 383.453 33.7061C384.599 34.7373 385.201 36.055 385.258 37.6592V45.1357H414.477C416.081 45.1357 417.456 45.68 418.602 46.7686C419.69 47.9144 420.234 49.2894 420.234 50.8936C420.234 52.4977 419.661 53.8727 418.516 55.0186C417.427 56.1071 416.081 56.6514 414.477 56.6514H385.258V58.3701C385.201 60.7191 385.344 62.8962 385.688 64.9014C386.089 66.8493 387.005 68.5967 388.438 70.1436C389.87 71.6904 391.674 72.5212 393.852 72.6357H414.82C416.424 72.693 417.742 73.2946 418.773 74.4404C419.862 75.5863 420.406 76.9613 420.406 78.5654C420.349 80.1123 419.776 81.43 418.688 82.5186C417.656 83.5498 416.367 84.0941 414.82 84.1514H390.93C386.919 83.9222 383.596 82.5758 380.961 80.1123C378.383 77.5915 376.521 74.5264 375.375 70.917C374.286 67.3076 373.714 63.4691 373.656 59.4014V56.6514H363.773C362.169 56.6514 360.823 56.0785 359.734 54.9326C358.589 53.8441 358.016 52.4977 358.016 50.8936C358.016 49.2894 358.56 47.943 359.648 46.8545C360.794 45.7087 362.169 45.1357 363.773 45.1357H373.656V37.6592C373.714 36.1123 374.286 34.8232 375.375 33.792C376.464 32.7035 377.781 32.1305 379.328 32.0732Z" fill="black"/>
<path d="M379.328 32.0732V30.0732H379.291L379.254 30.0746L379.328 32.0732ZM383.453 33.7061L382.076 35.1561L382.095 35.1746L382.115 35.1926L383.453 33.7061ZM385.258 37.6592H387.258V37.6235L387.257 37.5878L385.258 37.6592ZM385.258 45.1357H383.258V47.1357H385.258V45.1357ZM418.602 46.7686L420.052 45.3911L420.016 45.3539L419.979 45.3186L418.602 46.7686ZM418.516 55.0186L417.101 53.6043L418.516 55.0186ZM385.258 56.6514V54.6514H383.258V56.6514H385.258ZM385.258 58.3701L387.257 58.4189L387.258 58.3945V58.3701H385.258ZM385.688 64.9014L383.716 65.2393L383.722 65.2721L383.729 65.3047L385.688 64.9014ZM388.438 70.1436L386.97 71.5024L388.438 70.1436ZM393.852 72.6357L393.746 74.633L393.799 74.6357H393.852V72.6357ZM414.82 72.6357L414.892 70.637L414.856 70.6357H414.82V72.6357ZM418.773 74.4404L417.287 75.7784L417.305 75.7984L417.323 75.8179L418.773 74.4404ZM420.406 78.5654L422.405 78.6395L422.406 78.6025V78.5654H420.406ZM418.688 82.5186L420.102 83.9328L418.688 82.5186ZM414.82 84.1514V86.1514H414.857L414.894 86.15L414.82 84.1514ZM390.93 84.1514L390.816 86.1481L390.873 86.1514H390.93V84.1514ZM380.961 80.1123L379.563 81.5423L379.579 81.558L379.595 81.5734L380.961 80.1123ZM375.375 70.917L373.46 71.4945L373.464 71.5083L373.469 71.5222L375.375 70.917ZM373.656 59.4014H371.656V59.4155L371.656 59.4295L373.656 59.4014ZM373.656 56.6514H375.656V54.6514H373.656V56.6514ZM359.734 54.9326L361.184 53.5551L361.149 53.5179L361.112 53.4826L359.734 54.9326ZM359.648 46.8545L358.234 45.4403L359.648 46.8545ZM373.656 45.1357V47.1357H375.656V45.1357H373.656ZM373.656 37.6592L371.658 37.5852L371.656 37.6222V37.6592H373.656ZM375.375 33.792L376.75 35.2439L376.77 35.2253L376.789 35.2062L375.375 33.792ZM379.328 34.0732C380.428 34.0732 381.308 34.4265 382.076 35.1561L384.831 32.2561C383.307 30.8085 381.436 30.0732 379.328 30.0732V34.0732ZM382.115 35.1926C382.84 35.8448 383.22 36.6431 383.259 37.7306L387.257 37.5878C387.181 35.4669 386.358 33.6298 384.791 32.2195L382.115 35.1926ZM383.258 37.6592V45.1357H387.258V37.6592H383.258ZM385.258 47.1357H414.477V43.1357H385.258V47.1357ZM414.477 47.1357C415.577 47.1357 416.456 47.489 417.224 48.2186L419.979 45.3186C418.455 43.871 416.585 43.1357 414.477 43.1357V47.1357ZM417.152 48.1461C417.881 48.914 418.234 49.7935 418.234 50.8936H422.234C422.234 48.7853 421.499 46.9148 420.052 45.3911L417.152 48.1461ZM418.234 50.8936C418.234 51.9613 417.876 52.8293 417.101 53.6043L419.93 56.4328C421.446 54.9161 422.234 53.0342 422.234 50.8936H418.234ZM417.101 53.6043C416.405 54.3006 415.575 54.6514 414.477 54.6514V58.6514C416.586 58.6514 418.449 57.9136 419.93 56.4328L417.101 53.6043ZM414.477 54.6514H385.258V58.6514H414.477V54.6514ZM383.258 56.6514V58.3701H387.258V56.6514H383.258ZM383.258 58.3214C383.198 60.7804 383.348 63.0886 383.716 65.2393L387.659 64.5634C387.34 62.7037 387.203 60.6578 387.257 58.4189L383.258 58.3214ZM383.729 65.3047C384.208 67.6317 385.305 69.7045 386.97 71.5024L389.905 68.7847C388.705 67.4888 387.969 66.0669 387.646 64.4981L383.729 65.3047ZM386.97 71.5024C388.769 73.4455 391.069 74.4921 393.746 74.633L393.957 70.6385C392.28 70.5502 390.97 69.9353 389.905 68.7847L386.97 71.5024ZM393.852 74.6357H414.82V70.6357H393.852V74.6357ZM414.749 74.6345C415.836 74.6733 416.635 75.0538 417.287 75.7784L420.26 73.1025C418.85 71.5354 417.013 70.7128 414.892 70.637L414.749 74.6345ZM417.323 75.8179C418.053 76.5859 418.406 77.4654 418.406 78.5654H422.406C422.406 76.4571 421.671 74.5866 420.223 73.0629L417.323 75.8179ZM418.408 78.4914C418.369 79.5369 418.003 80.375 417.273 81.1043L420.102 83.9328C421.549 82.4851 422.329 80.6877 422.405 78.6395L418.408 78.4914ZM417.273 81.1043C416.622 81.7553 415.823 82.1129 414.746 82.1527L414.894 86.15C416.912 86.0753 418.69 85.3443 420.102 83.9328L417.273 81.1043ZM414.82 82.1514H390.93V86.1514H414.82V82.1514ZM391.044 82.1546C387.444 81.9489 384.581 80.7587 382.327 78.6513L379.595 81.5734C382.612 84.393 386.395 85.8955 390.816 86.1481L391.044 82.1546ZM382.359 78.6823C380.027 76.4022 378.333 73.625 377.281 70.3118L373.469 71.5222C374.709 75.4277 376.738 78.7807 379.563 81.5423L382.359 78.6823ZM377.29 70.3395C376.259 66.9219 375.711 63.2694 375.656 59.3732L371.656 59.4295C371.716 63.6688 372.314 67.6933 373.46 71.4945L377.29 70.3395ZM375.656 59.4014V56.6514H371.656V59.4014H375.656ZM373.656 54.6514H363.773V58.6514H373.656V54.6514ZM363.773 54.6514C362.708 54.6514 361.889 54.2968 361.184 53.5551L358.284 56.3101C359.757 57.8601 361.63 58.6514 363.773 58.6514V54.6514ZM361.112 53.4826C360.37 52.778 360.016 51.9588 360.016 50.8936H356.016C356.016 53.0366 356.807 54.9101 358.357 56.3826L361.112 53.4826ZM360.016 50.8936C360.016 49.7949 360.366 48.9649 361.063 48.2687L358.234 45.4403C356.753 46.9211 356.016 48.7838 356.016 50.8936H360.016ZM361.063 48.2687C361.838 47.4937 362.706 47.1357 363.773 47.1357V43.1357C361.633 43.1357 359.751 43.9237 358.234 45.4403L361.063 48.2687ZM363.773 47.1357H373.656V43.1357H363.773V47.1357ZM375.656 45.1357V37.6592H371.656V45.1357H375.656ZM375.655 37.7332C375.693 36.6906 376.055 35.9023 376.75 35.2439L374 32.3401C372.517 33.7441 371.734 35.534 371.658 37.5852L375.655 37.7332ZM376.789 35.2062C377.519 34.4768 378.357 34.1106 379.402 34.0719L379.254 30.0746C377.206 30.1505 375.408 30.9301 373.961 32.3778L376.789 35.2062Z" fill="white"/>
</g>
<defs>
<filter id="filter0_d_704_17" x="137.367" y="-0.723633" width="89.9307" height="98.1309" filterUnits="userSpaceOnUse" color-interpolation-filters="sRGB">
<feFlood flood-opacity="0" result="BackgroundImageFix"/>
<feColorMatrix in="SourceAlpha" type="matrix" values="0 0 0 0 0 0 0 0 0 0 0 0 0 0 0 0 0 0 127 0" result="hardAlpha"/>
<feOffset dy="3"/>
<feGaussianBlur stdDeviation="2"/>
<feComposite in2="hardAlpha" operator="out"/>
<feColorMatrix type="matrix" values="0 0 0 0 0 0 0 0 0 0 0 0 0 0 0 0 0 0 0.25 0"/>
<feBlend mode="normal" in2="BackgroundImageFix" result="effect1_dropShadow_704_17"/>
<feBlend mode="normal" in="SourceGraphic" in2="effect1_dropShadow_704_17" result="shape"/>
</filter>
<clipPath id="clip0_704_17">
<rect width="101" height="103" fill="white" transform="matrix(0 1 -1 0 234 0)"/>
</clipPath>
</defs>
</svg>