<svg width="104" height="101" viewBox="0 0 104 101" fill="none" xmlns="http://www.w3.org/2000/svg">
<g clip-path="url(#clip0_567_139)">
<g filter="url(#filter0_d_567_139)">
<path d="M36.9196 15.2024C41.6405 13.2771 46.7005 12.2861 51.8104 12.2861C56.9204 12.2861 61.9803 13.2771 66.7012 15.2024C71.4222 17.1276 75.7118 19.9496 79.3251 23.507C82.9384 27.0645 86.89 32.1569 88.8455 36.805C89.1197 37.4567 86.1578 34.8479 86.3946 35.512L71.4627 29.1016L62.4674 29.5295L53.8497 36.2586L49.5697 44.722L45.1757 54.9206L42.214 60.3244L38.4834 62.0514L32.7685 62.394L27.7002 60.1864L23.8764 61.7083L17.8837 61.5587L14.3208 60.0194L13.5915 58.4158L12.8988 50.5967C12.8988 45.5657 13.9052 40.5839 15.8607 35.9359C17.8162 31.2878 20.6824 27.0645 24.2957 23.507C27.909 19.9496 32.1986 17.1276 36.9196 15.2024Z" stroke="#C4CDC8" stroke-width="3" stroke-linecap="round" stroke-linejoin="round"/>
<path d="M24.2957 77.6864C20.6824 74.1289 16.3796 69.0705 15.0622 64.5543L17.356 65.9936L22.8182 69.3119L28.9196 72.7982L39.3411 72.875L49.8851 68.2558L54.7101 59.998L59.4854 48.6517L62.0172 42.3025L67.2649 38.9463L71.4627 40.2329L76.2626 40.8573L78.7766 39.4342L84.1786 39.3965L89.7248 41.6561C91.2552 53.6478 89.7156 60.6095 87.7601 65.2575C85.8046 69.9056 82.9384 74.1289 79.3251 77.6864C75.7118 81.2439 71.4222 84.0658 66.7012 85.9911C61.9803 87.9164 56.9204 88.9073 51.8104 88.9073C46.7005 88.9073 41.6405 87.9164 36.9196 85.9911C32.1986 84.0658 27.909 81.2439 24.2957 77.6864Z" stroke="#C4CDC8" stroke-width="3" stroke-linecap="round" stroke-linejoin="round"/>
<path d="M24.6626 63.1009C24.6626 63.1009 27.8779 62.2646 27.575 60.7355C30.0723 62.6748 30.7787 63.4474 32.9025 64.161C38.2899 63.6223 38.0328 64.4576 42.4763 61.7102C46.0981 58.1588 45.3964 57.2498 48.6792 50.3546C50.731 46.0451 52.9298 39.8885 56.5516 36.3371C60.1734 32.7858 62.2414 29.6616 67.3634 29.6616C72.5694 30.3404 73.9544 31.1327 79.7962 32.8875C83.243 33.9228 84.6242 34.8555 85.9712 35.7403M24.6626 63.1009C24.6626 63.1009 18.6318 64.6586 14.9387 60.9496M24.6626 63.1009L20.0388 63.2271L14.9387 60.9496M11.6999 59.5343C15.1905 61.238 13.0535 58.5293 14.9387 60.9496M11.6999 59.5343L11.8057 57.9348L12.85 58.9395L13.0014 59.704L12.1085 59.4634L12.4414 59.0103M11.6999 59.5343L13.3193 60.242L14.9387 60.9496M85.9712 35.7403C86.907 36.355 86.3917 36.3497 89.2976 38.2182L87.2874 35.7525L85.9712 35.7403ZM85.9712 35.7403L88.332 37.8367M88.332 37.8367L89.0433 38.2158L88.2033 37.1753M88.332 37.8367L86.1374 36.3473L87.3632 36.1348L88.2033 37.1753M88.332 37.8367L87.0303 36.5879L88.2033 37.1753M88.2033 37.1753L88.2768 37.5579L87.999 37.2107" stroke="#255545" stroke-width="0.4" stroke-linecap="round" stroke-linejoin="round"/>
<path d="M14.6397 60.5077C8.47583 31.527 31.2157 19.3797 33.5158 18.1901C36.9659 16.4057 39.6593 15.0681 44.1538 14.2888C45.1756 14.0619 46.2393 13.8966 47.3154 13.782L49.4807 13.4448L53.7181 13.501L56.7297 13.7695L57.7 13.9509C59.2227 14.1448 60.4278 14.3825 61.1185 14.59C64.7668 15.6862 69.2331 17.1513 73.665 20.3223C81.5438 25.9594 89.2996 37.4362 89.2996 38.0304C89.2996 38.2353 87.3264 37.0082 84.5493 35.6352L78.9941 34.4231L78.8376 34.2578L76.724 33.6306L75.3468 33.0786L73.0766 32.2861C73.1494 32.2828 73.2226 32.2803 73.2961 32.2786C71.7814 31.7165 65.5 29.9546 61.155 32.0892L59.6989 33.0241C53.1015 38.122 51.8615 44.6632 47.8372 52.0826C46.6536 54.2647 46.8669 54.544 45.0969 58.4094C43.3246 60.822 41.4923 62.6035 40.6166 62.6402L39.1071 63.481L36.6555 63.9061L33.3111 64.0906L27.7265 61.5005L24.2763 63.2849L18.7375 63.0591L15.0523 61.5235L11.367 59.9878L11.7299 57.5526L14.2272 59.4919L14.6397 60.5077Z" fill="#42796F"/>
<path d="M89.2996 38.0304C89.2996 37.4362 81.5438 25.9594 73.665 20.3223M89.2996 38.0304L73.665 20.3223M89.2996 38.0304C89.2996 38.4818 79.7271 31.9858 73.0766 32.2861M89.2996 38.0304L86.0617 35.9652L78.9941 34.4231L76.3217 31.5998L78.8376 34.2578L76.724 33.6306L75.3468 33.0786L73.0766 32.2861M73.665 20.3223C69.2331 17.1513 64.7668 15.6862 61.1185 14.59M61.1185 14.59C58.7926 13.8912 50.6308 12.8502 44.1538 14.2888M61.1185 14.59L56.7297 13.7695L53.7181 13.501L49.4807 13.4448L44.9709 14.1471L44.1538 14.2888M44.1538 14.2888C39.6593 15.0681 36.9659 16.4057 33.5158 18.1901C31.2157 19.3797 8.47583 31.527 14.6397 60.5077C15.9113 62.6595 25.0003 47.7392 28.0418 46.0256M73.0766 32.2861C76.2397 33.3191 65.1462 28.5211 59.6989 33.0241M73.0766 32.2861L75.2076 32.9891L66.4477 28.6908L59.6989 33.0241M59.6989 33.0241C53.1015 38.122 51.8615 44.6632 47.8372 52.0826C46.6536 54.2647 46.8669 54.544 45.0969 58.4094C42.7669 61.5812 40.3332 63.6623 40.1057 62.1217M43.5683 43.3335L35.0906 43.2063L28.0418 46.0256M43.5683 43.3335C44.9951 43.1008 43.1602 49.579 41.6616 55.0423M43.5683 43.3335C41.0316 46.4571 38.4843 48.9596 37.3037 47.9782M28.0418 46.0256C34.9096 44.0512 35.4873 46.468 37.3037 47.9782M40.1057 62.1217C39.9779 61.2564 40.7587 58.3335 41.6616 55.0423M40.1057 62.1217L41.6616 55.0423M33.3111 64.0906L36.6555 63.9061M33.3111 64.0906L35.8683 62.0657L36.6555 63.9061M33.3111 64.0906L27.7265 61.5005M41.0102 62.4209L39.1071 63.481L36.6555 63.9061M32.9025 64.1615C32.4939 64.2323 30.5567 62.9867 30.5567 62.9867L27.7265 61.5005M27.7265 61.5005L24.2763 63.2849L18.7375 63.0591L15.0523 61.5235M15.0523 61.5235L11.367 59.9878L11.7299 57.5526L14.2272 59.4919L15.0523 61.5235ZM15.0523 61.5235L16.4005 59.2699C16.4005 59.2699 24.5152 49.1972 21.2623 54.1105C18.0094 59.0238 25.9689 48.362 25.9689 48.362C25.9689 48.362 25.5304 50.415 25.6061 50.7973C25.7128 51.336 26.1362 53.4731 28.7092 55.7946C28.7644 56.644 25.9563 54.295 26.6962 54.1667C27.922 53.9542 27.4453 54.7485 29.8593 55.1998C32.2733 55.6512 26.182 55.8374 33.2037 55.0153C34.0209 54.8736 34.8609 54.6707 35.7851 53.7314C37.1922 52.3012 37.2438 51.9424 37.2438 51.9424C37.8108 50.1809 37.7976 48.9239 36.935 47.6467L38.1967 48.2187L37.3037 47.9782" stroke="#42796F" stroke-linecap="round" stroke-linejoin="round"/>
<path d="M88.7318 40.4624C95.7305 69.1312 73.451 81.8252 71.1736 83.0649C67.7574 84.9243 65.0889 86.3209 60.5956 87.2064C59.5755 87.4573 58.5115 87.6478 57.4337 87.7882L55.2679 88.1768L51.0096 88.2253L47.9768 88.0324L46.9971 87.8759C45.462 87.7204 44.2447 87.5138 43.5452 87.3244C39.8497 86.324 35.3222 84.9769 30.7819 81.9326C22.7103 76.5205 15.0008 63.905 14.9842 63.3142C14.9825 63.2499 15.082 63.3083 15.2734 63.4543L19.1917 65.3524L24.6328 67.2181L26.4363 67.7888L27.0234 68.0785L30.058 69.0037C30.058 69.0037 31.1395 69.6173 32.9756 70.0391C34.1438 70.2449 35.3856 70.391 36.6382 70.4271C37.4302 70.4169 38.2768 70.3463 39.1685 70.1917L42.1358 69.6772C42.6374 69.4986 43.123 69.2843 43.5873 69.0301C51.3621 63.4761 52.0072 57.1897 55.8434 49.7123C56.9716 47.513 57.0438 47.4988 58.7142 43.6112C60.1595 41.5505 61.539 39.829 62.4138 39.263C62.4682 39.2279 62.5206 39.1971 62.571 39.1711L64.2961 38.162L66.747 37.6789L70.1015 37.4131L75.7837 39.8515L79.1999 37.9921L84.7703 38.0803L88.5151 39.5167L91.2831 40.9904L92.2975 43.9777L89.4005 41.5167L88.7318 40.4624Z" fill="#1B683F"/>
<path d="M88.7318 40.4624C95.7305 69.1312 73.451 81.8252 71.1736 83.0649C67.7574 84.9243 65.0889 86.3209 60.5956 87.2064M88.7318 40.4624C87.3945 38.3537 78.9054 53.4696 75.8977 55.2485M88.7318 40.4624L89.4005 41.5167L92.2975 43.9777L91.2831 40.9904L88.5151 39.5167M88.7318 40.4624L88.5151 39.5167M14.9842 63.3142C15.0008 63.905 22.7103 76.5205 30.7819 81.9326M14.9842 63.3142L30.7819 81.9326M14.9842 63.3142C14.9717 62.8652 19.906 68.4051 26.5784 67.9428M14.9842 63.3142L19.1917 65.3524L25.6599 67.5703L27.7991 70.7828L24.802 68.0722L24.6328 67.2181L26.4363 67.7888L28.1471 68.6329L26.5784 67.9428M30.7819 81.9326C35.3222 84.9769 39.8497 86.324 43.5452 87.3244M43.5452 87.3244C45.9011 87.9621 54.1292 88.7965 60.5956 87.2064M43.5452 87.3244L47.9768 88.0324L51.0096 88.2253L55.2679 88.1768L59.7787 87.3675L60.5956 87.2064M26.5784 67.9428C23.3722 66.9932 36.1905 73.0804 43.5873 69.0301M26.5784 67.9428L30.058 69.0037C30.058 69.0037 33.7943 71.1235 39.1685 70.1917C42.3045 69.6479 42.8458 69.5541 42.8458 69.5541L43.5873 69.0301M43.5873 69.0301C51.3621 63.4761 52.0072 57.1897 55.8434 49.7123C56.9717 47.513 57.0438 47.4988 58.7142 43.6112C60.9666 40.3997 63.0593 38.0119 63.3308 39.5384M60.3753 58.3079L68.8952 58.2257L75.8977 55.2485M60.3753 58.3079C58.9485 58.5744 60.6114 52.0869 61.9648 46.6169M60.3753 58.3079C62.8367 55.1391 65.3259 52.5877 66.5392 53.5347M75.8977 55.2485C69.0535 57.3811 68.406 54.9918 66.5392 53.5347M63.3308 39.5384C63.4832 40.3957 62.7802 43.3217 61.9648 46.6169M63.3308 39.5384L61.9648 46.6169M70.1015 37.4131L66.747 37.6789M70.1015 37.4131L67.589 39.4898L66.747 37.6789M70.1015 37.4131L75.7837 39.8515M62.4138 39.263L64.2961 38.162L66.747 37.6789M70.51 37.3326C70.9185 37.2521 72.8993 38.4432 72.8993 38.4432L75.7837 39.8515M75.7837 39.8515L79.1999 37.9921L84.7703 38.0803L88.5151 39.5167M88.5151 39.5167L86.6895 40.865C86.6895 40.865 83.5522 46.2237 83.952 48.1493C84.3518 50.0749 77.9265 53.2362 77.9265 53.2362C77.9265 53.2362 78.2984 50.8216 78.2117 50.4434C78.0895 49.9102 77.6047 47.7954 74.9553 45.55C74.8763 44.7067 77.7625 46.9735 77.0228 47.1193C75.7974 47.3609 76.2542 46.5592 73.8166 46.1698C71.379 45.7804 77.4929 45.4452 70.462 46.4356C69.645 46.5966 68.8069 46.8191 67.9047 47.776C66.5309 49.2328 66.489 49.5909 66.489 49.5909C65.9685 51.3567 66.0167 52.6064 66.9188 53.8553L65.6355 53.3175L66.5392 53.5347" stroke="#1B683F" stroke-linecap="round" stroke-linejoin="round"/>
<path d="M87.8174 38.4285C87.8174 38.4285 87.1351 38.1149 85.6091 37.5542C84.7348 37.2914 83.6527 37.0541 82.46 36.9851C79.0398 36.7874 78.2226 36.9291 75.4382 37.8073C74.6427 38.0582 72.8827 36.0971 70.4136 35.9108C66.9823 35.6518 64.6402 35.5971 61.2432 38.6869C59.0946 40.6412 58.5046 41.9296 56.4527 45.267C53.1312 50.6692 53.1946 53.5258 49.4275 60.1098C47.1427 64.103 45.8401 66.622 41.3173 68.2377C39.0382 69.0519 37.4355 68.9533 35.037 68.5359C29.3467 67.5456 18.4803 63.8942 18.4803 63.8942C18.4803 63.8942 24.0757 64.8737 27.8427 64.2205C29.0685 64.0079 31.075 65.5472 33.614 65.6195C36.3763 65.6982 39.0734 65.9705 41.4529 64.6557C44.715 62.8533 45.2386 60.7133 47.263 57.7174C50.9929 52.1978 51.0397 47.0539 55.0844 41.7319C57.9056 38.0199 60.2939 32.8029 65.1618 32.8674C71.5179 32.9516 70.7007 33.0933 74.2723 34.0556C79.8877 35.5684 83.5308 36.7906 85.6091 37.5542C86.9617 37.9608 87.8174 38.4285 87.8174 38.4285Z" fill="#113722" stroke="#255545" stroke-width="0.5"/>
<path d="M28.3375 40.5452C30.4021 39.4376 32.033 39.0467 34.2631 39.744C35.5231 40.138 36.2093 40.5742 37.1629 41.498C38.1208 42.4261 38.041 42.1401 38.3107 43.4565C38.5199 44.4772 38.6732 45.966 38.5383 46.9999C38.4352 47.7905 38.7731 48.3092 38.4715 49.0458C37.9907 50.22 37.8984 51.6094 36.8171 52.2518C35.7716 52.873 35.0376 52.7366 33.8396 52.9173C32.4493 53.1271 29.9798 53.129 28.6136 52.7961C27.6594 52.5636 27.2583 52.456 26.4321 51.9189C25.5613 51.3527 25.9449 50.3461 25.3988 49.4548C25.001 48.8055 25.644 48.3557 25.4443 47.6183C25.261 46.9409 25.4917 46.5547 25.5021 45.8521C25.5206 44.5898 24.8787 43.8862 25.5999 42.857C26.406 41.7067 27.1081 41.2048 28.3375 40.5452Z" fill="#C9C9C9"/>
<path d="M28.3089 40.1835C30.3735 39.0759 31.9075 38.9121 34.1376 39.6094C35.6791 40.0914 36.3181 40.3081 37.2716 41.2319C38.2296 42.1599 38.3526 42.5844 38.3094 43.9286L38.2239 46.5894L38.1506 48.8701C38.1097 50.1406 38.3647 51.8824 37.2834 52.5248C36.2379 53.1461 36.1439 52.9913 34.4588 52.9372L30.1524 52.7992C29.1714 52.7677 27.147 53.0032 26.0455 52.287C25.1747 51.7208 25.3615 50.2718 25.3953 49.2222L25.4625 47.1316C25.4851 46.4292 25.5072 46.1237 25.5175 45.4211C25.536 44.1588 25.2736 43.2313 25.9949 42.2021C26.8009 41.0518 27.0794 40.8431 28.3089 40.1835Z" stroke="#222222" stroke-width="2"/>
<path d="M74.5994 54.0417C72.5349 55.1493 70.904 55.5402 68.6739 54.8429C67.4138 54.4489 66.7277 54.0127 65.7741 53.0889C64.8161 52.1608 64.896 52.4468 64.6262 51.1304C64.4171 50.1098 64.2638 48.6209 64.3986 47.5871C64.5017 46.7965 64.1639 46.2777 64.4655 45.5411C64.9463 44.3669 65.0386 42.9775 66.1198 42.3351C67.1654 41.7139 67.8994 41.8503 69.0974 41.6696C70.4877 41.4599 72.9572 41.4579 74.3234 41.7908C75.2775 42.0233 75.6787 42.1309 76.5048 42.6681C77.3756 43.2342 76.992 44.2408 77.5382 45.1322C77.936 45.7814 77.293 46.2312 77.4926 46.9686C77.676 47.646 77.4452 48.0322 77.4349 48.7349C77.4164 49.9971 78.0583 50.7007 77.337 51.7299C76.531 52.8802 75.8289 53.3822 74.5994 54.0417Z" fill="#C9C9C9"/>
<path d="M74.6273 54.0494C72.5628 55.157 71.0287 55.3208 68.7987 54.6235C67.2572 54.1415 66.6181 53.9248 65.6646 53.001C64.7066 52.073 64.5836 51.6485 64.6268 50.3043L64.7123 47.6435L64.7856 45.3628C64.8265 44.0924 64.5716 42.3505 65.6528 41.7081C66.6984 41.0868 66.7923 41.2417 68.4774 41.2957L72.7838 41.4337C73.7648 41.4652 75.7892 41.2297 76.8907 41.9459C77.7615 42.5121 77.5747 43.9611 77.5409 45.0108L77.4737 47.1014C77.4511 47.8037 77.4291 48.1092 77.4187 48.8118C77.4002 50.0741 77.6626 51.0016 76.9414 52.0308C76.1353 53.1811 75.8568 53.3898 74.6273 54.0494Z" stroke="#222222" stroke-width="2"/>
<path d="M26.5501 21.3701C28.2418 20.1905 32.917 17.0605 34.8666 16.0856C37.0087 15.0145 37.333 14.6231 41.6842 13.5341C46.0354 12.4451 45.8781 12.3596 49.1843 12.4117C49.1843 12.4117 53.6839 12.2904 55.9289 12.518C58.174 12.7456 61.8718 13.7453 64.59 14.6141C66.5289 15.2338 68.4605 16.2952 70.687 17.6559C73.4084 19.3189 74.0982 19.9189 76.6103 22.1592" stroke="#222222" stroke-width="5" stroke-linecap="round"/>
<path d="M52.4639 11.0354C52.4855 9.71021 52.5067 8.41183 52.5168 7.79602C52.5396 6.39719 52.5384 6.47082 52.5552 5.4401C52.5762 4.15428 55.4788 5.20169 55.4982 4.0187C55.5175 2.8357 52.9395 2.79506 52.9395 2.79506C51.8903 2.77853 49.6349 3.18483 49.9154 4.36749C49.9154 4.36749 49.9082 4.80923 51.7091 4.69033" stroke="#222222" stroke-width="5" stroke-linecap="round"/>
</g>
</g>
<defs>
<filter id="filter0_d_567_139" x="6.867" y="-0.723633" width="89.9306" height="98.1309" filterUnits="userSpaceOnUse" color-interpolation-filters="sRGB">
<feFlood flood-opacity="0" result="BackgroundImageFix"/>
<feColorMatrix in="SourceAlpha" type="matrix" values="0 0 0 0 0 0 0 0 0 0 0 0 0 0 0 0 0 0 127 0" result="hardAlpha"/>
<feOffset dy="3"/>
<feGaussianBlur stdDeviation="2"/>
<feComposite in2="hardAlpha" operator="out"/>
<feColorMatrix type="matrix" values="0 0 0 0 0 0 0 0 0 0 0 0 0 0 0 0 0 0 0.25 0"/>
<feBlend mode="normal" in2="BackgroundImageFix" result="effect1_dropShadow_567_139"/>
<feBlend mode="normal" in="SourceGraphic" in2="effect1_dropShadow_567_139" result="shape"/>
</filter>
<clipPath id="clip0_567_139">
<rect width="101" height="103" fill="white" transform="matrix(0 1 -1 0 103.5 0)"/>
</clipPath>
</defs>
</svg>
