<svg xmlns="http://www.w3.org/2000/svg" xmlns:xlink="http://www.w3.org/1999/xlink" version="1.1" id="Layer_1" x="0px" y="0px" width="100%" viewBox="0 0 857 816" enable-background="new 0 0 857 816" xml:space="preserve">
<path xmlns="http://www.w3.org/2000/svg" fill="transparent" opacity="0" stroke="none" d=" M1.000000,300.000000   C1.000000,200.014847 1.000000,100.529686 1.000000,1.022267   C286.609222,1.022267 572.218445,1.022267 857.913818,1.022267   C857.913818,272.901947 857.913818,544.803894 857.913818,816.852905   C572.333374,816.852905 286.666718,816.852905 1.000000,816.852905   C1.000000,644.781372 1.000000,472.640686 1.000000,300.000000  M152.001862,310.000427   C152.001862,310.000427 151.982529,309.959412 151.322418,309.837219   C151.202484,310.215759 151.082565,310.594299 151.002518,310.996246   C151.002518,310.996246 150.969543,310.961945 150.267044,310.778381   C148.830429,312.848083 147.393799,314.917816 146.002609,316.999084   C146.002609,316.999084 145.978455,316.958893 145.266479,316.760345   C144.163452,318.501740 143.060410,320.243134 142.002090,321.998688   C142.002090,321.998688 141.975479,321.960052 141.248962,321.780457   C140.484863,323.182831 139.720764,324.585175 139.002197,325.999481   C139.002197,325.999481 138.977539,325.959381 138.251389,325.773407   C137.486618,327.177734 136.721848,328.582062 136.002335,329.999054   C136.002335,329.999054 135.977158,329.959320 135.279068,329.768585   C127.524223,339.924255 119.518112,349.912628 117.835518,363.270905   C115.271767,383.624786 117.972237,403.718536 120.574875,423.825928   C122.769234,440.778961 125.393768,457.689850 127.038445,474.695740   C128.136505,486.049622 127.850243,497.537354 128.097214,509.809937   C131.395325,529.586243 133.790405,549.566284 138.197128,569.092407   C145.317581,600.643066 153.313538,632.018250 161.898544,663.203613   C164.754761,673.578857 170.555466,683.143494 174.998413,693.822449   C175.810699,695.801086 176.412460,697.901306 177.472763,699.736633   C181.452591,706.625488 185.407364,713.539551 189.690292,720.240417   C199.966156,736.317627 210.410690,752.314453 225.836273,764.116272   C227.265747,765.209900 230.216385,765.432251 231.868851,764.708252   C232.899353,764.256714 233.540192,761.067993 233.095535,759.455017   C231.911758,755.160889 229.720978,751.142029 228.566391,746.843018   C227.814178,744.042175 228.173996,740.942749 228.617599,738.302002   C236.390366,745.820496 244.066940,753.443909 252.033234,760.751404   C253.319748,761.931396 256.033081,762.309631 257.823364,761.901733   C258.883118,761.660278 260.080658,759.159851 260.101318,757.659851   C260.333588,740.822571 261.765625,724.135254 264.977631,707.576965   C267.157104,696.341431 268.123383,684.837463 270.824432,673.743835   C275.011841,656.545471 286.419647,643.473755 297.935272,630.735840   C301.095734,627.239929 305.001617,624.095459 309.146179,621.872437   C321.294891,615.356079 333.835785,609.574951 346.043152,603.163269   C377.875610,586.443848 411.712463,578.486328 447.654053,577.690063   C464.702972,577.312378 481.848114,578.889465 498.890442,575.123230   C517.365967,571.040222 534.453979,565.221680 546.200806,549.252808   C550.535767,543.359802 554.299072,536.990173 559.084229,531.501526   C563.262695,526.708740 563.572266,521.412964 563.541321,515.727905   C563.512451,510.407349 563.792358,505.071106 563.468689,499.770294   C563.179871,495.039917 565.118103,492.445557 569.107849,489.925110   C576.257141,485.408722 584.541138,482.275360 588.468933,473.507446   C593.970276,461.226990 603.698486,450.740845 603.731018,436.176056   C603.737976,433.040527 604.492798,429.906647 605.617065,426.870819   C615.836304,437.855927 623.901733,450.206512 627.772522,464.786285   C629.718506,472.115662 630.308350,479.803680 631.536377,487.325439   C634.746216,506.985229 639.024841,526.525391 638.099426,546.645447   C638.059570,547.513611 638.348083,548.396851 638.745972,550.968628   C650.129395,539.322205 660.558411,528.652161 671.574219,518.454285   C672.038147,521.266602 672.502136,524.078979 672.302673,527.168091   C669.943481,533.316467 667.584290,539.464905 665.225159,545.613281   C665.634094,545.862244 666.043030,546.111145 666.452026,546.360107   C667.875427,545.125977 669.298828,543.891846 671.261719,542.313049   C674.190491,539.225220 677.119263,536.137390 680.000000,533.000000   C680.000000,533.000000 680.049011,533.047302 680.704529,532.889343   C692.991882,519.626160 702.458130,504.433472 710.948181,488.581879   C725.311768,461.763977 731.603638,432.318695 738.964722,402.501007   C741.246094,392.321136 743.527527,382.141296 746.051331,371.217163   C749.642883,351.372040 753.335999,331.544312 756.739929,311.667053   C757.417664,307.709381 756.988892,303.562256 757.444885,299.236481   C757.571289,298.866455 757.448364,298.622345 757.848511,297.980652   C757.902893,290.314484 757.957214,282.648285 758.146301,274.385101   C758.125549,273.979095 758.104736,273.573120 758.069763,272.298981   C758.578613,267.365112 758.990845,262.419006 759.613281,257.499512   C762.079834,238.004395 764.612061,218.517609 767.660095,198.558990   C767.599121,196.217453 767.338501,193.859116 767.533691,191.539139   C767.726074,189.252594 768.380249,187.004898 768.854736,183.891769   C768.826172,181.577377 768.797607,179.262970 768.900635,176.039673   C767.892029,167.363480 766.883484,158.687286 765.844543,149.286530   C757.439209,136.573349 749.040710,123.855606 740.586426,111.175041   C740.389343,110.879387 739.564636,111.002098 739.006165,110.992744   C739.006165,110.992744 739.072449,110.975601 739.594177,110.367439   C737.407166,108.221535 735.220215,106.075630 733.000183,103.990295   C733.000183,103.990295 733.063782,103.963455 733.352295,103.212708   C732.912476,103.120293 732.472595,103.027885 732.008484,102.997780   C732.008484,102.997780 732.072510,102.978447 732.599304,102.379295   C721.821411,92.175735 711.046997,81.968521 700.238220,71.797813   C700.046692,71.617569 699.443359,71.874908 699.005859,71.994949   C699.005859,71.994949 699.067261,71.957596 699.477295,71.299431   C691.163086,64.565094 681.210510,62.001362 670.242004,59.865765   C655.188232,58.478291 640.134460,57.090820 624.365845,55.397007   C620.943726,55.367756 617.521606,55.338509 613.308716,55.053696   C603.164673,55.182976 593.020691,55.312260 582.018677,55.329876   C566.357239,55.605122 550.695740,55.880367 534.102539,56.011639   C512.830078,56.787483 491.552094,57.438011 470.286926,58.378704   C453.189117,59.135056 436.106812,60.242661 418.189758,61.143108   C413.438416,62.123928 408.687103,63.104748 403.860535,64.470734   C403.860535,64.470734 404.057312,64.810280 403.273499,64.867928   C402.189484,64.654839 401.010590,64.050407 400.035492,64.286697   C382.074249,68.639191 364.329956,73.663620 346.909851,81.950645   C333.740356,84.745567 320.570862,87.540482 306.398315,90.548271   C307.260834,86.489174 307.860992,83.622543 308.480225,80.760040   C309.623413,75.475174 310.777893,70.192734 312.259827,65.079155   C312.350616,64.972847 312.441376,64.866547 312.532166,64.760246   C312.453186,64.722984 312.333527,64.633476 312.302429,64.657692   C312.181732,64.751671 312.089142,64.881813 311.352112,65.217102   C307.802704,68.240646 304.088470,71.097687 300.783936,74.368607   C299.437347,75.701477 298.287445,77.906898 298.219208,79.758484   C296.661621,122.028305 295.353943,164.307327 293.798950,206.577255   C293.144714,224.361328 295.110870,241.378815 305.903442,256.321838   C306.483856,257.125458 306.884399,258.058960 306.834351,259.687500   C301.386200,259.836365 295.937469,260.129395 290.489960,260.109192   C266.900330,260.021729 243.332321,260.204193 219.210510,264.224243   C217.928833,264.485016 216.635925,264.700348 215.367264,265.013794   C206.171112,267.286041 196.648926,268.701965 189.002228,274.999207   C189.002228,274.999207 188.982559,274.960571 188.294846,274.981628   C187.849747,275.646637 187.404648,276.311646 186.998825,277.002289   C186.998825,277.002289 186.984741,276.957581 186.280014,276.715912   C184.839981,278.136444 183.399933,279.556946 181.999008,281.002686   C181.999008,281.002686 181.990387,280.956940 181.365143,280.715607   C180.898010,281.136871 180.430878,281.558136 180.001984,281.999390   C180.001984,281.999390 179.981766,281.961212 179.297012,282.023438   C177.851013,283.674683 176.404999,285.325928 174.996674,287.003540   C174.996674,287.003540 174.981171,286.960358 174.323990,286.859650   C174.202301,287.235535 174.080612,287.611420 174.003326,288.002380   C174.003326,288.002380 173.994186,287.956390 173.370163,287.680176   C172.901855,288.112091 172.433548,288.544006 172.001801,288.998932   C172.001801,288.998932 171.978531,288.962219 171.297089,289.023132   C165.516968,294.653961 159.701279,300.249359 154.003708,305.962524   C153.324951,306.643097 153.290085,307.965790 153.001694,309.003387   C153.001694,309.003387 152.987686,308.958893 152.330688,308.855774   C152.207062,309.231720 152.083450,309.607635 152.001862,310.000427  z"/>
<path fill="#256941" opacity="1.000000" stroke="none" d=" M604.903076,426.772003   C604.492798,429.906647 603.737976,433.040527 603.731018,436.176056   C603.698486,450.740845 593.970276,461.226990 588.468933,473.507446   C584.541138,482.275360 576.257141,485.408722 569.107849,489.925110   C565.118103,492.445557 563.179871,495.039917 563.468689,499.770294   C563.792358,505.071106 563.512451,510.407349 563.541321,515.727905   C563.572266,521.412964 563.262695,526.708740 559.084229,531.501526   C554.299072,536.990173 550.535767,543.359802 546.200806,549.252808   C534.453979,565.221680 517.365967,571.040222 498.890442,575.123230   C481.848114,578.889465 464.702972,577.312378 447.654053,577.690063   C411.712463,578.486328 377.875610,586.443848 346.043152,603.163269   C333.835785,609.574951 321.294891,615.356079 309.146179,621.872437   C305.001617,624.095459 301.095734,627.239929 297.935272,630.735840   C286.419647,643.473755 275.011841,656.545471 270.824432,673.743835   C268.123383,684.837463 267.157104,696.341431 264.977631,707.576965   C261.765625,724.135254 260.333588,740.822571 260.101318,757.659851   C260.080658,759.159851 258.883118,761.660278 257.823364,761.901733   C256.033081,762.309631 253.319748,761.931396 252.033234,760.751404   C244.066940,753.443909 236.390366,745.820496 228.215134,737.822632   C215.902039,722.801514 203.362320,708.722168 192.246231,693.596619   C179.475891,676.220154 168.924454,657.330200 165.245697,635.712585   C161.030930,610.945312 157.457932,586.056458 154.177612,561.145142   C147.376816,509.498596 140.754105,457.826355 134.532425,406.107605   C133.173462,394.811066 131.083603,383.106079 135.074753,371.901550   C146.589355,339.576111 163.629227,310.445404 186.687485,284.955383   C188.253784,283.223907 190.679184,281.619171 192.917694,281.252106   C207.012878,278.940582 221.106796,276.093536 235.317062,275.125916   C261.560883,273.338837 287.882660,272.678070 314.175293,271.631470   C373.898834,269.254120 433.391327,272.104614 492.678589,279.593201   C502.404114,280.821625 512.157288,281.831116 522.283081,283.009735   C525.777893,283.653076 528.887268,284.228485 532.401855,284.861725   C548.986084,287.965210 565.165039,291.010834 582.125061,294.203522   C581.794189,291.793762 581.715881,290.198944 581.340332,288.677551   C580.148682,283.851227 578.698730,279.084595 577.636353,274.231903   C576.878540,270.770416 580.172363,267.715942 582.840881,269.598083   C588.635986,273.685364 593.918091,278.505981 599.330994,283.119446   C599.843201,283.556030 599.941895,284.639374 599.987244,285.436432   C600.354431,291.893219 600.707581,298.351440 600.980713,304.812805   C601.653381,320.726776 602.404602,336.638794 602.898193,352.558624   C603.665100,377.293365 604.244324,402.033905 604.903076,426.772003  M295.453613,349.990234   C286.664337,349.990234 277.875061,349.990234 269.085815,349.990234   C274.103699,351.027954 279.119446,351.748352 284.155609,351.945404   C303.888672,352.717316 323.627472,353.345581 343.365570,353.984192   C354.981506,354.360046 366.599213,354.689514 378.217682,354.977692   C393.165192,355.348480 408.115417,355.984802 423.062439,355.931396   C469.655548,355.764893 516.247681,355.328644 562.840149,354.987518   C564.175476,354.977722 565.510010,354.861633 566.844849,354.795105   C565.109863,353.842041 563.385071,353.155884 561.629333,353.064667   C547.226074,352.316254 532.820496,351.585846 518.408569,351.035492   C506.130249,350.566650 493.843781,350.281433 481.558624,350.026459   C462.780762,349.636719 443.999969,349.020660 425.222046,349.073639   C382.292999,349.194733 339.364929,349.662964 295.453613,349.990234  M401.585693,435.995117   C454.977112,435.563660 508.388397,437.069977 561.756897,434.646667   C558.666748,433.927826 555.593994,433.206573 552.495117,433.067657   C535.419495,432.302246 518.340332,431.590607 501.256714,431.034332   C486.972504,430.569244 472.681763,430.267151 458.391663,430.027924   C434.606659,429.629669 410.819336,429.031464 387.033966,429.074554   C349.584442,429.142365 312.135742,429.668488 274.686890,430.021393   C273.336243,430.034088 271.987732,430.267456 270.638214,430.398010   C271.269135,431.587555 271.948669,431.928680 272.640228,431.955231   C290.885468,432.654419 309.131042,433.346344 327.378540,433.983856   C338.332825,434.366577 349.289642,434.682800 360.246643,434.979828   C373.701294,435.344574 387.157349,435.658142 401.585693,435.995117  z"/>
<path fill="#4E8479" opacity="1.000000" stroke="none" d=" M605.260071,426.821411   C604.244324,402.033905 603.665100,377.293365 602.898193,352.558624   C602.404602,336.638794 601.653381,320.726776 600.980713,304.812805   C600.707581,298.351440 600.354431,291.893219 599.987244,285.436432   C599.941895,284.639374 599.843201,283.556030 599.330994,283.119446   C593.918091,278.505981 588.635986,273.685364 582.840881,269.598083   C580.172363,267.715942 576.878540,270.770416 577.636353,274.231903   C578.698730,279.084595 580.148682,283.851227 581.340332,288.677551   C581.715881,290.198944 581.794189,291.793762 582.125061,294.203522   C565.165039,291.010834 548.986084,287.965210 532.218262,284.578552   C526.263367,282.086090 521.014587,279.553284 515.507690,277.860107   C502.881165,273.977844 490.506104,268.843964 476.561798,268.901917   C474.120636,268.513733 472.056793,268.238953 469.904358,267.580719   C466.196747,266.467590 462.602295,265.284760 458.954346,265.086853   C443.248138,264.234802 427.526489,263.667114 411.810028,263.004944   C395.927887,262.335815 380.050232,261.496674 364.161621,261.061554   C345.584747,260.552826 326.998138,260.400421 308.285248,259.858948   C307.892731,259.393646 307.630676,259.162842 307.368652,258.932007   C306.884399,258.058960 306.483856,257.125458 305.903442,256.321838   C295.110870,241.378815 293.144714,224.361328 293.798950,206.577255   C295.353943,164.307327 296.661621,122.028305 298.219208,79.758484   C298.287445,77.906898 299.437347,75.701477 300.783936,74.368607   C304.088470,71.097687 307.802704,68.240646 311.655548,65.084808   C311.958984,64.952507 311.927643,64.909271 311.927673,64.909271   C310.777893,70.192734 309.623413,75.475174 308.480225,80.760040   C307.860992,83.622543 307.260834,86.489174 306.398315,90.548271   C320.570862,87.540482 333.740356,84.745567 347.723328,81.948990   C350.654572,81.683662 352.772400,81.419998 355.319183,81.101730   C372.858368,78.625435 389.944977,76.020187 407.083466,73.818718   C447.884003,68.577805 488.865326,65.368896 530.002563,65.857857   C563.104919,66.251305 596.185181,68.348236 629.288330,68.887817   C653.785706,69.287117 678.179077,69.702133 702.342285,76.171707   C705.781921,79.596413 708.932861,82.854095 712.176819,86.428177   C726.784668,104.716881 738.354431,124.466507 748.211792,145.324341   C754.510925,158.653030 758.583130,172.175964 756.787170,187.184235   C754.299194,207.975876 752.555542,228.857407 750.005798,249.640640   C746.808594,275.701233 743.251282,301.719940 739.602600,327.722107   C735.885559,354.212006 732.141663,380.704102 727.864746,407.106964   C725.827820,419.681732 723.917969,432.568176 719.520935,444.411407   C709.083862,472.523041 690.278870,495.500092 670.987427,517.982178   C660.558411,528.652161 650.129395,539.322205 638.745972,550.968628   C638.348083,548.396851 638.059570,547.513611 638.099426,546.645447   C639.024841,526.525391 634.746216,506.985229 631.536377,487.325439   C630.308350,479.803680 629.718506,472.115662 627.772522,464.786285   C623.901733,450.206512 615.836304,437.855927 605.260071,426.821411  M350.496521,146.000610   C359.615021,146.333328 368.735229,146.990433 377.851685,146.941544   C413.620880,146.749756 449.389526,146.390793 485.156982,145.974579   C498.275055,145.821930 511.389496,145.348373 524.505127,145.002121   C536.622070,144.682236 548.737244,144.290741 560.855103,144.013855   C577.467773,143.634277 594.082458,143.342606 610.695557,142.979385   C611.946106,142.952042 613.190674,142.654312 614.438049,142.482285   C603.246704,140.987350 592.191406,140.046478 581.139099,140.081665   C541.372559,140.208298 501.606476,140.609207 461.841400,141.020447   C443.560486,141.209503 425.281891,141.642654 407.002991,142.002655   C391.554657,142.306900 376.106049,142.615143 360.660095,143.018646   C351.539185,143.256927 342.422455,143.667358 333.306610,144.063034   C332.694122,144.089615 332.104584,144.645798 331.504395,144.955658   C331.566498,145.303970 331.628632,145.652298 331.690735,146.000610   C337.626617,146.000610 343.562469,146.000610 350.496521,146.000610  M328.891327,226.000595   C333.848755,226.333221 338.807739,226.975311 343.763397,226.950806   C395.220856,226.696396 446.678192,226.382584 498.134583,225.968216   C510.593903,225.867905 523.048645,225.287140 535.507446,225.016693   C553.130432,224.634109 570.756592,224.391357 588.378662,223.974930   C596.839417,223.774979 605.294800,223.332764 613.749329,222.931091   C614.346008,222.902740 614.915527,222.301971 616.334839,221.486237   C614.350037,221.241592 613.389404,221.030182 612.426270,221.018021   C584.635864,220.666458 556.845398,220.103912 529.054443,220.072632   C506.597443,220.047348 484.138885,220.618744 461.682678,221.017639   C448.723389,221.247849 435.768097,221.691376 422.809723,221.983932   C406.519745,222.351715 390.227936,222.637161 373.937988,223.007462   C360.979797,223.302032 348.020477,223.593155 335.067902,224.059479   C331.725494,224.179794 328.406616,224.953537 325.076965,225.427124   C325.084961,225.618271 325.092987,225.809418 325.101013,226.000565   C326.079407,226.000565 327.057831,226.000565 328.891327,226.000595  M620.970947,141.178909   C620.563721,141.273880 620.156555,141.368851 619.749329,141.463821   C619.838928,141.584366 619.943787,141.816803 620.015564,141.806961   C620.428833,141.750458 620.834412,141.636642 620.970947,141.178909  z"/>
<path fill="#E6E7E7" opacity="1.000000" stroke="none" d=" M469.992920,267.964172   C472.056793,268.238953 474.120636,268.513733 476.875488,269.119263   C490.697540,272.989105 503.843750,276.474121 516.941956,280.130981   C518.717102,280.626587 520.251709,281.983673 521.897705,282.941833   C512.157288,281.831116 502.404114,280.821625 492.678589,279.593201   C433.391327,272.104614 373.898834,269.254120 314.175293,271.631470   C287.882660,272.678070 261.560883,273.338837 235.317062,275.125916   C221.106796,276.093536 207.012878,278.940582 192.917694,281.252106   C190.679184,281.619171 188.253784,283.223907 186.687485,284.955383   C163.629227,310.445404 146.589355,339.576111 135.074753,371.901550   C131.083603,383.106079 133.173462,394.811066 134.532425,406.107605   C140.754105,457.826355 147.376816,509.498596 154.177612,561.145142   C157.457932,586.056458 161.030930,610.945312 165.245697,635.712585   C168.924454,657.330200 179.475891,676.220154 192.246231,693.596619   C203.362320,708.722168 215.902039,722.801514 227.924164,737.660156   C228.173996,740.942749 227.814178,744.042175 228.566391,746.843018   C229.720978,751.142029 231.911758,755.160889 233.095535,759.455017   C233.540192,761.067993 232.899353,764.256714 231.868851,764.708252   C230.216385,765.432251 227.265747,765.209900 225.836273,764.116272   C210.410690,752.314453 199.966156,736.317627 189.690292,720.240417   C185.407364,713.539551 181.452591,706.625488 177.472763,699.736633   C176.412460,697.901306 175.810699,695.801086 175.006409,693.061157   C171.364807,683.062256 166.920364,674.050415 164.221558,664.542969   C157.393448,640.488831 150.769089,616.345703 145.162033,591.985291   C140.006363,569.585938 136.283798,546.856689 131.888840,524.224121   C131.847794,524.175476 131.858475,523.810913 131.689865,523.342529   C130.968750,517.927795 130.416245,512.981445 129.895294,507.593689   C129.945648,499.542114 130.660446,491.857239 129.853409,484.335602   C127.378677,461.271545 123.903778,438.311066 121.632652,415.230133   C120.075119,399.401184 119.467308,383.444214 119.246796,367.533234   C119.140984,359.898315 121.752930,352.575989 126.193222,346.025055   C129.707062,340.840973 132.733994,335.326874 135.977158,329.959320   C135.977158,329.959320 136.002335,329.999054 136.302673,329.901855   C137.394531,328.522919 138.186020,327.241150 138.977539,325.959381   C138.977539,325.959381 139.002197,325.999481 139.302094,325.901764   C140.393158,324.522705 141.184311,323.241394 141.975479,321.960052   C141.975479,321.960052 142.002090,321.998688 142.307312,321.906555   C143.734512,320.195923 144.856491,318.577393 145.978455,316.958893   C145.978455,316.958893 146.002609,316.999084 146.306366,316.902710   C148.063263,314.858215 149.516403,312.910065 150.969543,310.961945   C150.969543,310.961945 151.002518,310.996246 151.255676,310.948425   C151.666733,310.586853 151.824631,310.273132 151.982529,309.959412   C151.982529,309.959412 152.001862,310.000427 152.244278,309.933441   C152.653687,309.563934 152.820694,309.261414 152.987686,308.958893   C152.987686,308.958893 153.001694,309.003387 153.304962,308.906555   C158.659637,303.743683 163.759567,298.724579 168.729309,293.579712   C170.021225,292.242249 170.906479,290.512024 171.978516,288.962219   C171.978531,288.962219 172.001801,288.998932 172.301254,289.088501   C173.065201,288.770844 173.529694,288.363617 173.994186,287.956390   C173.994186,287.956390 174.003326,288.002380 174.245453,287.936188   C174.652130,287.566772 174.816650,287.263580 174.981171,286.960358   C174.981171,286.960358 174.996674,287.003540 175.325958,286.982422   C177.097427,285.294617 178.539597,283.627930 179.981766,281.961212   C179.981766,281.961212 180.001984,281.999390 180.302155,282.080017   C181.065002,281.759369 181.527695,281.358154 181.990387,280.956940   C181.990387,280.956940 181.999008,281.002686 182.320160,280.994934   C184.089127,279.643982 185.536942,278.300781 186.984741,276.957581   C186.984741,276.957581 186.998825,277.002289 187.320389,276.984436   C188.088821,276.297882 188.535690,275.629211 188.982544,274.960571   C188.982559,274.960571 189.002228,274.999207 189.358612,275.081238   C199.807465,272.069580 209.899918,268.975861 220.404785,265.894348   C237.970047,264.619324 255.107254,263.025085 272.281097,262.150208   C284.203186,261.542847 296.175720,261.925293 308.582703,261.914612   C319.847992,262.084656 330.667542,261.931061 341.462555,262.374908   C384.310181,264.136566 427.150116,266.084991 469.992920,267.964172  z"/>
<path fill="#D6D7D7" opacity="1.000000" stroke="none" d=" M671.280762,518.218201   C690.278870,495.500092 709.083862,472.523041 719.520935,444.411407   C723.917969,432.568176 725.827820,419.681732 727.864746,407.106964   C732.141663,380.704102 735.885559,354.212006 739.602600,327.722107   C743.251282,301.719940 746.808594,275.701233 750.005798,249.640640   C752.555542,228.857407 754.299194,207.975876 756.787170,187.184235   C758.583130,172.175964 754.510925,158.653030 748.211792,145.324341   C738.354431,124.466507 726.784668,104.716881 712.536011,86.409714   C714.420837,87.054619 716.259338,87.797104 717.618469,89.056808   C722.523743,93.603188 727.267700,98.323692 732.072510,102.978455   C732.072510,102.978447 732.008484,102.997780 732.041992,103.255692   C732.404907,103.663551 732.734375,103.813499 733.063782,103.963455   C733.063782,103.963455 733.000183,103.990295 733.009155,104.305786   C735.036255,106.739395 737.054321,108.857506 739.072449,110.975601   C739.072449,110.975601 739.006165,110.992744 739.010498,111.312546   C747.480591,124.469086 755.946411,137.305832 764.523193,150.553741   C765.469727,159.626907 766.305237,168.288910 767.092529,177.348083   C767.640076,180.076889 768.235962,182.408524 768.831787,184.740158   C768.380249,187.004898 767.726074,189.252594 767.533691,191.539139   C767.338501,193.859116 767.599121,196.217453 767.106445,198.658234   C766.070618,199.769424 765.305542,200.741226 765.155212,201.800278   C764.503296,206.395218 764.087646,211.023087 763.483093,215.625427   C761.086304,233.871094 758.621460,252.107971 756.322510,270.365814   C756.215942,271.212219 757.465881,272.229462 758.083984,273.167114   C758.104736,273.573120 758.125549,273.979095 757.642029,274.554321   C757.117249,282.650421 757.096741,290.577301 757.076233,298.504181   C757.448364,298.622345 757.571289,298.866455 756.881470,299.584045   C754.497620,312.549042 752.845459,325.193726 750.805725,337.775574   C749.032043,348.716095 746.820190,359.585571 744.550537,370.800812   C741.895325,381.745544 739.491638,392.375916 736.979492,403.380310   C734.559692,412.738495 732.107666,421.689148 729.961365,430.712555   C721.229675,467.422882 705.889526,500.849274 681.208557,529.702759   C680.494568,530.537537 680.421082,531.920166 680.049011,533.047302   C680.049011,533.047302 680.000000,533.000000 679.713623,532.793091   C676.274780,535.063965 673.122314,537.541748 669.921997,539.631592   C670.904785,535.126221 671.935425,531.008789 672.966125,526.891296   C672.502136,524.078979 672.038147,521.266602 671.280762,518.218201  z"/>
<path fill="#D6D7D6" opacity="1.000000" stroke="none" d=" M702.053650,76.004677   C678.179077,69.702133 653.785706,69.287117 629.288330,68.887817   C596.185181,68.348236 563.104919,66.251305 530.002563,65.857857   C488.865326,65.368896 447.884003,68.577805 407.083466,73.818718   C389.944977,76.020187 372.858368,78.625435 355.480896,80.762375   C361.858124,78.003212 368.414856,75.250290 375.168274,73.121254   C384.721832,70.109467 394.420593,67.558311 404.057312,64.810272   C404.057312,64.810280 403.860535,64.470734 404.275452,64.371552   C409.468170,63.742172 414.245941,63.211983 419.487183,62.637650   C427.418671,62.078079 434.879303,61.369949 442.356110,61.083279   C464.978210,60.215927 487.608215,59.557095 510.231567,58.720779   C518.529846,58.414013 526.818176,57.837799 535.507935,57.488995   C551.581909,57.358196 567.259094,57.122898 583.404358,56.957947   C593.937134,56.954037 604.001709,56.879784 614.516113,56.864143   C618.310242,56.920254 621.654480,56.917755 625.448059,56.977531   C640.904785,58.496368 655.912231,59.952927 671.219238,61.601402   C680.701599,65.181412 689.884460,68.569504 699.067261,71.957596   C699.067261,71.957596 699.005859,71.994949 699.047058,72.289894   C700.076721,73.724777 701.065186,74.864723 702.053650,76.004677  z"/>
<path fill="#A3A3A3" opacity="1.000000" stroke="none" d=" M135.628113,329.863953   C132.733994,335.326874 129.707062,340.840973 126.193222,346.025055   C121.752930,352.575989 119.140984,359.898315 119.246796,367.533234   C119.467308,383.444214 120.075119,399.401184 121.632652,415.230133   C123.903778,438.311066 127.378677,461.271545 129.853409,484.335602   C130.660446,491.857239 129.945648,499.542114 129.676025,507.690857   C129.011292,508.474670 128.597397,508.719940 128.183502,508.965179   C127.850243,497.537354 128.136505,486.049622 127.038445,474.695740   C125.393768,457.689850 122.769234,440.778961 120.574875,423.825928   C117.972237,403.718536 115.271767,383.624786 117.835518,363.270905   C119.518112,349.912628 127.524223,339.924255 135.628113,329.863953  z"/>
<path fill="#A1A1A1" opacity="1.000000" stroke="none" d=" M128.140350,509.387573   C128.597397,508.719940 129.011292,508.474670 129.644455,508.132233   C130.416245,512.981445 130.968750,517.927795 131.594543,523.364990   C131.624115,524.092529 131.711472,524.231506 131.929886,524.272766   C136.283798,546.856689 140.006363,569.585938 145.162033,591.985291   C150.769089,616.345703 157.393448,640.488831 164.221558,664.542969   C166.920364,674.050415 171.364807,683.062256 175.012238,692.689270   C170.555466,683.143494 164.754761,673.578857 161.898544,663.203613   C153.313538,632.018250 145.317581,600.643066 138.197128,569.092407   C133.790405,549.566284 131.395325,529.586243 128.140350,509.387573  z"/>
<path fill="#727272" opacity="1.000000" stroke="none" d=" M680.376770,532.968323   C680.421082,531.920166 680.494568,530.537537 681.208557,529.702759   C705.889526,500.849274 721.229675,467.422882 729.961365,430.712555   C732.107666,421.689148 734.559692,412.738495 737.381042,403.411865   C738.158630,403.091400 738.426331,403.113495 738.694031,403.135590   C731.603638,432.318695 725.311768,461.763977 710.948181,488.581879   C702.458130,504.433472 692.991882,519.626160 680.376770,532.968323  z"/>
<path fill="#7A7A7A" opacity="1.000000" stroke="none" d=" M535.111023,57.384499   C526.818176,57.837799 518.529846,58.414013 510.231567,58.720779   C487.608215,59.557095 464.978210,60.215927 442.356110,61.083279   C434.879303,61.369949 427.418671,62.078079 419.496338,62.263840   C419.033875,61.687576 419.025757,61.440987 419.017639,61.194401   C436.106812,60.242661 453.189117,59.135056 470.286926,58.378704   C491.552094,57.438011 512.830078,56.787483 534.572693,56.289841   C535.083679,56.838680 535.106384,57.110836 535.111023,57.384499  z"/>
<path fill="#A6A6A6" opacity="1.000000" stroke="none" d=" M308.125702,261.865540   C296.175720,261.925293 284.203186,261.542847 272.281097,262.150208   C255.107254,263.025085 237.970047,264.619324 220.406647,265.628510   C219.994675,264.995453 219.993256,264.640533 219.991837,264.285583   C243.332321,260.204193 266.900330,260.021729 290.489960,260.109192   C295.937469,260.129395 301.386200,259.836365 307.101501,259.309753   C307.630676,259.162842 307.892731,259.393646 308.217957,260.151062   C308.229340,261.073608 308.177521,261.469574 308.125702,261.865540  z"/>
<path fill="#737373" opacity="1.000000" stroke="none" d=" M744.802002,370.486450   C746.820190,359.585571 749.032043,348.716095 750.805725,337.775574   C752.845459,325.193726 754.497620,312.549042 756.694214,299.717041   C756.988892,303.562256 757.417664,307.709381 756.739929,311.667053   C753.335999,331.544312 749.642883,351.372040 745.692383,371.398926   C745.156250,371.215973 744.979126,370.851227 744.802002,370.486450  z"/>
<path fill="#747474" opacity="1.000000" stroke="none" d=" M758.076904,272.733032   C757.465881,272.229462 756.215942,271.212219 756.322510,270.365814   C758.621460,252.107971 761.086304,233.871094 763.483093,215.625427   C764.087646,211.023087 764.503296,206.395218 765.155212,201.800278   C765.305542,200.741226 766.070618,199.769424 766.836426,198.892609   C764.612061,218.517609 762.079834,238.004395 759.613281,257.499512   C758.990845,262.419006 758.578613,267.365112 758.076904,272.733032  z"/>
<path fill="#7A7A7A" opacity="1.000000" stroke="none" d=" M403.665405,64.839096   C394.420593,67.558311 384.721832,70.109467 375.168274,73.121254   C368.414856,75.250290 361.858124,78.003212 355.051880,80.816971   C352.772400,81.419998 350.654572,81.683662 348.098450,81.909210   C364.329956,73.663620 382.074249,68.639191 400.035492,64.286697   C401.010590,64.050407 402.189484,64.654839 403.665405,64.839096  z"/>
<path fill="#7A7A7A" opacity="1.000000" stroke="none" d=" M702.342285,76.171700   C701.065186,74.864723 700.076721,73.724777 699.060242,72.256454   C699.443359,71.874908 700.046692,71.617569 700.238220,71.797813   C711.046997,81.968521 721.821411,92.175735 732.335938,102.678879   C727.267700,98.323692 722.523743,93.603188 717.618469,89.056808   C716.259338,87.797104 714.420837,87.054619 712.443054,86.093315   C708.932861,82.854095 705.781921,79.596413 702.342285,76.171700  z"/>
<path fill="#7A7A7A" opacity="1.000000" stroke="none" d=" M764.412231,150.142563   C755.946411,137.305832 747.480591,124.469086 739.023743,111.280991   C739.564636,111.002098 740.389343,110.879387 740.586426,111.175041   C749.040710,123.855606 757.439209,136.573349 765.493652,149.677063   C764.899231,150.092575 764.655701,150.117554 764.412231,150.142563  z"/>
<path fill="#747474" opacity="1.000000" stroke="none" d=" M670.919678,61.409485   C655.912231,59.952927 640.904785,58.496368 625.465576,56.674389   C625.049438,56.107094 625.065063,55.905220 625.080688,55.703346   C640.134460,57.090820 655.188232,58.478291 670.602661,60.313038   C670.948730,60.976704 670.934204,61.193096 670.919678,61.409485  z"/>
<path fill="#747474" opacity="1.000000" stroke="none" d=" M744.550537,370.800812   C744.979126,370.851227 745.156250,371.215973 745.571167,371.771057   C743.527527,382.141296 741.246094,392.321136 738.829346,402.818298   C738.426331,403.113495 738.158630,403.091400 737.489502,403.037781   C739.491638,392.375916 741.895325,381.745544 744.550537,370.800812  z"/>
<path fill="#8B8B8B" opacity="1.000000" stroke="none" d=" M614.066345,56.805531   C604.001709,56.879784 593.937134,56.954037 583.415649,56.716232   C582.880066,56.087688 582.852661,55.766811 582.876648,55.441544   C593.020691,55.312260 603.164673,55.182976 613.690918,55.556416   C614.070801,56.307930 614.068604,56.556728 614.066345,56.805531  z"/>
<path fill="#7A7A7A" opacity="1.000000" stroke="none" d=" M671.219238,61.601402   C670.934204,61.193096 670.948730,60.976704 670.978516,60.435356   C681.210510,62.001362 691.163086,64.565094 699.272278,71.628510   C689.884460,68.569504 680.701599,65.181412 671.219238,61.601402  z"/>
<path fill="#5E5E5E" opacity="1.000000" stroke="none" d=" M582.447632,55.385712   C582.852661,55.766811 582.880066,56.087688 582.947510,56.645885   C567.259094,57.122898 551.581909,57.358196 535.507935,57.488998   C535.106384,57.110836 535.083679,56.838680 535.038574,56.361824   C550.695740,55.880367 566.357239,55.605122 582.447632,55.385712  z"/>
<path fill="#A3A3A3" opacity="1.000000" stroke="none" d=" M219.601166,264.254913   C219.993256,264.640533 219.994675,264.995453 219.994232,265.616272   C209.899918,268.975861 199.807465,272.069580 189.339417,275.071228   C196.648926,268.701965 206.171112,267.286041 215.367264,265.013794   C216.635925,264.700348 217.928833,264.485016 219.601166,264.254913  z"/>
<path fill="#A3A3A3" opacity="1.000000" stroke="none" d=" M171.637802,288.992676   C170.906479,290.512024 170.021225,292.242249 168.729309,293.579712   C163.759567,298.724579 158.659637,303.743683 153.282501,308.900299   C153.290085,307.965790 153.324951,306.643097 154.003708,305.962524   C159.701279,300.249359 165.516968,294.653961 171.637802,288.992676  z"/>
<path fill="#727272" opacity="1.000000" stroke="none" d=" M764.523193,150.553726   C764.655701,150.117554 764.899231,150.092575 765.508789,150.039368   C766.883484,158.687286 767.892029,167.363480 768.563232,176.500183   C767.864197,176.957428 767.502441,176.954178 767.140747,176.950928   C766.305237,168.288910 765.469727,159.626907 764.523193,150.553726  z"/>
<path fill="#727272" opacity="1.000000" stroke="none" d=" M672.634399,527.029663   C671.935425,531.008789 670.904785,535.126221 669.935303,539.621216   C669.996521,539.998779 670.016724,539.971802 669.744751,540.002686   C669.583618,540.606689 669.694519,541.179810 670.023071,541.990845   C670.401184,542.371704 670.561707,542.514709 670.722229,542.657776   C669.298828,543.891846 667.875427,545.125977 666.452026,546.360107   C666.043030,546.111145 665.634094,545.862244 665.225159,545.613281   C667.584290,539.464905 669.943481,533.316467 672.634399,527.029663  z"/>
<path fill="#747474" opacity="1.000000" stroke="none" d=" M757.462402,298.242432   C757.096741,290.577301 757.117249,282.650421 757.574646,274.852844   C757.957214,282.648285 757.902893,290.314484 757.462402,298.242432  z"/>
<path fill="#828282" opacity="1.000000" stroke="none" d=" M418.603699,61.168755   C419.025757,61.440987 419.033875,61.687576 419.032898,62.307980   C414.245941,63.211983 409.468170,63.742172 404.313049,64.178970   C408.687103,63.104748 413.438416,62.123928 418.603699,61.168755  z"/>
<path fill="#727272" opacity="1.000000" stroke="none" d=" M669.983215,540.009155   C673.122314,537.541748 676.274780,535.063965 679.737610,532.817871   C677.119263,536.137390 674.190491,539.225220 670.991943,542.485413   C670.561707,542.514709 670.401184,542.371704 670.131348,541.690430   C670.020264,540.758667 670.018433,540.365234 670.016724,539.971802   C670.016724,539.971802 669.996521,539.998779 669.983215,540.009155  z"/>
<path fill="#727272" opacity="1.000000" stroke="none" d=" M614.516113,56.864143   C614.068604,56.556728 614.070801,56.307930 614.086304,55.684196   C617.521606,55.338509 620.943726,55.367756 624.723267,55.550179   C625.065063,55.905220 625.049438,56.107094 625.016235,56.612114   C621.654480,56.917755 618.310242,56.920254 614.516113,56.864143  z"/>
<path fill="#7A7A7A" opacity="1.000000" stroke="none" d=" M739.333313,110.671524   C737.054321,108.857506 735.036255,106.739395 733.025757,104.275497   C735.220215,106.075630 737.407166,108.221535 739.333313,110.671524  z"/>
<path fill="#A3A3A3" opacity="1.000000" stroke="none" d=" M150.618286,310.870178   C149.516403,312.910065 148.063263,314.858215 146.283661,316.896942   C147.393799,314.917816 148.830429,312.848083 150.618286,310.870178  z"/>
<path fill="#A3A3A3" opacity="1.000000" stroke="none" d=" M179.639389,281.992310   C178.539597,283.627930 177.097427,285.294617 175.307129,286.969238   C176.404999,285.325928 177.851013,283.674683 179.639389,281.992310  z"/>
<path fill="#8B8B8B" opacity="1.000000" stroke="none" d=" M767.092529,177.348083   C767.502441,176.954178 767.864197,176.957428 768.497437,176.954636   C768.797607,179.262970 768.826172,181.577377 768.843262,184.315964   C768.235962,182.408524 767.640076,180.076889 767.092529,177.348083  z"/>
<path fill="#A3A3A3" opacity="1.000000" stroke="none" d=" M145.622467,316.859619   C144.856491,318.577393 143.734512,320.195923 142.284973,321.899475   C143.060410,320.243134 144.163452,318.501740 145.622467,316.859619  z"/>
<path fill="#A3A3A3" opacity="1.000000" stroke="none" d=" M186.632385,276.836731   C185.536942,278.300781 184.089127,279.643982 182.300598,280.982300   C183.399933,279.556946 184.839981,278.136444 186.632385,276.836731  z"/>
<path fill="#A3A3A3" opacity="1.000000" stroke="none" d=" M141.612213,321.870239   C141.184311,323.241394 140.393158,324.522705 139.279327,325.895813   C139.720764,324.585175 140.484863,323.182831 141.612213,321.870239  z"/>
<path fill="#A3A3A3" opacity="1.000000" stroke="none" d=" M138.614456,325.866394   C138.186020,327.241150 137.394531,328.522919 136.280060,329.895508   C136.721848,328.582062 137.486618,327.177734 138.614456,325.866394  z"/>
<path fill="#A3A3A3" opacity="1.000000" stroke="none" d=" M188.638702,274.971100   C188.535690,275.629211 188.088821,276.297882 187.300751,276.971619   C187.404648,276.311646 187.849747,275.646637 188.638702,274.971100  z"/>
<path fill="#A3A3A3" opacity="1.000000" stroke="none" d=" M173.682175,287.818298   C173.529694,288.363617 173.065201,288.770844 172.282974,289.076996   C172.433548,288.544006 172.901855,288.112091 173.682175,287.818298  z"/>
<path fill="#A3A3A3" opacity="1.000000" stroke="none" d=" M181.677765,280.836273   C181.527695,281.358154 181.065002,281.759369 180.283020,282.070007   C180.430878,281.558136 180.898010,281.136871 181.677765,280.836273  z"/>
<path fill="#A3A3A3" opacity="1.000000" stroke="none" d=" M151.652466,309.898315   C151.824631,310.273132 151.666733,310.586853 151.235733,310.936707   C151.082565,310.594299 151.202484,310.215759 151.652466,309.898315  z"/>
<path fill="#A3A3A3" opacity="1.000000" stroke="none" d=" M152.659180,308.907349   C152.820694,309.261414 152.653687,309.563934 152.223267,309.925018   C152.083450,309.607635 152.207062,309.231720 152.659180,308.907349  z"/>
<path fill="#7A7A7A" opacity="1.000000" stroke="none" d=" M733.208008,103.588081   C732.734375,103.813499 732.404907,103.663551 732.054138,103.224533   C732.472595,103.027885 732.912476,103.120293 733.208008,103.588081  z"/>
<path fill="#4E8479" opacity="1.000000" stroke="none" d=" M311.972534,64.975494   C312.089142,64.881813 312.181732,64.751671 312.302429,64.657692   C312.333527,64.633476 312.453186,64.722984 312.532166,64.760246   C312.441376,64.866547 312.350616,64.972847 312.093750,64.994217   C311.927643,64.909271 311.958984,64.952507 311.972534,64.975494  z"/>
<path fill="#A3A3A3" opacity="1.000000" stroke="none" d=" M174.652588,286.910004   C174.816650,287.263580 174.652130,287.566772 174.223267,287.928650   C174.080612,287.611420 174.202301,287.235535 174.652588,286.910004  z"/>
<path fill="#3C7354" opacity="1.000000" stroke="none" d=" M295.945038,349.990234   C339.364929,349.662964 382.292999,349.194733 425.222046,349.073639   C443.999969,349.020660 462.780762,349.636719 481.558624,350.026459   C493.843781,350.281433 506.130249,350.566650 518.408569,351.035492   C532.820496,351.585846 547.226074,352.316254 561.629333,353.064667   C563.385071,353.155884 565.109863,353.842041 566.844849,354.795105   C565.510010,354.861633 564.175476,354.977722 562.840149,354.987518   C516.247681,355.328644 469.655548,355.764893 423.062439,355.931396   C408.115417,355.984802 393.165192,355.348480 378.217682,354.977692   C366.599213,354.689514 354.981506,354.360046 343.365570,353.984192   C323.627472,353.345581 303.888672,352.717316 284.155609,351.945404   C279.119446,351.748352 274.103699,351.027954 269.085815,349.990234   C277.875061,349.990234 286.664337,349.990234 295.945038,349.990234  z"/>
<path fill="#3C7454" opacity="1.000000" stroke="none" d=" M401.099243,435.994446   C387.157349,435.658142 373.701294,435.344574 360.246643,434.979828   C349.289642,434.682800 338.332825,434.366577 327.378540,433.983856   C309.131042,433.346344 290.885468,432.654419 272.640228,431.955231   C271.948669,431.928680 271.269135,431.587555 270.638214,430.398010   C271.987732,430.267456 273.336243,430.034088 274.686890,430.021393   C312.135742,429.668488 349.584442,429.142365 387.033966,429.074554   C410.819336,429.031464 434.606659,429.629669 458.391663,430.027924   C472.681763,430.267151 486.972504,430.569244 501.256714,431.034332   C518.340332,431.590607 535.419495,432.302246 552.495117,433.067657   C555.593994,433.206573 558.666748,433.927826 561.756897,434.646667   C508.388397,437.069977 454.977112,435.563660 401.099243,435.994446  z"/>
<path fill="#546E69" opacity="1.000000" stroke="none" d=" M522.283081,283.009735   C520.251709,281.983673 518.717102,280.626587 516.941956,280.130981   C503.843750,276.474121 490.697540,272.989105 477.252777,269.232697   C490.506104,268.843964 502.881165,273.977844 515.507690,277.860107   C521.014587,279.553284 526.263367,282.086090 531.812988,284.520752   C528.887268,284.228485 525.777893,283.653076 522.283081,283.009735  z"/>
<path fill="#5D8980" opacity="1.000000" stroke="none" d=" M349.997437,146.000610   C343.562469,146.000610 337.626617,146.000610 331.690735,146.000610   C331.628632,145.652298 331.566498,145.303970 331.504395,144.955658   C332.104584,144.645798 332.694122,144.089615 333.306610,144.063034   C342.422455,143.667358 351.539185,143.256927 360.660095,143.018646   C376.106049,142.615143 391.554657,142.306900 407.002991,142.002655   C425.281891,141.642654 443.560486,141.209503 461.841400,141.020447   C501.606476,140.609207 541.372559,140.208298 581.139099,140.081665   C592.191406,140.046478 603.246704,140.987350 614.438049,142.482285   C613.190674,142.654312 611.946106,142.952042 610.695557,142.979385   C594.082458,143.342606 577.467773,143.634277 560.855103,144.013855   C548.737244,144.290741 536.622070,144.682236 524.505127,145.002121   C511.389496,145.348373 498.275055,145.821930 485.156982,145.974579   C449.389526,146.390793 413.620880,146.749756 377.851685,146.941544   C368.735229,146.990433 359.615021,146.333328 349.997437,146.000610  z"/>
<path fill="#5D8980" opacity="1.000000" stroke="none" d=" M328.463776,226.000580   C327.057831,226.000565 326.079407,226.000565 325.101013,226.000565   C325.092987,225.809418 325.084961,225.618271 325.076965,225.427124   C328.406616,224.953537 331.725494,224.179794 335.067902,224.059479   C348.020477,223.593155 360.979797,223.302032 373.937988,223.007462   C390.227936,222.637161 406.519745,222.351715 422.809723,221.983932   C435.768097,221.691376 448.723389,221.247849 461.682678,221.017639   C484.138885,220.618744 506.597443,220.047348 529.054443,220.072632   C556.845398,220.103912 584.635864,220.666458 612.426270,221.018021   C613.389404,221.030182 614.350037,221.241592 616.334839,221.486237   C614.915527,222.301971 614.346008,222.902740 613.749329,222.931091   C605.294800,223.332764 596.839417,223.774979 588.378662,223.974930   C570.756592,224.391357 553.130432,224.634109 535.507446,225.016693   C523.048645,225.287140 510.593903,225.867905 498.134583,225.968216   C446.678192,226.382584 395.220856,226.696396 343.763397,226.950806   C338.807739,226.975311 333.848755,226.333221 328.463776,226.000580  z"/>
<path fill="#516D67" opacity="1.000000" stroke="none" d=" M308.582703,261.914612   C308.177521,261.469574 308.229340,261.073608 308.348450,260.385559   C326.998138,260.400421 345.584747,260.552826 364.161621,261.061554   C380.050232,261.496674 395.927887,262.335815 411.810028,263.004944   C427.526489,263.667114 443.248138,264.234802 458.954346,265.086853   C462.602295,265.284760 466.196747,266.467590 469.904358,267.580688   C427.150116,266.084991 384.310181,264.136566 341.462555,262.374908   C330.667542,261.931061 319.847992,262.084656 308.582703,261.914612  z"/>
<path fill="#5D8980" opacity="1.000000" stroke="none" d=" M621.106750,141.360580   C620.834412,141.636642 620.428833,141.750458 620.015564,141.806961   C619.943787,141.816803 619.838928,141.584366 619.749329,141.463837   C620.156555,141.368851 620.563721,141.273880 621.106750,141.360580  z"/>
<path fill="#FFFFFF" opacity="1.000000" stroke="none" d=" M131.888840,524.224121   C131.711472,524.231506 131.624115,524.092529 131.763153,523.833374   C131.858475,523.810913 131.847794,524.175476 131.888840,524.224121  z"/>
<path fill="#D6D7D7" opacity="1.000000" stroke="none" d=" M669.744751,540.002686   C670.018433,540.365234 670.020264,540.758667 669.913696,541.452515   C669.694519,541.179810 669.583618,540.606689 669.744751,540.002686  z"/>
</svg>