<svg width="18" height="16" viewBox="0 0 18 16" fill="none" xmlns="http://www.w3.org/2000/svg">
<g clip-path="url(#clip0_574_24)">
<path d="M13.2764 7.11816L13.4092 10.2041C13.4289 10.6533 13.2272 11.07 12.8042 11.4541C12.3812 11.8382 11.8032 12.1426 11.0703 12.3672C10.3373 12.5918 9.54291 12.7041 8.68701 12.7041C7.83111 12.7041 7.03669 12.5918 6.30376 12.3672C5.57084 12.1426 4.99286 11.8382 4.56982 11.4541C4.14679 11.07 3.94511 10.6533 3.96479 10.2041L4.0976 7.11816L8.33284 8.88574C8.44106 8.93132 8.55912 8.9541 8.68701 8.9541C8.81491 8.9541 8.93296 8.93132 9.04118 8.88574L13.2764 7.11816ZM17.187 3.9541C17.187 4.10384 17.1329 4.20475 17.0247 4.25684L8.7608 7.69434C8.74112 7.70085 8.71653 7.7041 8.68701 7.7041C8.6575 7.7041 8.6329 7.70085 8.61323 7.69434L3.80246 5.68262C3.59095 5.90397 3.41632 6.26693 3.27859 6.77148C3.14086 7.27604 3.05724 7.8571 3.02772 8.51465C3.33762 8.74902 3.49257 9.10384 3.49257 9.5791C3.49257 10.0283 3.34992 10.3766 3.06462 10.624L3.49257 14.8525C3.50241 14.9437 3.48273 15.0251 3.43354 15.0967C3.38927 15.1683 3.33024 15.2041 3.25646 15.2041H1.83979C1.766 15.2041 1.70698 15.1683 1.66271 15.0967C1.61352 15.0251 1.59384 14.9437 1.60368 14.8525L2.03163 10.624C1.74633 10.3766 1.60368 10.0283 1.60368 9.5791C1.60368 9.10384 1.76355 8.74251 2.08328 8.49512C2.13739 7.14746 2.37842 6.07324 2.80637 5.27246L0.349338 4.25684C0.241121 4.20475 0.187012 4.10384 0.187012 3.9541C0.187012 3.80436 0.241121 3.70345 0.349338 3.65137L8.61323 0.213867C8.6329 0.207357 8.6575 0.204102 8.68701 0.204102C8.71653 0.204102 8.74112 0.207357 8.7608 0.213867L17.0247 3.65137C17.1329 3.70345 17.187 3.80436 17.187 3.9541Z" fill="black"/>
</g>
<defs>
<clipPath id="clip0_574_24">
<rect width="17" height="15" fill="white" transform="translate(0.187012 0.204102)"/>
</clipPath>
</defs>
</svg>
