<svg width="13" height="14" viewBox="0 0 13 14" fill="none" xmlns="http://www.w3.org/2000/svg">
<path opacity="0.3" d="M1.26074 2.33008H11.0798V3.88348H1.26074V2.33008Z" fill="black"/>
<path d="M1.60963 5.03005H10.2999V6.28756H11.5414V2.51503C11.5414 1.82339 10.9827 1.25751 10.2999 1.25751H9.67918V0H8.43771V1.25751H3.47184V0H2.23037V1.25751H1.60963C0.920618 1.25751 0.374371 1.82339 0.374371 2.51503L0.368164 11.3176C0.368164 11.6511 0.498961 11.971 0.731782 12.2068C0.964602 12.4426 1.28037 12.5751 1.60963 12.5751H5.95477V11.3176H1.60963V5.03005ZM1.60963 2.51503H10.2999V3.77254H1.60963V2.51503ZM12.6835 8.97864L12.2428 9.42506L10.9269 8.09209L11.3676 7.64568C11.425 7.58739 11.4932 7.54115 11.5683 7.50959C11.6434 7.47804 11.7239 7.4618 11.8052 7.4618C11.8865 7.4618 11.967 7.47804 12.0421 7.50959C12.1172 7.54115 12.1854 7.58739 12.2428 7.64568L12.6835 8.09209C12.9256 8.33731 12.9256 8.73343 12.6835 8.97864ZM10.4861 8.53851L11.8021 9.87148L8.5122 13.2039H7.19624V11.8709L10.4861 8.53851Z" fill="black"/>
</svg>
