<svg width="1355" height="489" viewBox="0 0 1355 489" fill="none" xmlns="http://www.w3.org/2000/svg">
<path d="M92.276 350.945C90.7447 366.258 82.3228 374.552 67.0103 375.828C59.8645 375.828 53.6119 373.531 48.2525 368.938C43.1484 364.089 40.5963 358.091 40.5963 350.945V170.258C40.8515 163.112 43.5312 157.242 48.6353 152.648C53.7395 147.799 59.8645 145.375 67.0103 145.375H227.792C250.25 146.141 267.221 151.117 278.706 160.305C290.19 169.237 298.484 179.445 303.588 190.93C308.693 202.414 311.245 214.026 311.245 225.766C311.245 238.016 308.693 249.883 303.588 261.367C298.74 272.852 290.445 283.188 278.706 292.375C267.221 301.307 252.547 305.646 234.682 305.391H138.213C131.068 305.391 125.07 302.839 120.221 297.734C115.117 292.885 112.565 286.888 112.565 279.742C112.565 272.596 114.99 266.599 119.838 261.75C124.943 256.646 131.068 254.094 138.213 254.094H236.979C241.828 254.094 245.784 252.562 248.846 249.5C252.164 246.182 254.588 242.482 256.12 238.398C257.651 234.06 258.417 229.721 258.417 225.383C258.417 221.299 257.651 217.216 256.12 213.133C254.588 208.794 252.164 205.094 248.846 202.031C245.784 198.714 241.828 196.927 236.979 196.672H102.229C95.5937 196.927 92.276 200.245 92.276 206.625V350.945Z" fill="black"/>
<path d="M92.276 350.945L96.2561 351.343L96.276 351.145V350.945H92.276ZM67.0103 375.828V379.828H67.1767L67.3425 379.814L67.0103 375.828ZM48.2525 368.938L45.4975 371.837L45.5717 371.908L45.6494 371.975L48.2525 368.938ZM40.5963 170.258L36.5988 170.115L36.5963 170.186V170.258H40.5963ZM48.6353 152.648L51.3112 155.622L51.3513 155.586L51.3903 155.548L48.6353 152.648ZM227.792 145.375L227.928 141.377L227.86 141.375H227.792V145.375ZM278.706 160.305L276.207 163.428L276.228 163.445L276.25 163.462L278.706 160.305ZM303.588 261.367L299.933 259.743L299.918 259.777L299.903 259.811L303.588 261.367ZM278.706 292.375L281.161 295.532L281.171 295.525L278.706 292.375ZM234.682 305.391L234.739 301.391L234.711 301.391H234.682V305.391ZM120.221 297.734L123.121 294.979L123.051 294.905L122.976 294.834L120.221 297.734ZM248.846 249.5L251.675 252.328L248.846 249.5ZM256.12 238.398L259.865 239.803L259.879 239.766L259.892 239.73L256.12 238.398ZM256.12 213.133L252.348 214.464L252.361 214.501L252.374 214.537L256.12 213.133ZM248.846 202.031L245.907 204.744L246.016 204.862L246.133 204.97L248.846 202.031ZM236.979 196.672L237.189 192.677L237.084 192.672H236.979V196.672ZM102.229 196.672V192.672H102.152L102.075 192.675L102.229 196.672ZM88.2958 350.547C87.5947 357.559 85.3713 362.485 82.0044 365.8C78.6382 369.116 73.6859 371.258 66.6782 371.842L67.3425 379.814C75.6472 379.122 82.5622 376.479 87.6179 371.5C92.6729 366.522 95.426 359.644 96.2561 351.343L88.2958 350.547ZM67.0103 371.828C60.8064 371.828 55.4803 369.864 50.8557 365.9L45.6494 371.975C51.7435 377.198 58.9226 379.828 67.0103 379.828V371.828ZM51.0075 366.038C46.7117 361.956 44.5963 357.013 44.5963 350.945H36.5963C36.5963 359.169 39.585 366.221 45.4975 371.837L51.0075 366.038ZM44.5963 350.945V170.258H36.5963V350.945H44.5963ZM44.5937 170.401C44.812 164.288 47.0495 159.457 51.3112 155.622L45.9595 149.675C40.0128 155.027 36.8909 161.936 36.5988 170.115L44.5937 170.401ZM51.3903 155.548C55.7388 151.417 60.8728 149.375 67.0103 149.375V141.375C58.8563 141.375 51.7402 144.182 45.8803 149.748L51.3903 155.548ZM67.0103 149.375H227.792V141.375H67.0103V149.375ZM227.655 149.373C249.681 150.124 265.667 154.996 276.207 163.428L281.204 157.181C268.776 147.238 250.819 142.158 227.928 141.377L227.655 149.373ZM276.25 163.462C287.297 172.054 295.136 181.761 299.933 192.554L307.244 189.305C301.833 177.13 293.083 166.42 281.161 157.147L276.25 163.462ZM299.933 192.554C304.826 203.564 307.245 214.624 307.245 225.766H315.245C315.245 213.428 312.559 201.264 307.244 189.305L299.933 192.554ZM307.245 225.766C307.245 237.441 304.816 248.756 299.933 259.743L307.244 262.992C312.569 251.01 315.245 238.59 315.245 225.766H307.245ZM299.903 259.811C295.366 270.557 287.549 280.375 276.24 289.225L281.171 295.525C293.341 286 302.113 275.146 307.273 262.923L299.903 259.811ZM276.25 289.218C265.635 297.474 251.908 301.636 234.739 301.391L234.625 309.39C253.185 309.655 268.807 305.141 281.161 295.532L276.25 289.218ZM234.682 301.391H138.213V309.391H234.682V301.391ZM138.213 301.391C132.145 301.391 127.202 299.275 123.121 294.979L117.321 300.489C122.938 306.402 129.99 309.391 138.213 309.391V301.391ZM122.976 294.834C118.68 290.753 116.565 285.81 116.565 279.742H108.565C108.565 287.966 111.554 295.018 117.466 300.634L122.976 294.834ZM116.565 279.742C116.565 273.607 118.603 268.643 122.667 264.578L117.01 258.922C111.376 264.555 108.565 271.585 108.565 279.742H116.565ZM122.667 264.578C127.029 260.216 132.141 258.094 138.213 258.094V250.094C129.995 250.094 122.856 253.076 117.01 258.922L122.667 264.578ZM138.213 258.094H236.979V250.094H138.213V258.094ZM236.979 258.094C242.75 258.094 247.769 256.234 251.675 252.328L246.018 246.672C243.798 248.891 240.906 250.094 236.979 250.094V258.094ZM251.675 252.328C255.365 248.638 258.118 244.461 259.865 239.803L252.374 236.994C251.059 240.503 248.963 243.727 246.018 246.672L251.675 252.328ZM259.892 239.73C261.565 234.99 262.417 230.202 262.417 225.383H254.417C254.417 229.241 253.737 233.13 252.348 237.067L259.892 239.73ZM262.417 225.383C262.417 220.788 261.553 216.23 259.865 211.728L252.374 214.537C253.749 218.202 254.417 221.811 254.417 225.383H262.417ZM259.892 211.802C258.148 206.861 255.365 202.605 251.559 199.092L246.133 204.97C248.963 207.583 251.029 210.728 252.348 214.464L259.892 211.802ZM251.785 199.318C247.959 195.172 242.994 192.983 237.189 192.677L236.769 200.666C240.662 200.871 243.609 202.255 245.907 204.744L251.785 199.318ZM236.979 192.672H102.229V200.672H236.979V192.672ZM102.075 192.675C98.1685 192.825 94.5561 193.903 91.9358 196.523C89.2891 199.17 88.276 202.766 88.276 206.625H96.276C96.276 204.104 96.9217 202.851 97.5927 202.18C98.2901 201.483 99.6542 200.774 102.383 200.669L102.075 192.675ZM88.276 206.625V350.945H96.276V206.625H88.276Z" fill="white"/>
<path d="M363.072 226.822C368.996 226.822 374.074 228.832 378.306 232.852C382.538 236.66 384.76 241.527 384.971 247.451V279.507C384.76 288.182 385.289 296.223 386.558 303.628C388.039 310.822 391.425 317.276 396.714 322.989C402.004 328.701 408.669 331.769 416.709 332.193H501.451V248.086C501.451 242.162 503.567 237.295 507.798 233.487C512.242 229.466 517.426 227.456 523.35 227.456C536.045 228.514 543.028 235.391 544.297 248.086V351.553C544.297 368.48 541.97 384.455 537.315 399.478C533.083 412.808 526.101 424.022 516.368 433.12C506.846 442.43 494.68 447.508 479.869 448.355H370.054C364.341 448.143 359.475 446.027 355.455 442.007C351.646 438.198 349.636 433.438 349.424 427.725C349.424 421.8 351.329 416.722 355.137 412.49C359.157 408.259 364.13 406.037 370.054 405.825H469.078C477.118 405.402 483.783 402.334 489.073 396.621C494.362 390.908 497.748 384.243 499.229 376.626C499.441 375.991 499.546 375.357 499.546 374.722H405.918C391.107 373.876 378.835 368.903 369.102 359.805C359.581 350.495 352.704 339.175 348.472 325.845C344.452 312.515 342.336 298.338 342.124 283.316V247.451C342.336 241.739 344.452 236.978 348.472 233.169C352.492 229.149 357.359 227.033 363.072 226.822Z" fill="black"/>
<path d="M363.072 226.822V222.822H362.998L362.924 222.824L363.072 226.822ZM378.306 232.852L375.551 235.752L375.59 235.789L375.63 235.825L378.306 232.852ZM384.971 247.451H388.971V247.38L388.969 247.309L384.971 247.451ZM384.971 279.507L388.97 279.605L388.971 279.556V279.507H384.971ZM386.558 303.628L382.616 304.304L382.627 304.37L382.64 304.435L386.558 303.628ZM416.709 332.193L416.499 336.187L416.604 336.193H416.709V332.193ZM501.451 332.193V336.193H505.451V332.193H501.451ZM507.798 233.487L510.474 236.46L510.482 236.453L507.798 233.487ZM523.35 227.456L523.682 223.47L523.516 223.456H523.35V227.456ZM544.297 248.086H548.297V247.887L548.277 247.688L544.297 248.086ZM537.315 399.478L541.127 400.688L541.132 400.675L541.136 400.662L537.315 399.478ZM516.368 433.12L513.636 430.198L513.603 430.229L513.571 430.26L516.368 433.12ZM479.869 448.355V452.355H479.983L480.097 452.348L479.869 448.355ZM370.054 448.355L369.906 452.352L369.98 452.355H370.054V448.355ZM355.455 442.007L352.626 444.836L355.455 442.007ZM349.424 427.725H345.424V427.799L345.427 427.873L349.424 427.725ZM355.137 412.49L352.237 409.735L352.2 409.775L352.164 409.815L355.137 412.49ZM370.054 405.825V401.825H369.983L369.911 401.828L370.054 405.825ZM469.078 405.825V409.825H469.183L469.288 409.82L469.078 405.825ZM489.073 396.621L492.008 399.339L489.073 396.621ZM499.229 376.626L495.434 375.361L495.352 375.608L495.302 375.863L499.229 376.626ZM499.546 374.722H503.546V370.722H499.546V374.722ZM405.918 374.722L405.69 378.715L405.804 378.722H405.918V374.722ZM369.102 359.805L366.306 362.665L366.338 362.696L366.37 362.727L369.102 359.805ZM348.472 325.845L344.642 327L344.651 327.028L344.66 327.055L348.472 325.845ZM342.124 283.316H338.124V283.344L338.125 283.372L342.124 283.316ZM342.124 247.451L338.127 247.303L338.124 247.377V247.451H342.124ZM348.472 233.169L351.223 236.073L351.262 236.036L351.301 235.998L348.472 233.169ZM363.072 230.822C367.988 230.822 372.075 232.45 375.551 235.752L381.061 229.952C376.074 225.214 370.004 222.822 363.072 222.822V230.822ZM375.63 235.825C379.02 238.875 380.799 242.703 380.974 247.594L388.969 247.309C388.72 240.351 386.056 234.445 380.982 229.879L375.63 235.825ZM380.971 247.451V279.507H388.971V247.451H380.971ZM380.972 279.41C380.755 288.305 381.296 296.607 382.616 304.304L390.501 302.952C389.281 295.838 388.764 288.06 388.97 279.605L380.972 279.41ZM382.64 304.435C384.277 312.387 388.025 319.491 393.779 325.706L399.649 320.271C394.824 315.06 391.801 309.257 390.476 302.822L382.64 304.435ZM393.779 325.706C399.803 332.212 407.458 335.711 416.499 336.187L416.92 328.198C409.88 327.828 404.205 325.191 399.649 320.271L393.779 325.706ZM416.709 336.193H501.451V328.193H416.709V336.193ZM505.451 332.193V248.086H497.451V332.193H505.451ZM505.451 248.086C505.451 243.243 507.123 239.476 510.474 236.46L505.122 230.513C500.01 235.115 497.451 241.08 497.451 248.086H505.451ZM510.482 236.453C514.199 233.09 518.43 231.456 523.35 231.456V223.456C516.421 223.456 510.284 225.843 505.115 230.52L510.482 236.453ZM523.018 231.442C528.717 231.917 532.655 233.651 535.302 236.257C537.949 238.864 539.747 242.781 540.317 248.484L548.277 247.688C547.578 240.696 545.25 234.827 540.915 230.557C536.579 226.287 530.678 224.053 523.682 223.47L523.018 231.442ZM540.297 248.086V351.553H548.297V248.086H540.297ZM540.297 351.553C540.297 368.109 538.022 383.683 533.494 398.294L541.136 400.662C545.918 385.227 548.297 368.851 548.297 351.553H540.297ZM533.502 398.267C529.467 410.977 522.843 421.592 513.636 430.198L519.099 436.042C529.359 426.452 536.699 414.638 541.127 400.688L533.502 398.267ZM513.571 430.26C504.821 438.816 493.605 443.563 479.64 444.361L480.097 452.348C495.755 451.453 508.871 446.044 519.164 435.98L513.571 430.26ZM479.869 444.355H370.054V452.355H479.869V444.355ZM370.202 444.357C365.492 444.183 361.585 442.481 358.283 439.179L352.626 444.836C357.365 449.574 363.19 452.103 369.906 452.352L370.202 444.357ZM358.283 439.179C355.235 436.131 353.598 432.349 353.422 427.577L345.427 427.873C345.673 434.527 348.057 440.266 352.626 444.836L358.283 439.179ZM353.424 427.725C353.424 422.744 354.992 418.632 358.11 415.166L352.164 409.815C347.665 414.813 345.424 420.856 345.424 427.725H353.424ZM358.037 415.245C361.324 411.786 365.3 409.998 370.197 409.823L369.911 401.828C362.959 402.076 356.991 404.732 352.237 409.735L358.037 415.245ZM370.054 409.825H469.078V401.825H370.054V409.825ZM469.288 409.82C478.329 409.344 485.984 405.844 492.008 399.339L486.138 393.904C481.582 398.824 475.907 401.46 468.867 401.831L469.288 409.82ZM492.008 399.339C497.802 393.082 501.532 385.74 503.155 377.39L495.302 375.863C493.964 382.746 490.923 388.735 486.138 393.904L492.008 399.339ZM503.024 377.891C503.364 376.871 503.546 375.809 503.546 374.722H495.546C495.546 374.904 495.517 375.112 495.434 375.361L503.024 377.891ZM499.546 370.722H405.918V378.722H499.546V370.722ZM406.147 370.728C392.156 369.929 380.805 365.269 371.834 356.883L366.37 362.727C376.865 372.537 390.058 377.822 405.69 378.715L406.147 370.728ZM371.898 356.945C362.869 348.117 356.328 337.372 352.285 324.635L344.66 327.055C349.079 340.978 356.292 352.874 366.306 362.665L371.898 356.945ZM352.302 324.69C348.397 311.743 346.331 297.939 346.124 283.259L338.125 283.372C338.341 298.738 340.507 313.286 344.642 327L352.302 324.69ZM346.124 283.316V247.451H338.124V283.316H346.124ZM346.122 247.599C346.296 242.895 347.99 239.136 351.223 236.073L345.721 230.265C340.914 234.82 338.376 240.582 338.127 247.303L346.122 247.599ZM351.301 235.998C354.602 232.696 358.51 230.993 363.22 230.819L362.924 222.824C356.208 223.073 350.382 225.602 345.644 230.341L351.301 235.998Z" fill="white"/>
<path d="M644.372 202.661V323.584C644.372 328.874 647.123 331.624 652.624 331.836H763.708C767.729 331.624 771.22 329.932 774.182 326.758C777.144 323.372 779.26 319.564 780.53 315.332C782.011 310.889 782.751 306.445 782.751 302.002C782.751 297.77 782.011 293.538 780.53 289.307C779.26 284.863 777.144 281.055 774.182 277.881C771.22 274.495 767.729 272.803 763.708 272.803H682.458C676.534 272.803 671.456 270.793 667.224 266.772C663.204 262.541 661.194 257.463 661.194 251.538C661.194 245.614 663.31 240.641 667.541 236.621C671.562 232.389 676.534 230.273 682.458 230.273H762.439C777.25 230.485 789.416 234.717 798.938 242.969C808.671 251.009 815.548 260.213 819.568 270.581C823.799 280.737 825.915 291.317 825.915 302.319C825.915 312.899 823.799 323.372 819.568 333.74C815.336 343.896 808.459 353.101 798.938 361.353C789.416 369.393 775.346 373.73 756.726 374.365H623.425C617.501 374.365 612.423 372.461 608.191 368.652C603.959 364.632 601.737 359.66 601.526 353.735V202.661C601.526 196.737 603.642 191.87 607.873 188.062C612.317 184.041 617.501 182.031 623.425 182.031C636.12 183.089 643.103 189.966 644.372 202.661Z" fill="black"/>
<path d="M644.372 202.661H648.372V202.462L648.353 202.263L644.372 202.661ZM652.624 331.836L652.471 335.833L652.547 335.836H652.624V331.836ZM763.708 331.836V335.836H763.814L763.919 335.83L763.708 331.836ZM774.182 326.758L777.106 329.487L777.15 329.44L777.192 329.392L774.182 326.758ZM780.53 315.332L776.735 314.067L776.716 314.125L776.698 314.183L780.53 315.332ZM780.53 289.307L776.684 290.406L776.716 290.518L776.754 290.628L780.53 289.307ZM774.182 277.881L771.172 280.515L771.214 280.563L771.258 280.61L774.182 277.881ZM667.224 266.772L664.324 269.527L664.395 269.602L664.469 269.672L667.224 266.772ZM667.541 236.621L670.296 239.521L670.371 239.45L670.441 239.376L667.541 236.621ZM762.439 230.273L762.496 226.274L762.467 226.273H762.439V230.273ZM798.938 242.969L796.318 245.992L796.354 246.022L796.39 246.053L798.938 242.969ZM819.568 270.581L815.838 272.027L815.856 272.074L815.875 272.12L819.568 270.581ZM819.568 333.74L823.26 335.279L823.266 335.265L823.271 335.252L819.568 333.74ZM798.938 361.353L801.519 364.409L801.538 364.392L801.558 364.375L798.938 361.353ZM756.726 374.365V378.365H756.794L756.862 378.363L756.726 374.365ZM608.191 368.652L605.436 371.552L605.475 371.589L605.515 371.626L608.191 368.652ZM601.526 353.735H597.526V353.807L597.528 353.878L601.526 353.735ZM607.873 188.062L610.549 191.035L610.557 191.028L607.873 188.062ZM623.425 182.031L623.757 178.045L623.592 178.031H623.425V182.031ZM640.372 202.661V323.584H648.372V202.661H640.372ZM640.372 323.584C640.372 326.898 641.244 330.08 643.607 332.443C645.944 334.779 649.131 335.705 652.471 335.833L652.778 327.839C650.617 327.756 649.678 327.2 649.264 326.786C648.876 326.398 648.372 325.56 648.372 323.584H640.372ZM652.624 335.836H763.708V327.836H652.624V335.836ZM763.919 335.83C769.059 335.56 773.498 333.353 777.106 329.487L771.258 324.029C768.941 326.51 766.398 327.689 763.498 327.841L763.919 335.83ZM777.192 329.392C780.524 325.584 782.924 321.271 784.361 316.481L776.698 314.183C775.596 317.856 773.764 321.161 771.172 324.124L777.192 329.392ZM784.324 316.597C785.934 311.768 786.751 306.898 786.751 302.002H778.751C778.751 305.993 778.087 310.009 776.735 314.067L784.324 316.597ZM786.751 302.002C786.751 297.294 785.926 292.616 784.305 287.985L776.754 290.628C778.096 294.461 778.751 298.246 778.751 302.002H786.751ZM784.376 288.208C782.944 283.196 780.528 278.818 777.106 275.152L771.258 280.61C773.76 283.291 775.576 286.531 776.684 290.406L784.376 288.208ZM777.192 275.247C773.571 271.109 769.027 268.803 763.708 268.803V276.803C766.43 276.803 768.868 277.882 771.172 280.515L777.192 275.247ZM763.708 268.803H682.458V276.803H763.708V268.803ZM682.458 268.803C677.542 268.803 673.455 267.175 669.979 263.872L664.469 269.672C669.456 274.411 675.526 276.803 682.458 276.803V268.803ZM670.124 264.017C666.822 260.541 665.194 256.454 665.194 251.538H657.194C657.194 258.471 659.586 264.54 664.324 269.527L670.124 264.017ZM665.194 251.538C665.194 246.691 666.873 242.773 670.296 239.521L664.786 233.721C659.746 238.509 657.194 244.536 657.194 251.538H665.194ZM670.441 239.376C673.694 235.953 677.612 234.273 682.458 234.273V226.273C675.456 226.273 669.429 228.826 664.641 233.866L670.441 239.376ZM682.458 234.273H762.439V226.273H682.458V234.273ZM762.382 234.273C776.424 234.474 787.63 238.462 796.318 245.992L801.558 239.946C791.202 230.972 778.076 226.496 762.496 226.274L762.382 234.273ZM796.39 246.053C805.668 253.717 812.097 262.38 815.838 272.027L823.297 269.135C818.998 258.047 811.674 248.301 801.485 239.885L796.39 246.053ZM815.875 272.12C819.904 281.788 821.915 291.845 821.915 302.319H829.915C829.915 290.789 827.695 279.686 823.26 269.043L815.875 272.12ZM821.915 302.319C821.915 312.351 819.912 322.312 815.864 332.229L823.271 335.252C827.687 324.433 829.915 313.447 829.915 302.319H821.915ZM815.875 332.202C811.914 341.709 805.44 350.424 796.318 358.33L801.558 364.375C811.478 355.777 818.758 346.084 823.26 335.279L815.875 332.202ZM796.357 358.296C787.788 365.532 774.737 369.749 756.59 370.368L756.862 378.363C775.954 377.712 791.045 373.253 801.519 364.409L796.357 358.296ZM756.726 370.365H623.425V378.365H756.726V370.365ZM623.425 370.365C618.445 370.365 614.332 368.798 610.867 365.679L605.515 371.626C610.513 376.124 616.557 378.365 623.425 378.365V370.365ZM610.946 365.752C607.486 362.466 605.698 358.489 605.523 353.593L597.528 353.878C597.777 360.831 600.432 366.799 605.436 371.552L610.946 365.752ZM605.526 353.735V202.661H597.526V353.735H605.526ZM605.526 202.661C605.526 197.818 607.198 194.05 610.549 191.035L605.198 185.088C600.085 189.69 597.526 195.655 597.526 202.661H605.526ZM610.557 191.028C614.274 187.664 618.505 186.031 623.425 186.031V178.031C616.496 178.031 610.359 180.418 605.19 185.095L610.557 191.028ZM623.093 186.017C628.792 186.492 632.73 188.226 635.377 190.832C638.024 193.439 639.822 197.356 640.392 203.059L648.353 202.263C647.653 195.271 645.325 189.402 640.99 185.132C636.654 180.862 630.753 178.628 623.757 178.045L623.093 186.017Z" fill="white"/>
<path d="M924.022 374.365C905.402 373.73 891.331 369.393 881.81 361.353C872.288 353.101 865.412 343.896 861.18 333.74C856.948 323.372 854.832 312.899 854.832 302.319C854.832 291.317 856.842 280.737 860.862 270.581C865.094 260.213 871.971 251.009 881.492 242.969C891.225 234.717 903.498 230.485 918.309 230.273H1021.14C1035.95 230.485 1048.12 234.717 1057.64 242.969C1067.37 251.009 1074.25 260.213 1078.27 270.581C1082.5 280.737 1084.62 291.317 1084.62 302.319C1084.62 312.899 1082.5 323.372 1078.27 333.74C1074.04 343.896 1067.16 353.101 1057.64 361.353C1048.12 369.393 1034.05 373.73 1015.43 374.365H924.022ZM917.039 272.803C913.019 272.803 909.528 274.495 906.566 277.881C903.603 281.055 901.382 284.863 899.901 289.307C898.631 293.538 897.996 297.77 897.996 302.002C897.996 306.445 898.631 310.889 899.901 315.332C901.382 319.564 903.603 323.372 906.566 326.758C909.528 329.932 913.019 331.624 917.039 331.836H1022.41C1026.43 331.624 1029.92 329.932 1032.88 326.758C1035.85 323.372 1037.96 319.564 1039.23 315.332C1040.71 310.889 1041.45 306.445 1041.45 302.002C1041.45 297.77 1040.71 293.538 1039.23 289.307C1037.96 284.863 1035.85 281.055 1032.88 277.881C1029.92 274.495 1026.43 272.803 1022.41 272.803H917.039Z" fill="black"/>
<path d="M924.022 374.365L923.885 378.363L923.953 378.365H924.022V374.365ZM881.81 361.353L879.19 364.375L879.209 364.392L879.229 364.409L881.81 361.353ZM861.18 333.74L857.476 335.252L857.482 335.265L857.488 335.279L861.18 333.74ZM860.862 270.581L857.159 269.069L857.151 269.089L857.143 269.109L860.862 270.581ZM881.492 242.969L884.073 246.025L884.079 246.02L881.492 242.969ZM918.309 230.273V226.273H918.28L918.252 226.274L918.309 230.273ZM1021.14 230.273L1021.2 226.274L1021.17 226.273H1021.14V230.273ZM1057.64 242.969L1055.02 245.992L1055.06 246.022L1055.09 246.053L1057.64 242.969ZM1078.27 270.581L1074.54 272.027L1074.56 272.074L1074.58 272.12L1078.27 270.581ZM1078.27 333.74L1081.96 335.279L1081.97 335.265L1081.97 335.252L1078.27 333.74ZM1057.64 361.353L1060.22 364.409L1060.24 364.392L1060.26 364.375L1057.64 361.353ZM1015.43 374.365V378.365H1015.5L1015.56 378.363L1015.43 374.365ZM906.566 277.881L909.49 280.61L909.534 280.563L909.576 280.515L906.566 277.881ZM899.901 289.307L896.106 288.042L896.087 288.099L896.069 288.157L899.901 289.307ZM899.901 315.332L896.054 316.431L896.087 316.543L896.125 316.653L899.901 315.332ZM906.566 326.758L903.555 329.392L903.598 329.44L903.641 329.487L906.566 326.758ZM917.039 331.836L916.829 335.83L916.934 335.836H917.039V331.836ZM1022.41 331.836V335.836H1022.52L1022.62 335.83L1022.41 331.836ZM1032.88 326.758L1035.81 329.487L1035.85 329.44L1035.89 329.392L1032.88 326.758ZM1039.23 315.332L1035.44 314.067L1035.42 314.125L1035.4 314.183L1039.23 315.332ZM1039.23 289.307L1035.39 290.406L1035.42 290.518L1035.46 290.628L1039.23 289.307ZM1032.88 277.881L1029.87 280.515L1029.92 280.563L1029.96 280.61L1032.88 277.881ZM924.158 370.368C906.01 369.749 892.959 365.532 884.39 358.296L879.229 364.409C889.703 373.253 904.793 377.712 923.885 378.363L924.158 370.368ZM884.429 358.33C875.307 350.424 868.834 341.709 864.872 332.202L857.488 335.279C861.99 346.084 869.269 355.777 879.19 364.375L884.429 358.33ZM864.883 332.229C860.836 322.312 858.832 312.351 858.832 302.319H850.832C850.832 313.447 853.06 324.433 857.476 335.252L864.883 332.229ZM858.832 302.319C858.832 291.817 860.748 281.737 864.582 272.053L857.143 269.109C852.936 279.737 850.832 290.816 850.832 302.319H858.832ZM864.566 272.093C868.527 262.388 874.988 253.696 884.073 246.025L878.912 239.913C868.953 248.322 861.661 258.039 857.159 269.069L864.566 272.093ZM884.079 246.02C892.993 238.462 904.326 234.474 918.366 234.273L918.252 226.274C902.67 226.496 889.457 230.972 878.906 239.918L884.079 246.02ZM918.309 234.273H1021.14V226.273H918.309V234.273ZM1021.08 234.273C1035.13 234.474 1046.33 238.462 1055.02 245.992L1060.26 239.946C1049.9 230.972 1036.78 226.496 1021.2 226.274L1021.08 234.273ZM1055.09 246.053C1064.37 253.717 1070.8 262.38 1074.54 272.027L1082 269.135C1077.7 258.047 1070.38 248.301 1060.19 239.885L1055.09 246.053ZM1074.58 272.12C1078.61 281.788 1080.62 291.845 1080.62 302.319H1088.62C1088.62 290.789 1086.4 279.686 1081.96 269.043L1074.58 272.12ZM1080.62 302.319C1080.62 312.351 1078.61 322.312 1074.57 332.229L1081.97 335.252C1086.39 324.433 1088.62 313.447 1088.62 302.319H1080.62ZM1074.58 332.202C1070.62 341.709 1064.14 350.424 1055.02 358.33L1060.26 364.375C1070.18 355.777 1077.46 346.084 1081.96 335.279L1074.58 332.202ZM1055.06 358.296C1046.49 365.532 1033.44 369.749 1015.29 370.368L1015.56 378.363C1034.66 377.712 1049.75 373.253 1060.22 364.409L1055.06 358.296ZM1015.43 370.365H924.022V378.365H1015.43V370.365ZM917.039 268.803C911.721 268.803 907.176 271.109 903.555 275.247L909.576 280.515C911.88 277.882 914.317 276.803 917.039 276.803V268.803ZM903.641 275.152C900.257 278.778 897.754 283.097 896.106 288.042L903.695 290.572C905.009 286.63 906.95 283.332 909.49 280.61L903.641 275.152ZM896.069 288.157C894.693 292.745 893.996 297.364 893.996 302.002H901.996C901.996 298.176 902.569 294.331 903.732 290.456L896.069 288.157ZM893.996 302.002C893.996 306.832 894.687 311.645 896.054 316.431L903.747 314.233C902.575 310.133 901.996 306.059 901.996 302.002H893.996ZM896.125 316.653C897.776 321.369 900.258 325.623 903.555 329.392L909.576 324.124C906.949 321.122 904.988 317.758 903.676 314.011L896.125 316.653ZM903.641 329.487C907.249 333.353 911.689 335.56 916.829 335.83L917.249 327.841C914.349 327.689 911.806 326.51 909.49 324.029L903.641 329.487ZM917.039 335.836H1022.41V327.836H917.039V335.836ZM1022.62 335.83C1027.76 335.56 1032.2 333.353 1035.81 329.487L1029.96 324.029C1027.64 326.51 1025.1 327.689 1022.2 327.841L1022.62 335.83ZM1035.89 329.392C1039.23 325.584 1041.63 321.271 1043.06 316.481L1035.4 314.183C1034.3 317.856 1032.47 321.161 1029.87 324.124L1035.89 329.392ZM1043.03 316.597C1044.64 311.768 1045.45 306.898 1045.45 302.002H1037.45C1037.45 305.993 1036.79 310.009 1035.44 314.067L1043.03 316.597ZM1045.45 302.002C1045.45 297.294 1044.63 292.616 1043.01 287.985L1035.46 290.628C1036.8 294.461 1037.45 298.246 1037.45 302.002H1045.45ZM1043.08 288.208C1041.65 283.196 1039.23 278.818 1035.81 275.152L1029.96 280.61C1032.46 283.291 1034.28 286.531 1035.39 290.406L1043.08 288.208ZM1035.89 275.247C1032.27 271.109 1027.73 268.803 1022.41 268.803V276.803C1025.13 276.803 1027.57 277.882 1029.87 280.515L1035.89 275.247ZM1022.41 268.803H917.039V276.803H1022.41V268.803Z" fill="white"/>
<path d="M1179.34 182.031C1185.27 182.031 1190.35 184.041 1194.58 188.062C1198.81 191.87 1201.03 196.737 1201.24 202.661V230.273H1309.15C1315.08 230.273 1320.16 232.284 1324.39 236.304C1328.41 240.535 1330.42 245.614 1330.42 251.538C1330.42 257.463 1328.3 262.541 1324.07 266.772C1320.05 270.793 1315.08 272.803 1309.15 272.803H1201.24V279.15C1201.03 287.826 1201.56 295.866 1202.83 303.271C1204.31 310.465 1207.7 316.919 1212.99 322.632C1218.28 328.345 1224.94 331.413 1232.98 331.836H1310.42C1316.35 332.048 1321.21 334.269 1325.02 338.501C1329.04 342.733 1331.05 347.811 1331.05 353.735C1330.84 359.448 1328.73 364.315 1324.71 368.335C1320.9 372.144 1316.14 374.154 1310.42 374.365H1222.19C1207.38 373.519 1195.11 368.547 1185.37 359.448C1175.85 350.138 1168.98 338.818 1164.75 325.488C1160.72 312.158 1158.61 297.982 1158.4 282.959V272.803H1121.9C1115.97 272.803 1111 270.687 1106.98 266.455C1102.75 262.435 1100.63 257.463 1100.63 251.538C1100.63 245.614 1102.64 240.641 1106.66 236.621C1110.9 232.389 1115.97 230.273 1121.9 230.273H1158.4V202.661C1158.61 196.948 1160.72 192.188 1164.75 188.379C1168.77 184.359 1173.63 182.243 1179.34 182.031Z" fill="black"/>
<path d="M1179.34 182.031V178.031H1179.27L1179.2 178.034L1179.34 182.031ZM1194.58 188.062L1191.82 190.962L1191.86 190.999L1191.9 191.035L1194.58 188.062ZM1201.24 202.661H1205.24V202.59L1205.24 202.518L1201.24 202.661ZM1201.24 230.273H1197.24V234.273H1201.24V230.273ZM1324.39 236.304L1327.29 233.549L1327.22 233.474L1327.14 233.404L1324.39 236.304ZM1324.07 266.772L1321.24 263.944L1324.07 266.772ZM1201.24 272.803V268.803H1197.24V272.803H1201.24ZM1201.24 279.15L1205.24 279.248L1205.24 279.199V279.15H1201.24ZM1202.83 303.271L1198.89 303.947L1198.9 304.013L1198.91 304.078L1202.83 303.271ZM1232.98 331.836L1232.77 335.83L1232.88 335.836H1232.98V331.836ZM1310.42 331.836L1310.57 327.838L1310.5 327.836H1310.42V331.836ZM1325.02 338.501L1322.05 341.177L1322.09 341.217L1322.12 341.256L1325.02 338.501ZM1331.05 353.735L1335.05 353.883L1335.05 353.809V353.735H1331.05ZM1324.71 368.335L1327.53 371.163L1324.71 368.335ZM1310.42 374.365V378.365H1310.5L1310.57 378.362L1310.42 374.365ZM1222.19 374.365L1221.96 378.359L1222.08 378.365H1222.19V374.365ZM1185.37 359.448L1182.58 362.308L1182.61 362.34L1182.64 362.37L1185.37 359.448ZM1164.75 325.488L1160.92 326.643L1160.92 326.671L1160.93 326.699L1164.75 325.488ZM1158.4 282.959H1154.4V282.987L1154.4 283.015L1158.4 282.959ZM1158.4 272.803H1162.4V268.803H1158.4V272.803ZM1106.98 266.455L1109.88 263.7L1109.81 263.626L1109.74 263.555L1106.98 266.455ZM1106.66 236.621L1103.84 233.793L1106.66 236.621ZM1158.4 230.273V234.273H1162.4V230.273H1158.4ZM1158.4 202.661L1154.4 202.513L1154.4 202.587V202.661H1158.4ZM1164.75 188.379L1167.5 191.283L1167.54 191.246L1167.57 191.207L1164.75 188.379ZM1179.34 186.031C1184.26 186.031 1188.35 187.659 1191.82 190.962L1197.33 185.162C1192.35 180.423 1186.28 178.031 1179.34 178.031V186.031ZM1191.9 191.035C1195.29 194.085 1197.07 197.913 1197.25 202.804L1205.24 202.518C1204.99 195.56 1202.33 189.655 1197.25 185.088L1191.9 191.035ZM1197.24 202.661V230.273H1205.24V202.661H1197.24ZM1201.24 234.273H1309.15V226.273H1201.24V234.273ZM1309.15 234.273C1314.07 234.273 1318.16 235.901 1321.63 239.204L1327.14 233.404C1322.16 228.666 1316.09 226.273 1309.15 226.273V234.273ZM1321.49 239.059C1324.79 242.535 1326.42 246.622 1326.42 251.538H1334.42C1334.42 244.605 1332.03 238.536 1327.29 233.549L1321.49 239.059ZM1326.42 251.538C1326.42 256.39 1324.73 260.454 1321.24 263.944L1326.9 269.601C1331.87 264.628 1334.42 258.535 1334.42 251.538H1326.42ZM1321.24 263.944C1318.01 267.18 1314.07 268.803 1309.15 268.803V276.803C1316.09 276.803 1322.09 274.406 1326.9 269.601L1321.24 263.944ZM1309.15 268.803H1201.24V276.803H1309.15V268.803ZM1197.24 272.803V279.15H1205.24V272.803H1197.24ZM1197.25 279.053C1197.03 287.948 1197.57 296.251 1198.89 303.947L1206.77 302.596C1205.55 295.481 1205.04 287.703 1205.24 279.248L1197.25 279.053ZM1198.91 304.078C1200.55 312.03 1204.3 319.135 1210.05 325.349L1215.92 319.914C1211.1 314.703 1208.07 308.901 1206.75 302.465L1198.91 304.078ZM1210.05 325.349C1216.08 331.855 1223.73 335.355 1232.77 335.83L1233.19 327.841C1226.15 327.471 1220.48 324.835 1215.92 319.914L1210.05 325.349ZM1232.98 335.836H1310.42V327.836H1232.98V335.836ZM1310.28 335.833C1315.17 336.008 1319 337.788 1322.05 341.177L1328 335.825C1323.43 330.751 1317.52 328.087 1310.57 327.838L1310.28 335.833ZM1322.12 341.256C1325.43 344.732 1327.05 348.819 1327.05 353.735H1335.05C1335.05 346.803 1332.66 340.733 1327.92 335.746L1322.12 341.256ZM1327.06 353.587C1326.88 358.297 1325.18 362.205 1321.88 365.507L1327.53 371.163C1332.27 366.425 1334.8 360.599 1335.05 353.883L1327.06 353.587ZM1321.88 365.507C1318.83 368.555 1315.05 370.191 1310.28 370.368L1310.57 378.362C1317.23 378.116 1322.97 375.733 1327.53 371.163L1321.88 365.507ZM1310.42 370.365H1222.19V378.365H1310.42V370.365ZM1222.42 370.372C1208.43 369.572 1197.08 364.912 1188.11 356.526L1182.64 362.37C1193.14 372.181 1206.33 377.465 1221.96 378.359L1222.42 370.372ZM1188.17 356.588C1179.14 347.76 1172.6 337.016 1168.56 324.278L1160.93 326.699C1165.35 340.621 1172.56 352.517 1182.58 362.308L1188.17 356.588ZM1168.57 324.333C1164.67 311.387 1162.6 297.582 1162.4 282.903L1154.4 283.015C1154.61 298.381 1156.78 312.93 1160.92 326.643L1168.57 324.333ZM1162.4 282.959V272.803H1154.4V282.959H1162.4ZM1158.4 268.803H1121.9V276.803H1158.4V268.803ZM1121.9 268.803C1117.05 268.803 1113.13 267.124 1109.88 263.7L1104.08 269.21C1108.87 274.25 1114.9 276.803 1121.9 276.803V268.803ZM1109.74 263.555C1106.31 260.303 1104.63 256.385 1104.63 251.538H1096.63C1096.63 258.54 1099.19 264.567 1104.23 269.355L1109.74 263.555ZM1104.63 251.538C1104.63 246.625 1106.26 242.685 1109.49 239.45L1103.84 233.793C1099.03 238.597 1096.63 244.602 1096.63 251.538H1104.63ZM1109.49 239.45C1112.98 235.959 1117.05 234.273 1121.9 234.273V226.273C1114.9 226.273 1108.81 228.819 1103.84 233.793L1109.49 239.45ZM1121.9 234.273H1158.4V226.273H1121.9V234.273ZM1162.4 230.273V202.661H1154.4V230.273H1162.4ZM1162.39 202.809C1162.57 198.105 1164.26 194.346 1167.5 191.283L1161.99 185.475C1157.19 190.029 1154.65 195.792 1154.4 202.513L1162.39 202.809ZM1167.57 191.207C1170.88 187.905 1174.78 186.203 1179.49 186.029L1179.2 178.034C1172.48 178.283 1166.66 180.812 1161.92 185.55L1167.57 191.207Z" fill="white"/>
</svg>
