<svg width="694" height="621" viewBox="0 0 694 621" fill="none" xmlns="http://www.w3.org/2000/svg">
<path d="M553.857 571.13L469.116 503.642H384.641C352.07 503.642 324.009 482.301 324.009 454.642V340.892C324.009 313.233 352.07 291.892 384.641 291.892H477.854V295.392C477.854 291.892 477.855 291.892 477.855 291.892H477.859H477.872L477.923 291.892L478.127 291.892L478.928 291.892L482.004 291.892L493.29 291.892L530.291 291.892C559.046 291.892 592.875 291.892 613.17 291.892C644.688 291.892 673.803 311.479 673.803 340.892L673.803 454.642C673.803 482.301 645.741 503.642 613.17 503.642H559.538V568.392V575.654L553.857 571.13Z" fill="#F8F8F8" stroke="#A4A4A4" stroke-width="7"/>
<path d="M467.076 508.685H380.051C345.814 508.685 315.862 486.017 315.862 456.138V337.271C315.862 307.392 345.814 284.724 380.051 284.724H476.622V289.148C476.622 284.724 476.622 284.724 476.623 284.724H476.626H476.639L476.693 284.724L476.904 284.724L477.734 284.724L480.921 284.724L492.613 284.724L530.947 284.724C560.737 284.724 595.785 284.724 616.81 284.724C649.907 284.724 681 305.519 681 337.271L681 456.138C681 486.017 651.048 508.685 616.81 508.685H562.62V575.005V585.435L554.489 578.903L467.076 508.685Z" stroke="#505050" stroke-width="10"/>
<g filter="url(#filter0_d_835_80)">
<path d="M327.509 256.504C327.509 282.308 304.719 303.421 276.865 303.421H200.9L124.934 373.797V303.421H74.2906C46.4366 303.421 23.647 282.308 23.647 256.504V139.211C23.647 113.407 46.4366 92.2942 74.2906 92.2942H276.865C304.719 92.2942 327.509 113.407 327.509 139.211V256.504Z" fill="#F8F8F8"/>
<path d="M121.434 306.921H74.2906C44.7603 306.921 20.147 284.488 20.147 256.504V139.211C20.147 111.227 44.7603 88.7942 74.2906 88.7942H276.865C306.395 88.7942 331.009 111.227 331.009 139.211V256.504C331.009 284.488 306.395 306.921 276.865 306.921H202.272L127.313 376.364L121.434 381.81V373.797V306.921Z" stroke="#A4A4A4" stroke-width="7"/>
</g>
<g filter="url(#filter1_d_835_80)">
<path d="M119.535 309.755H70.0175C39.2032 309.755 13.5 286.492 13.5 257.449V135.433C13.5 106.389 39.2032 83.1265 70.0175 83.1265H282.088C312.902 83.1265 338.605 106.389 338.605 135.433V257.449C338.605 286.492 312.902 309.755 282.088 309.755H203.927L125.406 382.04L119.535 387.444V379.465V309.755Z" stroke="#505050" stroke-width="7" shape-rendering="crispEdges"/>
</g>
<path d="M63 145H54V163H63V145ZM300 163C304.971 163 309 158.971 309 154C309 149.029 304.971 145 300 145V163ZM63 163H300V145H63V163Z" fill="#000004"/>
<path d="M60 189.5H49.5V210.5H60V189.5ZM283 210.5C288.799 210.5 293.5 205.799 293.5 200C293.5 194.201 288.799 189.5 283 189.5V210.5ZM60 210.5H283V189.5H60V210.5Z" fill="#000004"/>
<path d="M340.685 211.669H534.594C534.594 211.669 546.942 179.26 547.868 170.137C548.794 161.014 544.549 147.012 544.549 147.012C544.549 147.012 510.219 96.5606 481.973 74.3308L481.754 74.1589C455.126 53.202 441.998 42.8702 408.967 34.687C367.273 24.3576 335.078 27.8984 296.614 46.9577C259.345 65.4244 238.411 85.6595 218.393 121.998C194.095 166.107 193.627 203.085 201.801 252.729C209.301 298.286 219.799 318.778 239.235 356.062C258.672 393.346 258.823 385.58 263.413 425.439C266.153 449.241 257.579 449.887 244.94 470.274C235.417 485.637 198.5 493 198.5 493H136.5C136.5 493 153.328 530.717 168.125 539.651C188.165 551.751 209.163 567.807 226.91 575.992C252.492 587.791 310.361 597.23 334.522 588.734C357.085 580.801 390.936 562.305 415.113 543.427C434.43 528.345 441.809 497.905 446.402 471.219C451.153 443.608 452.72 419.769 449.246 406.089C439.319 366.999 370.094 322.577 370.094 322.577C370.094 322.577 320.317 288.597 300.88 252.729C296.087 243.884 289.537 220.486 296.614 211.669C307.628 197.944 340.685 211.669 340.685 211.669Z" fill="#52A571"/>
<path d="M340.685 211.669H534.594C534.594 211.669 546.942 179.26 547.868 170.137C548.794 161.014 544.549 147.012 544.549 147.012C544.549 147.012 510.219 96.5606 481.973 74.3308L481.754 74.1589C455.126 53.202 441.998 42.8702 408.967 34.687C367.273 24.3576 335.078 27.8984 296.614 46.9577C259.345 65.4244 238.411 85.6595 218.393 121.998C194.095 166.107 193.627 203.085 201.801 252.729C209.301 298.286 219.799 318.778 239.235 356.062C258.672 393.346 258.823 385.58 263.413 425.439C266.153 449.241 257.579 449.887 244.94 470.274C235.417 485.637 198.5 493 198.5 493H136.5C136.5 493 153.328 530.717 168.125 539.651C188.165 551.751 209.163 567.807 226.91 575.992C252.492 587.791 310.361 597.23 334.522 588.734C357.085 580.801 390.936 562.305 415.113 543.427C434.43 528.345 441.809 497.905 446.402 471.219C451.153 443.608 452.72 419.769 449.246 406.089C439.319 366.999 370.094 322.577 370.094 322.577C370.094 322.577 320.317 288.597 300.88 252.729C296.087 243.884 289.537 220.486 296.614 211.669C307.628 197.944 340.685 211.669 340.685 211.669Z" stroke="black" stroke-width="20"/>
<path d="M340.685 211.669H534.594C534.594 211.669 546.942 179.26 547.868 170.137C548.794 161.014 544.549 147.012 544.549 147.012C544.549 147.012 510.219 96.5606 481.973 74.3308L481.754 74.1589C455.126 53.202 441.998 42.8702 408.967 34.687C367.273 24.3576 335.078 27.8984 296.614 46.9577C259.345 65.4244 238.411 85.6595 218.393 121.998C194.095 166.107 193.627 203.085 201.801 252.729C209.301 298.286 219.799 318.778 239.235 356.062C258.672 393.346 258.823 385.58 263.413 425.439C266.153 449.241 257.579 449.887 244.94 470.274C235.417 485.637 198.5 493 198.5 493H136.5C136.5 493 153.328 530.717 168.125 539.651C188.165 551.751 209.163 567.807 226.91 575.992C252.492 587.791 310.361 597.23 334.522 588.734C357.085 580.801 390.936 562.305 415.113 543.427C434.43 528.345 441.809 497.905 446.402 471.219C451.153 443.608 452.72 419.769 449.246 406.089C439.319 366.999 370.094 322.577 370.094 322.577C370.094 322.577 320.317 288.597 300.88 252.729C296.087 243.884 289.537 220.486 296.614 211.669C307.628 197.944 340.685 211.669 340.685 211.669Z" stroke="#2E2E2E" stroke-opacity="0.35" stroke-width="20"/>
<path d="M363.124 114.562C364.669 95.9115 378.639 86.1229 393.294 86.0011C408.079 85.8783 422.322 95.7454 423.877 114.562C425.572 135.067 409.405 150.139 393.294 149.999C377.302 149.86 361.437 134.914 363.124 114.562Z" fill="black" stroke="#202020" stroke-width="3"/>
<path d="M471 266V209H514V230.85L495.571 252.225L471 266Z" fill="black" stroke="#101010" stroke-width="3"/>
<g filter="url(#filter2_d_835_80)">
<path d="M347.026 211.94H538.181C538.181 211.94 558.857 169.144 559.857 159.603C560.857 150.061 556.272 135.418 556.272 135.418C556.272 135.418 519.185 82.6556 488.672 59.4075L488.436 59.2277C459.669 37.3107 445.487 26.5056 409.804 17.9475C364.762 7.14489 329.983 10.8479 288.429 30.7803C248.168 50.093 225.553 71.2551 203.928 109.258C177.679 155.388 177.174 194.06 186.004 245.978C194.107 293.623 203.651 307.186 224.648 346.178C245.646 385.17 257.163 381.538 262.121 423.224C265.081 448.116 253.781 465.996 232.607 479.944C210.314 494.63 193.343 492.739 193.343 492.739H135C135 492.739 155.149 544.598 171.134 553.942C192.782 566.596 212.619 572.515 232.607 579.114C262.346 588.932 312.861 597.07 338.962 588.186C363.336 579.889 398.419 557.511 417.701 540.919C446.38 516.24 457.322 431.537 450.43 405.262C439.706 364.381 367.809 319.026 367.809 319.026C367.809 319.026 325.764 295.773 304.767 258.262C299.589 249.011 297.122 221.161 304.767 211.94C316.666 197.587 347.026 211.94 347.026 211.94Z" stroke="black" stroke-width="20" shape-rendering="crispEdges"/>
<path d="M347.026 211.94H538.181C538.181 211.94 558.857 169.144 559.857 159.603C560.857 150.061 556.272 135.418 556.272 135.418C556.272 135.418 519.185 82.6556 488.672 59.4075L488.436 59.2277C459.669 37.3107 445.487 26.5056 409.804 17.9475C364.762 7.14489 329.983 10.8479 288.429 30.7803C248.168 50.093 225.553 71.2551 203.928 109.258C177.679 155.388 177.174 194.06 186.004 245.978C194.107 293.623 203.651 307.186 224.648 346.178C245.646 385.17 257.163 381.538 262.121 423.224C265.081 448.116 253.781 465.996 232.607 479.944C210.314 494.63 193.343 492.739 193.343 492.739H135C135 492.739 155.149 544.598 171.134 553.942C192.782 566.596 212.619 572.515 232.607 579.114C262.346 588.932 312.861 597.07 338.962 588.186C363.336 579.889 398.419 557.511 417.701 540.919C446.38 516.24 457.322 431.537 450.43 405.262C439.706 364.381 367.809 319.026 367.809 319.026C367.809 319.026 325.764 295.773 304.767 258.262C299.589 249.011 297.122 221.161 304.767 211.94C316.666 197.587 347.026 211.94 347.026 211.94Z" stroke="#000004" stroke-width="20" shape-rendering="crispEdges"/>
</g>
<path d="M523 151C523 154.81 519.7 158 515.5 158C511.3 158 508 154.81 508 151C508 147.19 511.3 144 515.5 144C519.7 144 523 147.19 523 151Z" fill="black" stroke="#202020" stroke-width="2"/>
<path d="M496 111C496 111 452.446 60.9061 418.522 48.7321C382.582 35.8349 320 48.732 320 48.732" stroke="#CFFFE1" stroke-width="19" stroke-linecap="round"/>
<path d="M290.18 85.2811C290.18 85.2811 254.721 105.853 240.802 122.122C221.81 144.321 210.416 187.302 210.416 187.302" stroke="#CFFFE1" stroke-width="20" stroke-linecap="round"/>
<path d="M291.425 288.281H282.425V306.281H291.425V288.281ZM329.408 306.281C334.378 306.281 338.408 302.251 338.408 297.281C338.408 292.31 334.378 288.281 329.408 288.281V306.281ZM291.425 306.281H329.408V288.281H291.425V306.281Z" fill="#000004"/>
<path d="M314.215 342.623H611.185" stroke="#000004" stroke-width="18" stroke-linecap="square"/>
<path d="M338.903 389.855H627.961" stroke="#000004" stroke-width="18" stroke-linecap="square"/>
<path d="M363.592 428.087H354.592V446.087H363.592V428.087ZM440.507 446.087C445.478 446.087 449.507 442.058 449.507 437.087C449.507 432.117 445.478 428.087 440.507 428.087V446.087ZM363.592 446.087H440.507V428.087H363.592V446.087Z" fill="#000004"/>
<path d="M358.844 472.875H348.344V493.875H358.844V472.875ZM432.911 493.875C438.71 493.875 443.411 489.174 443.411 483.375C443.411 477.576 438.71 472.875 432.911 472.875V493.875ZM358.844 493.875H432.911V472.875H358.844V493.875Z" fill="#000004"/>
<path d="M368.326 215.178H339.967C326.911 207.345 324.143 211.022 312.5 210C312.5 210 296.66 214 296.66 230C296.66 237.904 297.565 247.17 298.354 252C298.962 255.725 306.409 269.5 306.409 269.5L316.331 281.344H281.182C282.883 291.1 285.14 297.885 285.14 297.885C285.14 297.885 286.163 301.05 287.923 305.92H337.131L365.963 326.715L296.66 327.66C299.625 334.237 302.958 340.811 306.409 346.091C308.692 349.584 311.331 353.913 313.709 357.907L394.794 356.489L418.427 375.393H323.897C325.742 378.443 330.678 385.444 332.405 389.572L337.796 399.777C339.085 402.131 340.207 404.203 340.644 405.168L346.112 401.86L433.551 403.277L438.751 423.6H349.42C352.389 431.392 354.937 441.894 355.565 452.429L363.127 448.648L438.751 450.066L433.551 470.389H355.565C353.301 482.94 350.838 497.327 350.838 497.327C350.838 497.327 327.358 532.158 306.409 546.952C287.899 560.023 272.116 567.134 248 567C222.289 566.857 207.579 558.221 186.5 543.5C173.483 534.41 159.006 520.304 152.5 512C150.29 509.179 149 507 149 507L151.5 508L152.5 512C159.006 520.304 173.483 534.41 186.5 543.5C207.579 558.221 222.289 566.857 248 567C272.116 567.134 287.899 560.023 306.409 546.952C327.358 532.158 350.838 497.327 350.838 497.327C350.838 497.327 353.301 482.94 355.565 470.389C357.037 462.225 356.007 459.854 355.565 452.429C354.937 441.894 352.389 431.392 349.42 423.6C346.85 416.852 344.071 412.727 340.644 405.168L337.796 399.777C335.69 395.93 333.14 391.329 332.405 389.572C330.678 385.444 325.742 378.443 323.897 375.393C320.533 369.832 320.589 369.722 320.589 369.722C320.589 369.722 317.477 364.234 313.709 357.907C311.331 353.913 308.692 349.584 306.409 346.091C302.958 340.811 299.625 334.237 296.66 327.66C293.046 319.64 289.98 311.614 287.923 305.92C286.163 301.05 285.14 297.885 285.14 297.885C285.14 297.885 282.883 291.1 281.182 281.344C278.789 267.618 282.117 254.446 285.14 238C287.923 222.863 291.5 201.5 291.5 201.5L334.5 200.5L390.693 208.986H424.5L464.5 225V227.939L368.326 215.178Z" fill="#59A878"/>
<path d="M291.5 201.5C291.5 201.5 287.923 222.863 285.14 238C282.117 254.446 278.789 267.618 281.182 281.344M291.5 201.5L334.5 200.5L390.693 208.986H424.5L464.5 225V227.939L368.326 215.178H339.967C326.911 207.345 324.143 211.022 312.5 210M291.5 201.5C294.029 202.006 309.391 209.727 312.5 210M332.405 389.572C333.59 392.405 339.493 402.628 340.644 405.168M332.405 389.572L340.644 405.168M332.405 389.572C330.678 385.444 325.742 378.443 323.897 375.393M355.565 452.429L363.127 448.648L438.751 450.066L433.551 470.389H355.565M355.565 452.429C356.007 459.854 357.037 462.225 355.565 470.389M355.565 452.429C354.937 441.894 352.389 431.392 349.42 423.6M350.838 497.327H427.88L423.626 507.252L419.845 517.177H344.694M350.838 497.327C350.838 497.327 353.301 482.94 355.565 470.389M350.838 497.327C350.838 497.327 327.358 532.158 306.409 546.952C287.899 560.023 272.116 567.134 248 567C222.289 566.857 207.579 558.221 186.5 543.5C173.483 534.41 159.006 520.304 152.5 512M340.644 405.168L346.112 401.86L433.551 403.277L438.751 423.6H349.42M340.644 405.168C344.071 412.727 346.85 416.852 349.42 423.6M313.709 357.907C311.331 353.913 308.692 349.584 306.409 346.091C302.958 340.811 299.625 334.237 296.66 327.66M313.709 357.907C317.477 364.234 320.589 369.722 320.589 369.722C320.589 369.722 320.533 369.832 323.897 375.393M313.709 357.907L394.794 356.489L418.427 375.393H323.897M296.66 327.66L365.963 326.715L337.131 305.92H287.923M296.66 327.66C293.046 319.64 289.98 311.614 287.923 305.92M287.923 305.92C286.163 301.05 285.14 297.885 285.14 297.885C285.14 297.885 282.883 291.1 281.182 281.344M281.182 281.344H316.331L306.409 269.5C306.409 269.5 298.962 255.725 298.354 252C297.565 247.17 296.66 237.904 296.66 230C296.66 214 312.5 210 312.5 210M152.5 512C150.29 509.179 149 507 149 507L151.5 508L152.5 512Z" stroke="#232323" stroke-width="15" stroke-linecap="round"/>
<path d="M291.5 201.5C291.5 201.5 287.923 222.863 285.14 238C282.117 254.446 278.789 267.618 281.182 281.344M291.5 201.5L334.5 200.5L390.693 208.986H424.5L464.5 225V227.939L368.326 215.178H339.967C326.911 207.345 324.143 211.022 312.5 210M291.5 201.5C294.029 202.006 309.391 209.727 312.5 210M332.405 389.572C333.59 392.405 339.493 402.628 340.644 405.168M332.405 389.572L340.644 405.168M332.405 389.572C330.678 385.444 325.742 378.443 323.897 375.393M355.565 452.429L363.127 448.648L438.751 450.066L433.551 470.389H355.565M355.565 452.429C356.007 459.854 357.037 462.225 355.565 470.389M355.565 452.429C354.937 441.894 352.389 431.392 349.42 423.6M350.838 497.327H427.88L423.626 507.252L419.845 517.177H344.694M350.838 497.327C350.838 497.327 353.301 482.94 355.565 470.389M350.838 497.327C350.838 497.327 327.358 532.158 306.409 546.952C287.899 560.023 272.116 567.134 248 567C222.289 566.857 207.579 558.221 186.5 543.5C173.483 534.41 159.006 520.304 152.5 512M340.644 405.168L346.112 401.86L433.551 403.277L438.751 423.6H349.42M340.644 405.168C344.071 412.727 346.85 416.852 349.42 423.6M313.709 357.907C311.331 353.913 308.692 349.584 306.409 346.091C302.958 340.811 299.625 334.237 296.66 327.66M313.709 357.907C317.477 364.234 320.589 369.722 320.589 369.722C320.589 369.722 320.533 369.832 323.897 375.393M313.709 357.907L394.794 356.489L418.427 375.393H323.897M296.66 327.66L365.963 326.715L337.131 305.92H287.923M296.66 327.66C293.046 319.64 289.98 311.614 287.923 305.92M287.923 305.92C286.163 301.05 285.14 297.885 285.14 297.885C285.14 297.885 282.883 291.1 281.182 281.344M281.182 281.344H316.331L306.409 269.5C306.409 269.5 298.962 255.725 298.354 252C297.565 247.17 296.66 237.904 296.66 230C296.66 214 312.5 210 312.5 210M152.5 512C150.29 509.179 149 507 149 507L151.5 508L152.5 512Z" stroke="#195A42" stroke-width="15" stroke-linecap="round"/>
<path d="M427 524H348.775L323.329 549.819M255 580C255 580 277.818 573.728 291.756 567.927C312.405 559.334 323.329 549.819 323.329 549.819M399.783 549.819H323.329" stroke="black" stroke-width="15" stroke-linecap="round"/>
<g filter="url(#filter3_d_835_80)">
<path d="M75.7623 497.963C75.7623 497.963 65.2432 498.815 61.7351 492.35C57.9208 485.321 59.3472 468.776 59.3472 468.776M59.3472 468.776C59.3472 468.776 74.1307 472.179 82.0295 466.811C90.3905 461.129 93.6913 450.638 93.9679 441.835C94.4572 426.257 89.491 409 70.0917 409C54.6323 409 44.6281 418.377 43.2311 432.854C42.525 440.172 43.3327 452.427 47.111 459.235C51.7836 467.653 59.3472 468.776 59.3472 468.776Z" stroke="#F0F0F0" stroke-width="10" stroke-linecap="round" shape-rendering="crispEdges"/>
</g>
<g filter="url(#filter4_d_835_80)">
<path d="M607.029 154.972C607.029 154.972 628.113 146.035 635.412 154.972C639.815 160.363 638.255 181.122 638.255 181.122M638.255 181.122C638.255 181.122 624.921 178.226 617.797 182.795C610.256 187.631 607.278 196.56 607.029 204.053C606.588 217.312 611.067 232 628.564 232C642.508 232 651.531 224.019 652.792 211.697C653.428 205.468 652.7 195.037 649.292 189.243C645.078 182.078 638.255 181.122 638.255 181.122Z" stroke="#F0F0F0" stroke-width="12" stroke-linecap="round" shape-rendering="crispEdges"/>
</g>
<g filter="url(#filter5_d_835_80)">
<ellipse cx="72.5" cy="357" rx="9.5" ry="9" fill="#D9D9D9"/>
<path d="M81 357C81 361.368 77.2461 365 72.5 365C67.7539 365 64 361.368 64 357C64 352.632 67.7539 349 72.5 349C77.2461 349 81 352.632 81 357Z" stroke="black" stroke-width="2"/>
</g>
<g filter="url(#filter6_d_835_80)">
<circle cx="137.5" cy="425.5" r="11.5" fill="#D9D9D9"/>
<circle cx="137.5" cy="425.5" r="10.5" stroke="black" stroke-width="2"/>
</g>
<g filter="url(#filter7_d_835_80)">
<ellipse cx="584.5" cy="71" rx="9.5" ry="9" fill="#D9D9D9"/>
<path d="M593 71C593 75.368 589.246 79 584.5 79C579.754 79 576 75.368 576 71C576 66.632 579.754 63 584.5 63C589.246 63 593 66.632 593 71Z" stroke="black" stroke-width="2"/>
</g>
<g filter="url(#filter8_d_835_80)">
<circle cx="657.5" cy="118.5" r="11.5" fill="#D9D9D9"/>
<circle cx="657.5" cy="118.5" r="10.5" stroke="black" stroke-width="2"/>
</g>
<defs>
<filter id="filter0_d_835_80" x="12.647" y="85.2942" width="325.862" height="318.53" filterUnits="userSpaceOnUse" color-interpolation-filters="sRGB">
<feFlood flood-opacity="0" result="BackgroundImageFix"/>
<feColorMatrix in="SourceAlpha" type="matrix" values="0 0 0 0 0 0 0 0 0 0 0 0 0 0 0 0 0 0 127 0" result="hardAlpha"/>
<feOffset dy="10"/>
<feGaussianBlur stdDeviation="2"/>
<feComposite in2="hardAlpha" operator="out"/>
<feColorMatrix type="matrix" values="0 0 0 0 0 0 0 0 0 0 0 0 0 0 0 0 0 0 0.28 0"/>
<feBlend mode="normal" in2="BackgroundImageFix" result="effect1_dropShadow_835_80"/>
<feBlend mode="normal" in="SourceGraphic" in2="effect1_dropShadow_835_80" result="shape"/>
</filter>
<filter id="filter1_d_835_80" x="6" y="79.6265" width="340.105" height="329.797" filterUnits="userSpaceOnUse" color-interpolation-filters="sRGB">
<feFlood flood-opacity="0" result="BackgroundImageFix"/>
<feColorMatrix in="SourceAlpha" type="matrix" values="0 0 0 0 0 0 0 0 0 0 0 0 0 0 0 0 0 0 127 0" result="hardAlpha"/>
<feOffset dy="10"/>
<feGaussianBlur stdDeviation="2"/>
<feComposite in2="hardAlpha" operator="out"/>
<feColorMatrix type="matrix" values="0 0 0 0 0 0 0 0 0 0 0 0 0 0 0 0 0 0 0.28 0"/>
<feBlend mode="normal" in2="BackgroundImageFix" result="effect1_dropShadow_835_80"/>
<feBlend mode="normal" in="SourceGraphic" in2="effect1_dropShadow_835_80" result="shape"/>
</filter>
<filter id="filter2_d_835_80" x="113.386" y="2.00098" width="463.612" height="619" filterUnits="userSpaceOnUse" color-interpolation-filters="sRGB">
<feFlood flood-opacity="0" result="BackgroundImageFix"/>
<feColorMatrix in="SourceAlpha" type="matrix" values="0 0 0 0 0 0 0 0 0 0 0 0 0 0 0 0 0 0 127 0" result="hardAlpha"/>
<feOffset dy="12"/>
<feGaussianBlur stdDeviation="3.5"/>
<feComposite in2="hardAlpha" operator="out"/>
<feColorMatrix type="matrix" values="0 0 0 0 0 0 0 0 0 0 0 0 0 0 0 0 0 0 0.59 0"/>
<feBlend mode="normal" in2="BackgroundImageFix" result="effect1_dropShadow_835_80"/>
<feBlend mode="normal" in="SourceGraphic" in2="effect1_dropShadow_835_80" result="shape"/>
</filter>
<filter id="filter3_d_835_80" x="29" y="404" width="70" height="108" filterUnits="userSpaceOnUse" color-interpolation-filters="sRGB">
<feFlood flood-opacity="0" result="BackgroundImageFix"/>
<feColorMatrix in="SourceAlpha" type="matrix" values="0 0 0 0 0 0 0 0 0 0 0 0 0 0 0 0 0 0 127 0" result="hardAlpha"/>
<feOffset dx="-9" dy="9"/>
<feComposite in2="hardAlpha" operator="out"/>
<feColorMatrix type="matrix" values="0 0 0 0 0 0 0 0 0 0 0 0 0 0 0 0 0 0 0.44 0"/>
<feBlend mode="normal" in2="BackgroundImageFix" result="effect1_dropShadow_835_80"/>
<feBlend mode="normal" in="SourceGraphic" in2="effect1_dropShadow_835_80" result="shape"/>
</filter>
<filter id="filter4_d_835_80" x="592" y="145" width="66.9999" height="102" filterUnits="userSpaceOnUse" color-interpolation-filters="sRGB">
<feFlood flood-opacity="0" result="BackgroundImageFix"/>
<feColorMatrix in="SourceAlpha" type="matrix" values="0 0 0 0 0 0 0 0 0 0 0 0 0 0 0 0 0 0 127 0" result="hardAlpha"/>
<feOffset dx="-9" dy="9"/>
<feComposite in2="hardAlpha" operator="out"/>
<feColorMatrix type="matrix" values="0 0 0 0 0 0 0 0 0 0 0 0 0 0 0 0 0 0 0.44 0"/>
<feBlend mode="normal" in2="BackgroundImageFix" result="effect1_dropShadow_835_80"/>
<feBlend mode="normal" in="SourceGraphic" in2="effect1_dropShadow_835_80" result="shape"/>
</filter>
<filter id="filter5_d_835_80" x="57" y="348" width="25" height="20" filterUnits="userSpaceOnUse" color-interpolation-filters="sRGB">
<feFlood flood-opacity="0" result="BackgroundImageFix"/>
<feColorMatrix in="SourceAlpha" type="matrix" values="0 0 0 0 0 0 0 0 0 0 0 0 0 0 0 0 0 0 127 0" result="hardAlpha"/>
<feOffset dx="-6" dy="2"/>
<feComposite in2="hardAlpha" operator="out"/>
<feColorMatrix type="matrix" values="0 0 0 0 0 0 0 0 0 0 0 0 0 0 0 0 0 0 0.29 0"/>
<feBlend mode="normal" in2="BackgroundImageFix" result="effect1_dropShadow_835_80"/>
<feBlend mode="normal" in="SourceGraphic" in2="effect1_dropShadow_835_80" result="shape"/>
</filter>
<filter id="filter6_d_835_80" x="120" y="414" width="29" height="25" filterUnits="userSpaceOnUse" color-interpolation-filters="sRGB">
<feFlood flood-opacity="0" result="BackgroundImageFix"/>
<feColorMatrix in="SourceAlpha" type="matrix" values="0 0 0 0 0 0 0 0 0 0 0 0 0 0 0 0 0 0 127 0" result="hardAlpha"/>
<feOffset dx="-6" dy="2"/>
<feComposite in2="hardAlpha" operator="out"/>
<feColorMatrix type="matrix" values="0 0 0 0 0 0 0 0 0 0 0 0 0 0 0 0 0 0 0.29 0"/>
<feBlend mode="normal" in2="BackgroundImageFix" result="effect1_dropShadow_835_80"/>
<feBlend mode="normal" in="SourceGraphic" in2="effect1_dropShadow_835_80" result="shape"/>
</filter>
<filter id="filter7_d_835_80" x="569" y="62" width="25" height="20" filterUnits="userSpaceOnUse" color-interpolation-filters="sRGB">
<feFlood flood-opacity="0" result="BackgroundImageFix"/>
<feColorMatrix in="SourceAlpha" type="matrix" values="0 0 0 0 0 0 0 0 0 0 0 0 0 0 0 0 0 0 127 0" result="hardAlpha"/>
<feOffset dx="-6" dy="2"/>
<feComposite in2="hardAlpha" operator="out"/>
<feColorMatrix type="matrix" values="0 0 0 0 0 0 0 0 0 0 0 0 0 0 0 0 0 0 0.29 0"/>
<feBlend mode="normal" in2="BackgroundImageFix" result="effect1_dropShadow_835_80"/>
<feBlend mode="normal" in="SourceGraphic" in2="effect1_dropShadow_835_80" result="shape"/>
</filter>
<filter id="filter8_d_835_80" x="640" y="107" width="29" height="25" filterUnits="userSpaceOnUse" color-interpolation-filters="sRGB">
<feFlood flood-opacity="0" result="BackgroundImageFix"/>
<feColorMatrix in="SourceAlpha" type="matrix" values="0 0 0 0 0 0 0 0 0 0 0 0 0 0 0 0 0 0 127 0" result="hardAlpha"/>
<feOffset dx="-6" dy="2"/>
<feComposite in2="hardAlpha" operator="out"/>
<feColorMatrix type="matrix" values="0 0 0 0 0 0 0 0 0 0 0 0 0 0 0 0 0 0 0.29 0"/>
<feBlend mode="normal" in2="BackgroundImageFix" result="effect1_dropShadow_835_80"/>
<feBlend mode="normal" in="SourceGraphic" in2="effect1_dropShadow_835_80" result="shape"/>
</filter>
</defs>
</svg>
