<svg width="21" height="21" viewBox="0 0 21 21" fill="none" xmlns="http://www.w3.org/2000/svg">
<path d="M17.7547 5.20394C17.5337 5.20394 17.3217 5.29174 17.1655 5.44802C17.0092 5.6043 16.9214 5.81626 16.9214 6.03727V14.3706C16.9214 15.0336 16.658 15.6695 16.1892 16.1384C15.7203 16.6072 15.0844 16.8706 14.4214 16.8706H6.08805C5.86704 16.8706 5.65508 16.9584 5.4988 17.1147C5.34252 17.271 5.25472 17.4829 5.25472 17.7039C5.25472 17.925 5.34252 18.1369 5.4988 18.2932C5.65508 18.4495 5.86704 18.5373 6.08805 18.5373H14.4214C15.5265 18.5373 16.5863 18.0983 17.3677 17.3169C18.1491 16.5355 18.5881 15.4757 18.5881 14.3706V6.03727C18.5881 5.81626 18.5003 5.6043 18.344 5.44802C18.1877 5.29174 17.9757 5.20394 17.7547 5.20394ZM15.2547 12.7039V4.37061C15.2547 3.70756 14.9913 3.07168 14.5225 2.60284C14.0536 2.134 13.4178 1.87061 12.7547 1.87061H4.42139C3.75835 1.87061 3.12246 2.134 2.65362 2.60284C2.18478 3.07168 1.92139 3.70756 1.92139 4.37061V12.7039C1.92139 13.367 2.18478 14.0029 2.65362 14.4717C3.12246 14.9405 3.75835 15.2039 4.42139 15.2039H12.7547C13.4178 15.2039 14.0536 14.9405 14.5225 14.4717C14.9913 14.0029 15.2547 13.367 15.2547 12.7039ZM8.58805 3.53727H10.2547V7.58727L9.95472 7.33727C9.80498 7.21255 9.61627 7.14425 9.42139 7.14425C9.22651 7.14425 9.03779 7.21255 8.88805 7.33727L8.58805 7.58727V3.53727ZM3.58805 12.7039V4.37061C3.58805 4.14959 3.67585 3.93763 3.83213 3.78135C3.98841 3.62507 4.20037 3.53727 4.42139 3.53727H6.92139V9.37061C6.92138 9.52991 6.96703 9.68588 7.05293 9.82003C7.13884 9.95419 7.26139 10.0609 7.40609 10.1276C7.55078 10.1942 7.71154 10.218 7.86933 10.1961C8.02712 10.1742 8.17533 10.1075 8.29639 10.0039L9.42139 9.06227L10.5464 10.0039C10.6973 10.133 10.8894 10.204 11.0881 10.2039C11.2086 10.2031 11.3277 10.1776 11.4381 10.1289C11.5827 10.062 11.7051 9.95497 11.7908 9.82056C11.8765 9.68615 11.9218 9.52999 11.9214 9.37061V3.53727H12.7547C12.9757 3.53727 13.1877 3.62507 13.344 3.78135C13.5003 3.93763 13.5881 4.14959 13.5881 4.37061V12.7039C13.5881 12.925 13.5003 13.1369 13.344 13.2932C13.1877 13.4495 12.9757 13.5373 12.7547 13.5373H4.42139C4.20037 13.5373 3.98841 13.4495 3.83213 13.2932C3.67585 13.1369 3.58805 12.925 3.58805 12.7039Z" fill="black"/>
</svg>
