<svg width="18" height="16" viewBox="0 0 18 16" fill="none" xmlns="http://www.w3.org/2000/svg">
<path d="M14.2835 1.99984H11.3227C11.0252 1.2265 10.246 0.666504 9.3252 0.666504C8.40436 0.666504 7.6252 1.2265 7.3277 1.99984H4.36686C3.5877 1.99984 2.9502 2.59984 2.9502 3.33317V12.6665C2.9502 13.3998 3.5877 13.9998 4.36686 13.9998H14.2835C15.0627 13.9998 15.7002 13.3998 15.7002 12.6665V3.33317C15.7002 2.59984 15.0627 1.99984 14.2835 1.99984ZM9.3252 1.99984C9.71478 1.99984 10.0335 2.29984 10.0335 2.6665C10.0335 3.03317 9.71478 3.33317 9.3252 3.33317C8.93561 3.33317 8.61686 3.03317 8.61686 2.6665C8.61686 2.29984 8.93561 1.99984 9.3252 1.99984ZM10.7419 11.3332H5.78353V9.99984H10.7419V11.3332ZM12.8669 8.6665H5.78353V7.33317H12.8669V8.6665ZM12.8669 5.99984H5.78353V4.6665H12.8669V5.99984Z" fill="black"/>
</svg>
