<svg width="21" height="18" viewBox="0 0 21 18" fill="none" xmlns="http://www.w3.org/2000/svg">
<path d="M10.2192 1.9165C6.50624 1.9165 3.48999 4.61525 3.48999 7.93734C3.48999 11.2594 6.50624 13.9582 10.2192 13.9582H10.615V16.0832C14.4625 14.4257 16.9483 11.1248 16.9483 7.93734C16.9483 4.61525 13.9321 1.9165 10.2192 1.9165ZM11.0108 12.1873H9.42749V10.7707H11.0108V12.1873ZM11.0108 9.70817H9.42749C9.42749 7.40609 11.8025 7.58317 11.8025 6.1665C11.8025 5.38734 11.09 4.74984 10.2192 4.74984C9.34832 4.74984 8.63582 5.38734 8.63582 6.1665H7.05249C7.05249 4.60109 8.46957 3.33317 10.2192 3.33317C11.9687 3.33317 13.3858 4.60109 13.3858 6.1665C13.3858 7.93734 11.0108 8.11442 11.0108 9.70817Z" fill="black"/>
</svg>
