<svg version="1.1" id="Layer_1" xmlns="http://www.w3.org/2000/svg" xmlns:xlink="http://www.w3.org/1999/xlink" x="0px" y="0px"
	 width="100%" viewBox="0 0 492 507" enable-background="new 0 0 492 507" xml:space="preserve">
<path fill="transparent" opacity="0" stroke="none"
	d="
M272.000000,508.000000
	C181.333359,508.000000 91.166710,508.000000 1.000048,508.000000
	C1.000032,339.000061 1.000032,170.000122 1.000016,1.000139
	C164.999893,1.000093 328.999786,1.000093 492.999756,1.000046
	C492.999847,169.999863 492.999847,338.999725 492.999939,507.999786
	C419.500000,508.000000 346.000000,508.000000 272.000000,508.000000
M419.016602,176.369003
	C418.699097,175.880615 418.381561,175.392227 418.040894,174.968933
	C418.040894,174.968933 418.107666,174.951157 418.011902,174.222946
	C416.043427,170.804230 414.074921,167.385513 411.968842,163.258224
	C403.444733,151.184479 395.175507,138.917923 386.263885,127.137337
	C382.965820,122.777519 378.157806,119.559937 373.913116,115.135521
	C371.903229,108.664124 366.303467,105.401894 361.746979,101.081680
	C350.664062,90.573418 337.743835,82.812790 324.434875,75.744827
	C303.071564,64.399490 279.881317,58.897224 256.023285,56.040047
	C253.011536,55.679371 251.908615,54.621227 251.981766,51.745087
	C252.074860,48.084068 252.232239,44.398094 251.921631,40.760464
	C251.572632,36.673023 253.213516,34.851990 257.139923,33.802212
	C263.160736,32.192467 266.794495,27.791134 266.883759,22.589632
	C266.987793,16.525999 264.125305,11.587317 258.669495,9.469650
	C247.826416,5.260922 236.733917,4.256234 226.346848,11.087003
	C221.848267,14.045383 219.938019,18.753716 220.198013,23.955004
	C220.430328,28.602493 223.058624,32.874676 227.570267,33.569553
	C233.921646,34.547783 234.371460,38.197983 234.035278,43.080711
	C233.909775,44.903713 234.029785,46.742939 234.019577,48.574669
	C233.981552,55.404160 233.442322,56.139717 226.609711,55.958080
	C214.753220,55.642887 203.194473,56.783367 191.605148,59.739754
	C175.603058,63.821812 159.973969,68.759674 145.791840,77.206757
	C133.284653,84.656219 121.132721,92.763123 109.279282,101.218117
	C104.751785,104.447563 100.170067,108.898880 102.296593,116.069061
	C96.685661,122.088196 90.796692,127.874214 85.517136,134.171173
	C70.997032,151.489365 59.685623,170.728241 52.031612,192.047974
	C46.080967,208.623093 41.262024,225.508011 41.074986,243.246796
	C40.927380,257.245972 41.746815,271.253021 41.922211,285.259277
	C41.980503,289.914764 41.372684,294.578583 40.483948,298.842377
	C39.090492,297.922150 37.697041,297.001923 35.426117,295.502228
	C34.868980,300.374634 34.050728,304.237396 34.168743,308.071381
	C34.217991,309.671204 35.919598,311.954834 37.450741,312.652130
	C45.771244,316.441437 54.183533,320.072632 62.747356,323.267365
	C67.607819,325.080597 72.142891,328.738098 78.042908,327.835144
	C83.718452,331.762482 89.448875,330.196930 95.626328,327.975098
	C95.626328,327.975098 96.045013,327.833832 96.855293,327.929749
	C98.629189,327.623505 100.403091,327.317291 102.909668,326.983856
	C106.215294,325.535095 110.082886,324.737885 112.694962,322.484985
	C116.621193,319.098602 119.356476,320.106232 123.208923,322.475159
	C129.064667,326.075928 135.161011,330.554108 141.641846,331.577454
	C151.816864,333.184113 162.336227,332.276062 172.546707,329.278229
	C188.488129,324.597748 200.143661,315.152222 207.041855,299.989899
	C213.022125,286.845215 218.979874,273.689941 224.868210,260.503906
	C228.402634,252.589096 231.486099,244.459549 235.304291,236.687912
	C241.301926,224.480194 247.335800,212.252426 254.179199,200.514038
	C257.610382,194.628616 262.628235,189.585358 267.344513,184.550903
	C274.983673,176.396347 282.221893,167.539078 293.816864,164.622620
	C302.497620,162.439178 311.142181,161.558167 320.231598,162.780045
	C330.241577,164.125702 339.864075,166.086624 349.379150,169.648880
	C362.052765,174.393646 375.072906,178.270203 388.084137,182.036133
	C396.894287,184.586105 406.119110,185.773880 413.959106,191.087936
	C417.223877,193.300858 420.521271,195.489746 423.961151,197.407257
	C425.169037,198.080566 426.847351,197.909958 428.310852,198.124680
	C428.300293,196.595657 428.810760,194.797806 428.185486,193.585968
	C425.943756,189.241440 423.317657,185.095215 420.915192,180.272003
	C420.616272,179.818970 420.317352,179.365952 420.000427,179.002884
	C420.000427,179.002884 420.090363,179.021027 419.988098,178.383179
	C419.672272,177.890427 419.356476,177.397675 419.025574,176.986374
	C419.025574,176.986374 419.107147,177.000916 419.016602,176.369003
M434.925720,222.097656
	C437.636078,224.319122 440.346466,226.540604 443.056824,228.762070
	C443.535980,228.444305 444.015137,228.126526 444.494293,227.808762
	C443.171814,223.827408 441.948517,219.809021 440.481934,215.881470
	C439.821533,214.112808 439.096130,211.711258 437.684631,210.982224
	C424.130707,203.981461 410.975159,195.677658 394.659485,196.925110
	C391.415833,197.173096 388.065948,195.983643 384.815552,196.203598
	C380.664307,196.484543 375.537170,196.205124 372.626984,198.472687
	C362.178528,206.613998 353.039673,203.687897 343.618713,197.079575
	C338.610321,193.566406 332.954315,192.143005 326.790527,192.980759
	C323.688049,193.402435 320.475677,193.296158 317.462158,194.036087
	C310.000153,195.868301 302.039612,196.910782 295.343140,200.344849
	C283.767792,206.280884 277.056549,217.309570 271.197357,228.512772
	C267.291931,235.980270 264.131897,243.839661 260.686737,251.545349
	C253.458679,267.712036 246.099350,283.822723 239.097198,300.086975
	C231.405106,317.953918 221.532501,334.336945 206.893173,347.337738
	C199.773758,353.660309 192.438171,360.018951 181.876297,360.205750
	C177.472839,360.283630 173.073349,361.414124 168.700241,362.219086
	C157.464203,364.287292 146.605515,362.246277 136.039764,358.767120
	C127.307892,355.891815 118.933014,351.946045 110.240936,348.933350
	C91.735893,342.519470 72.440010,338.096313 56.001358,326.618652
	C54.869095,325.828064 52.974705,326.129028 51.007423,325.865021
	C51.432201,327.619934 51.695179,328.706390 51.299557,330.159119
	C51.343105,330.758636 51.248203,331.409882 51.450066,331.950256
	C61.689926,359.360687 78.438881,382.582123 98.465164,403.485413
	C111.071236,416.643585 125.791283,427.391296 141.823486,436.037415
	C175.565445,454.234344 211.407593,463.380646 250.061462,461.093475
	C267.006409,460.090820 283.433350,457.154144 299.456238,451.936981
	C332.835327,441.068451 361.621399,422.962982 385.441681,396.974579
	C397.438721,383.885651 407.449860,369.541046 415.544739,353.780884
	C425.371796,334.648438 431.926422,314.538574 434.019592,293.064423
	C434.625977,286.843109 435.543732,280.624664 435.677734,274.391113
	C435.887939,264.612244 435.667633,254.818710 435.413574,245.036987
	C435.212799,237.307938 434.687042,229.587341 434.925720,222.097656
M391.321167,191.994202
	C393.610168,191.855515 395.899170,191.716843 398.188171,191.578156
	C397.024384,189.973373 395.874298,189.331009 394.643097,188.951965
	C384.813019,185.925369 374.989624,182.873581 365.120514,179.978317
	C355.730042,177.223480 346.433075,173.542252 336.830078,172.273071
	C324.761261,170.677948 312.334015,170.081619 300.237732,171.116058
	C294.003754,171.649155 286.845367,175.374084 282.415222,179.912323
	C274.613739,187.904129 268.557800,197.605896 261.818695,206.627335
	C252.143616,219.579117 243.481430,233.153595 237.967056,248.441788
	C231.198517,267.207062 224.456985,285.935028 213.122177,302.613678
	C206.605591,312.202515 202.305832,323.534119 191.603104,329.758484
	C187.334442,332.240967 183.144745,335.520721 178.501434,336.545929
	C171.125641,338.174500 163.378906,338.954529 155.826630,338.744232
	C146.124725,338.474152 136.392654,338.083344 127.083405,333.838013
	C122.706207,331.841888 117.066551,332.380096 111.984970,332.222931
	C105.882927,332.034210 99.764946,332.435547 93.655777,332.377991
	C89.106216,332.335083 84.559708,331.968872 80.011841,331.746613
	C79.888535,332.177521 79.765228,332.608459 79.641922,333.039368
	C81.304604,333.828583 82.892776,334.894287 84.641190,335.365417
	C109.488724,342.061157 134.153427,349.631165 159.285385,355.014954
	C180.141388,359.482697 198.352142,351.628662 211.777390,335.442871
	C224.556290,320.036285 233.305237,301.963196 241.035446,283.517517
	C248.340637,266.086060 254.222672,248.025085 264.557129,231.959137
	C272.333862,219.869415 279.343140,207.581345 290.473267,197.633728
	C305.818146,183.919128 334.774078,182.262802 350.511414,193.473236
	C353.287964,195.451096 358.223541,195.851105 361.733917,195.065811
	C371.214813,192.944901 380.657135,191.467285 391.321167,191.994202
M405.459320,193.938950
	C410.405060,195.682617 415.350800,197.426270 420.296570,199.169937
	C420.489075,198.643723 420.681549,198.117508 420.874054,197.591293
	C415.609283,195.737106 410.356964,193.845230 405.058228,192.093826
	C404.588928,191.938705 403.816986,192.699173 403.185638,193.034393
	C403.673889,193.339157 404.162109,193.643921 405.459320,193.938950
z"/>
<path fill="#246840" opacity="1.000000" stroke="none"
	d="
M51.958164,329.792877
	C51.695179,328.706390 51.432201,327.619934 51.007423,325.865021
	C52.974705,326.129028 54.869095,325.828064 56.001358,326.618652
	C72.440010,338.096313 91.735893,342.519470 110.240936,348.933350
	C118.933014,351.946045 127.307892,355.891815 136.039764,358.767120
	C146.605515,362.246277 157.464203,364.287292 168.700241,362.219086
	C173.073349,361.414124 177.472839,360.283630 181.876297,360.205750
	C192.438171,360.018951 199.773758,353.660309 206.893173,347.337738
	C221.532501,334.336945 231.405106,317.953918 239.097198,300.086975
	C246.099350,283.822723 253.458679,267.712036 260.686737,251.545349
	C264.131897,243.839661 267.291931,235.980270 271.197357,228.512772
	C277.056549,217.309570 283.767792,206.280884 295.343140,200.344849
	C302.039612,196.910782 310.000153,195.868301 317.462158,194.036087
	C320.475677,193.296158 323.688049,193.402435 326.790527,192.980759
	C332.954315,192.143005 338.610321,193.566406 343.618713,197.079575
	C353.039673,203.687897 362.178528,206.613998 372.626984,198.472687
	C375.537170,196.205124 380.664307,196.484543 384.815552,196.203598
	C388.065948,195.983643 391.415833,197.173096 394.659485,196.925110
	C410.975159,195.677658 424.130707,203.981461 437.684631,210.982224
	C439.096130,211.711258 439.821533,214.112808 440.481934,215.881470
	C441.948517,219.809021 443.171814,223.827408 444.494293,227.808762
	C444.015137,228.126526 443.535980,228.444305 443.056824,228.762070
	C440.346466,226.540604 437.636078,224.319122 434.452209,221.685577
	C432.176849,219.320511 430.374969,217.367523 428.573120,215.414520
	C428.661133,221.284698 429.615631,226.505981 430.370483,231.755966
	C439.504791,295.283295 423.641052,351.130493 378.077667,397.154755
	C333.716217,441.964966 279.487976,460.762604 216.897141,454.827515
	C181.578445,451.478455 148.943634,440.404968 120.938576,417.739655
	C92.645294,394.841095 70.749809,366.899750 54.920414,334.152863
	C54.163937,332.587891 52.955910,331.241211 51.958164,329.792877
M297.961670,236.482635
	C297.657562,245.295578 297.307892,254.107254 297.065857,262.921906
	C296.911865,268.529724 298.935760,273.274384 302.862854,277.325867
	C315.242798,290.097961 341.955383,296.855103 361.729279,280.622162
	C367.078613,276.230713 371.698456,270.987793 372.004913,263.573730
	C372.520264,251.104721 372.884644,238.622772 372.956818,226.144226
	C373.014740,216.135498 367.854553,210.514282 357.731445,210.035156
	C342.940247,209.335129 328.121613,209.090561 313.311951,208.958725
	C306.366974,208.896896 300.271484,213.802246 298.988586,220.609360
	C298.073883,225.462845 298.270264,230.525726 297.961670,236.482635
z"/>
<path fill="#47796F" opacity="1.000000" stroke="none"
	d="
M96.045013,327.833832
	C96.045013,327.833832 95.626328,327.975098 94.926186,327.976349
	C88.790703,327.669342 83.355362,327.361115 77.920021,327.052856
	C72.142891,328.738098 67.607819,325.080597 62.747356,323.267365
	C54.183533,320.072632 45.771244,316.441437 37.450741,312.652130
	C35.919598,311.954834 34.217991,309.671204 34.168743,308.071381
	C34.050728,304.237396 34.868980,300.374634 35.426117,295.502228
	C37.697041,297.001923 39.090492,297.922150 41.053089,299.211731
	C43.705097,301.584045 45.787960,303.586945 48.776043,306.460358
	C47.580345,295.829926 46.254486,286.672699 45.565544,277.467773
	C42.358185,234.614136 50.508583,194.302582 73.283684,157.459244
	C82.142952,143.127594 92.359520,129.836243 105.683998,118.898636
	C110.423882,120.981125 114.324600,120.314262 118.241661,117.527290
	C125.157806,112.606483 132.365906,108.096603 139.293076,103.190613
	C176.347107,76.948029 217.981369,69.698486 261.952698,75.448303
	C297.999512,80.161888 329.813538,95.203094 356.388092,120.541359
	C362.518921,126.386978 367.631592,125.731247 372.809326,119.090057
	C385.348999,134.234344 397.611694,149.148026 409.986725,164.389862
	C412.768585,168.129059 415.438141,171.540115 418.107666,174.951157
	C418.107666,174.951157 418.040894,174.968933 417.928345,175.270157
	C418.246277,176.047882 418.676727,176.524399 419.107178,177.000916
	C419.107147,177.000916 419.025574,176.986374 418.971741,177.274048
	C419.308746,178.048157 419.699554,178.534592 420.090363,179.021027
	C420.090363,179.021027 420.000427,179.002884 420.000061,179.237686
	C420.278717,179.939667 420.557800,180.406845 420.836884,180.874023
	C423.317657,185.095215 425.943756,189.241440 428.185486,193.585968
	C428.810760,194.797806 428.300293,196.595657 428.310852,198.124680
	C426.847351,197.909958 425.169037,198.080566 423.961151,197.407257
	C420.521271,195.489746 417.223877,193.300858 413.959106,191.087936
	C406.119110,185.773880 396.894287,184.586105 388.084137,182.036133
	C375.072906,178.270203 362.052765,174.393646 349.379150,169.648880
	C339.864075,166.086624 330.241577,164.125702 320.231598,162.780045
	C311.142181,161.558167 302.497620,162.439178 293.816864,164.622620
	C282.221893,167.539078 274.983673,176.396347 267.344513,184.550903
	C262.628235,189.585358 257.610382,194.628616 254.179199,200.514038
	C247.335800,212.252426 241.301926,224.480194 235.304291,236.687912
	C231.486099,244.459549 228.402634,252.589096 224.868210,260.503906
	C218.979874,273.689941 213.022125,286.845215 207.041855,299.989899
	C200.143661,315.152222 188.488129,324.597748 172.546707,329.278229
	C162.336227,332.276062 151.816864,333.184113 141.641846,331.577454
	C135.161011,330.554108 129.064667,326.075928 123.208923,322.475159
	C119.356476,320.106232 116.621193,319.098602 112.694962,322.484985
	C110.082886,324.737885 106.215294,325.535095 102.141182,327.000763
	C99.596802,327.289703 97.820908,327.561768 96.045013,327.833832
M125.388069,278.171082
	C136.211639,278.496399 147.033371,278.962677 157.859344,279.104858
	C167.490952,279.231445 174.343109,273.258942 174.831207,263.778442
	C175.524750,250.307236 175.983521,236.796844 175.712173,223.319916
	C175.632812,219.377472 173.624176,214.697113 170.971298,211.714493
	C157.809158,196.916382 131.147476,190.752472 110.927071,207.569427
	C106.014282,211.655304 101.495888,216.608444 101.148735,223.318741
	C100.452042,236.785446 100.164909,250.288452 100.236984,263.773651
	C100.275177,270.919891 104.035461,275.307098 111.055519,276.949890
	C115.370499,277.959595 119.957870,277.805359 125.388069,278.171082
z"/>
<path fill="#232323" opacity="1.000000" stroke="none"
	d="
M372.532318,118.859451
	C367.631592,125.731247 362.518921,126.386978 356.388092,120.541359
	C329.813538,95.203094 297.999512,80.161888 261.952698,75.448303
	C217.981369,69.698486 176.347107,76.948029 139.293076,103.190613
	C132.365906,108.096603 125.157806,112.606483 118.241661,117.527290
	C114.324600,120.314262 110.423882,120.981125 105.604614,118.584900
	C104.413948,117.433792 103.691475,116.652779 102.969009,115.871773
	C100.170067,108.898880 104.751785,104.447563 109.279282,101.218117
	C121.132721,92.763123 133.284653,84.656219 145.791840,77.206757
	C159.973969,68.759674 175.603058,63.821812 191.605148,59.739754
	C203.194473,56.783367 214.753220,55.642887 226.609711,55.958080
	C233.442322,56.139717 233.981552,55.404160 234.019577,48.574669
	C234.029785,46.742939 233.909775,44.903713 234.035278,43.080711
	C234.371460,38.197983 233.921646,34.547783 227.570267,33.569553
	C223.058624,32.874676 220.430328,28.602493 220.198013,23.955004
	C219.938019,18.753716 221.848267,14.045383 226.346848,11.087003
	C236.733917,4.256234 247.826416,5.260922 258.669495,9.469650
	C264.125305,11.587317 266.987793,16.525999 266.883759,22.589632
	C266.794495,27.791134 263.160736,32.192467 257.139923,33.802212
	C253.213516,34.851990 251.572632,36.673023 251.921631,40.760464
	C252.232239,44.398094 252.074860,48.084068 251.981766,51.745087
	C251.908615,54.621227 253.011536,55.679371 256.023285,56.040047
	C279.881317,58.897224 303.071564,64.399490 324.434875,75.744827
	C337.743835,82.812790 350.664062,90.573418 361.746979,101.081680
	C366.303467,105.401894 371.903229,108.664124 373.655640,115.644440
	C373.109528,117.055389 372.820923,117.957420 372.532318,118.859451
z"/>
<path fill="#163925" opacity="1.000000" stroke="none"
	d="
M390.847839,191.995972
	C380.657135,191.467285 371.214813,192.944901 361.733917,195.065811
	C358.223541,195.851105 353.287964,195.451096 350.511414,193.473236
	C334.774078,182.262802 305.818146,183.919128 290.473267,197.633728
	C279.343140,207.581345 272.333862,219.869415 264.557129,231.959137
	C254.222672,248.025085 248.340637,266.086060 241.035446,283.517517
	C233.305237,301.963196 224.556290,320.036285 211.777390,335.442871
	C198.352142,351.628662 180.141388,359.482697 159.285385,355.014954
	C134.153427,349.631165 109.488724,342.061157 84.641190,335.365417
	C82.892776,334.894287 81.304604,333.828583 79.641922,333.039368
	C79.765228,332.608459 79.888535,332.177521 80.011841,331.746613
	C84.559708,331.968872 89.106216,332.335083 93.655777,332.377991
	C99.764946,332.435547 105.882927,332.034210 111.984970,332.222931
	C117.066551,332.380096 122.706207,331.841888 127.083405,333.838013
	C136.392654,338.083344 146.124725,338.474152 155.826630,338.744232
	C163.378906,338.954529 171.125641,338.174500 178.501434,336.545929
	C183.144745,335.520721 187.334442,332.240967 191.603104,329.758484
	C202.305832,323.534119 206.605591,312.202515 213.122177,302.613678
	C224.456985,285.935028 231.198517,267.207062 237.967056,248.441788
	C243.481430,233.153595 252.143616,219.579117 261.818695,206.627335
	C268.557800,197.605896 274.613739,187.904129 282.415222,179.912323
	C286.845367,175.374084 294.003754,171.649155 300.237732,171.116058
	C312.334015,170.081619 324.761261,170.677948 336.830078,172.273071
	C346.433075,173.542252 355.730042,177.223480 365.120514,179.978317
	C374.989624,182.873581 384.813019,185.925369 394.643097,188.951965
	C395.874298,189.331009 397.024384,189.973373 398.188171,191.578156
	C395.899170,191.716843 393.610168,191.855515 390.847839,191.995972
z"/>
<path fill="#B6C0BA" opacity="1.000000" stroke="none"
	d="
M51.628860,329.976013
	C52.955910,331.241211 54.163937,332.587891 54.920414,334.152863
	C70.749809,366.899750 92.645294,394.841095 120.938576,417.739655
	C148.943634,440.404968 181.578445,451.478455 216.897141,454.827515
	C279.487976,460.762604 333.716217,441.964966 378.077667,397.154755
	C423.641052,351.130493 439.504791,295.283295 430.370483,231.755966
	C429.615631,226.505981 428.661133,221.284698 428.573120,215.414520
	C430.374969,217.367523 432.176849,219.320511 434.142151,221.568253
	C434.687042,229.587341 435.212799,237.307938 435.413574,245.036987
	C435.667633,254.818710 435.887939,264.612244 435.677734,274.391113
	C435.543732,280.624664 434.625977,286.843109 434.019592,293.064423
	C431.926422,314.538574 425.371796,334.648438 415.544739,353.780884
	C407.449860,369.541046 397.438721,383.885651 385.441681,396.974579
	C361.621399,422.962982 332.835327,441.068451 299.456238,451.936981
	C283.433350,457.154144 267.006409,460.090820 250.061462,461.093475
	C211.407593,463.380646 175.565445,454.234344 141.823486,436.037415
	C125.791283,427.391296 111.071236,416.643585 98.465164,403.485413
	C78.438881,382.582123 61.689926,359.360687 51.450066,331.950256
	C51.248203,331.409882 51.343105,330.758636 51.628860,329.976013
z"/>
<path fill="#BAC3BF" opacity="1.000000" stroke="none"
	d="
M102.632797,115.970413
	C103.691475,116.652779 104.413948,117.433792 105.215790,118.528534
	C92.359520,129.836243 82.142952,143.127594 73.283684,157.459244
	C50.508583,194.302582 42.358185,234.614136 45.565544,277.467773
	C46.254486,286.672699 47.580345,295.829926 48.776043,306.460358
	C45.787960,303.586945 43.705097,301.584045 41.345810,299.409851
	C41.372684,294.578583 41.980503,289.914764 41.922211,285.259277
	C41.746815,271.253021 40.927380,257.245972 41.074986,243.246796
	C41.262024,225.508011 46.080967,208.623093 52.031612,192.047974
	C59.685623,170.728241 70.997032,151.489365 85.517136,134.171173
	C90.796692,127.874214 96.685661,122.088196 102.632797,115.970413
z"/>
<path fill="#BAC4BF" opacity="1.000000" stroke="none"
	d="
M372.809326,119.090057
	C372.820923,117.957420 373.109528,117.055389 373.718262,115.987381
	C378.157806,119.559937 382.965820,122.777519 386.263885,127.137337
	C395.175507,138.917923 403.444733,151.184479 411.665894,163.634674
	C410.866760,164.028000 410.370575,164.044861 409.874390,164.061707
	C397.611694,149.148026 385.348999,134.234344 372.809326,119.090057
z"/>
<path fill="#657972" opacity="1.000000" stroke="none"
	d="
M405.054840,193.943817
	C404.162109,193.643921 403.673889,193.339157 403.185638,193.034393
	C403.816986,192.699173 404.588928,191.938705 405.058228,192.093826
	C410.356964,193.845230 415.609283,195.737106 420.874054,197.591293
	C420.681549,198.117508 420.489075,198.643723 420.296570,199.169937
	C415.350800,197.426270 410.405060,195.682617 405.054840,193.943817
z"/>
<path fill="#AEB9B4" opacity="1.000000" stroke="none"
	d="
M409.986725,164.389862
	C410.370575,164.044861 410.866760,164.028000 411.734680,163.988968
	C414.074921,167.385513 416.043427,170.804230 418.059784,174.587051
	C415.438141,171.540115 412.768585,168.129059 409.986725,164.389862
z"/>
<path fill="#747877" opacity="1.000000" stroke="none"
	d="
M77.981461,327.444031
	C83.355362,327.361115 88.790703,327.669342 94.705795,327.992004
	C89.448875,330.196930 83.718452,331.762482 77.981461,327.444031
z"/>
<path fill="#747877" opacity="1.000000" stroke="none"
	d="
M96.450150,327.881775
	C97.820908,327.561768 99.596802,327.289703 101.774841,327.014343
	C100.403091,327.317291 98.629189,327.623505 96.450150,327.881775
z"/>
<path fill="#AEB9B4" opacity="1.000000" stroke="none"
	d="
M420.876038,180.573013
	C420.557800,180.406845 420.278717,179.939667 420.009033,179.192703
	C420.317352,179.365952 420.616272,179.818970 420.876038,180.573013
z"/>
<path fill="#AEB9B4" opacity="1.000000" stroke="none"
	d="
M420.039246,178.702103
	C419.699554,178.534592 419.308746,178.048157 418.979309,177.233322
	C419.356476,177.397675 419.672272,177.890427 420.039246,178.702103
z"/>
<path fill="#AEB9B4" opacity="1.000000" stroke="none"
	d="
M419.061890,176.684952
	C418.676727,176.524399 418.246277,176.047882 417.939941,175.237610
	C418.381561,175.392227 418.699097,175.880615 419.061890,176.684952
z"/>
<path fill="#242524" opacity="1.000000" stroke="none"
	d="
M297.966248,235.988892
	C298.270264,230.525726 298.073883,225.462845 298.988586,220.609360
	C300.271484,213.802246 306.366974,208.896896 313.311951,208.958725
	C328.121613,209.090561 342.940247,209.335129 357.731445,210.035156
	C367.854553,210.514282 373.014740,216.135498 372.956818,226.144226
	C372.884644,238.622772 372.520264,251.104721 372.004913,263.573730
	C371.698456,270.987793 367.078613,276.230713 361.729279,280.622162
	C341.955383,296.855103 315.242798,290.097961 302.862854,277.325867
	C298.935760,273.274384 296.911865,268.529724 297.065857,262.921906
	C297.307892,254.107254 297.657562,245.295578 297.966248,235.988892
M320.033722,219.616287
	C309.803314,218.915802 308.502930,220.180725 308.345428,230.459564
	C308.189789,240.618484 308.036163,250.781372 307.596527,260.930176
	C307.406158,265.325134 308.914795,268.512054 312.126740,271.416534
	C323.716614,281.897003 345.497559,281.790649 356.671875,270.971832
	C360.130554,267.623169 362.144440,263.779236 362.047577,258.606964
	C361.873047,249.289841 362.230713,239.956619 362.572754,230.637695
	C362.899963,221.723679 362.029572,220.555984 352.913635,220.285690
	C342.259399,219.969803 331.598999,219.862213 320.033722,219.616287
z"/>
<path fill="#242525" opacity="1.000000" stroke="none"
	d="
M124.905495,278.172424
	C119.957870,277.805359 115.370499,277.959595 111.055519,276.949890
	C104.035461,275.307098 100.275177,270.919891 100.236984,263.773651
	C100.164909,250.288452 100.452042,236.785446 101.148735,223.318741
	C101.495888,216.608444 106.014282,211.655304 110.927071,207.569427
	C131.147476,190.752472 157.809158,196.916382 170.971298,211.714493
	C173.624176,214.697113 175.632812,219.377472 175.712173,223.319916
	C175.983521,236.796844 175.524750,250.307236 174.831207,263.778442
	C174.343109,273.258942 167.490952,279.231445 157.859344,279.104858
	C147.033371,278.962677 136.211639,278.496399 124.905495,278.172424
M164.603729,261.762970
	C164.898483,249.941605 165.438538,238.117691 165.315933,226.300659
	C165.285187,223.336777 163.749741,219.880966 161.823013,217.544006
	C156.976654,211.665894 149.638611,210.340607 142.662170,208.835693
	C132.289764,206.598221 123.508591,210.720871 116.191292,217.420456
	C113.471153,219.910934 111.660561,224.508621 111.350349,228.302002
	C110.524117,238.405655 110.765320,248.595032 110.530472,258.749146
	C110.369301,265.717529 111.222870,266.965851 118.317245,267.266418
	C131.459106,267.823151 144.613983,268.090881 157.765457,268.391022
	C161.600388,268.478546 164.151245,266.769073 164.603729,261.762970
z"/>
<path fill="#C7C7C7" opacity="1.000000" stroke="none"
	d="
M320.487488,219.640274
	C331.598999,219.862213 342.259399,219.969803 352.913635,220.285690
	C362.029572,220.555984 362.899963,221.723679 362.572754,230.637695
	C362.230713,239.956619 361.873047,249.289841 362.047577,258.606964
	C362.144440,263.779236 360.130554,267.623169 356.671875,270.971832
	C345.497559,281.790649 323.716614,281.897003 312.126740,271.416534
	C308.914795,268.512054 307.406158,265.325134 307.596527,260.930176
	C308.036163,250.781372 308.189789,240.618484 308.345428,230.459564
	C308.502930,220.180725 309.803314,218.915802 320.487488,219.640274
z"/>
<path fill="#C7C7C7" opacity="1.000000" stroke="none"
	d="
M164.544861,262.194946
	C164.151245,266.769073 161.600388,268.478546 157.765457,268.391022
	C144.613983,268.090881 131.459106,267.823151 118.317245,267.266418
	C111.222870,266.965851 110.369301,265.717529 110.530472,258.749146
	C110.765320,248.595032 110.524117,238.405655 111.350349,228.302002
	C111.660561,224.508621 113.471153,219.910934 116.191292,217.420456
	C123.508591,210.720871 132.289764,206.598221 142.662170,208.835693
	C149.638611,210.340607 156.976654,211.665894 161.823013,217.544006
	C163.749741,219.880966 165.285187,223.336777 165.315933,226.300659
	C165.438538,238.117691 164.898483,249.941605 164.544861,262.194946
z"/>
</svg>