<svg width="8" height="41" viewBox="0 0 8 41" fill="none" xmlns="http://www.w3.org/2000/svg">
<path fill-rule="evenodd" clip-rule="evenodd" d="M7.84524 35.5569C7.84524 36.7619 7.46932 37.9176 6.80016 38.7698C6.13101 39.6219 5.22344 40.1006 4.27711 40.1006C3.33079 40.1006 2.42322 39.6219 1.75406 38.7698C1.08491 37.9176 0.708984 36.7619 0.708984 35.5569C0.708984 34.3518 1.08491 33.1961 1.75406 32.3439C2.42322 31.4918 3.33079 31.0131 4.27711 31.0131C5.22344 31.0131 6.13101 31.4918 6.80016 32.3439C7.46932 33.1961 7.84524 34.3518 7.84524 35.5569ZM7.84524 20.4111C7.84524 21.6161 7.46932 22.7719 6.80016 23.624C6.13101 24.4761 5.22344 24.9548 4.27711 24.9548C3.33079 24.9548 2.42322 24.4761 1.75406 23.624C1.08491 22.7719 0.708984 21.6161 0.708984 20.4111C0.708984 19.206 1.08491 18.0503 1.75406 17.1982C2.42322 16.346 3.33079 15.8673 4.27711 15.8673C5.22344 15.8673 6.13101 16.346 6.80016 17.1982C7.46932 18.0503 7.84524 19.206 7.84524 20.4111ZM7.84524 5.26528C7.84524 6.47036 7.46932 7.62608 6.80016 8.47819C6.13101 9.33031 5.22344 9.80902 4.27711 9.80902C3.33079 9.80902 2.42322 9.33031 1.75406 8.47819C1.08491 7.62608 0.708984 6.47036 0.708984 5.26528C0.708984 4.06021 1.08491 2.90449 1.75406 2.05238C2.42322 1.20026 3.33079 0.721546 4.27711 0.721546C5.22344 0.721546 6.13101 1.20026 6.80016 2.05238C7.46932 2.90449 7.84524 4.06021 7.84524 5.26528Z" fill="white"/>
</svg>
